{
.appVersion = "1252";
customParameters = (
{
name = panose;
value = (
2,
11,
5,
2,
4,
5,
4,
2,
2,
4
);
},
{
name = unicodeRanges;
value = (
13
);
},
{
name = codePageRanges;
value = (
1252,
1256
);
},
{
name = fsType;
value = (
);
}
);
date = "2013-09-04 14:13:46 +0000";
disablesAutomaticAlignment = 1;
disablesNiceNames = 1;
familyName = Browne;
featurePrefixes = (
{
code = "lookup lookup_0 {\012sub AlefFin by AlefSep.LA;\012sub LamIni by LamSep.LA;\012sub LamMed by LamFin.LA;\012} lookup_0;\012";
name = lookup_0;
},
{

glyphs = (
{
glyphname = k_RubElHizb;
lastChange = "2019-08-09 22:57:09 +0000";
layers = (
{
layerId = "5E96EFD4-BDA9-4728-9E21-55349679CE65";
paths = (
{
closed = 1;
nodes = (
"972 1216 OFFCURVE",
"918 1251 OFFCURVE",
"877 1251 QCURVE SMOOTH",
"838 1251 OFFCURVE",
"785 1217 OFFCURVE",
"769 1194 QCURVE",
"701 1250 LINE",
"685 1171 LINE",
"654 1184 OFFCURVE",
"622 1184 QCURVE SMOOTH",
"576 1184 OFFCURVE",
"500 1118 OFFCURVE",
"493 1063 QCURVE",
"407 1076 LINE",
"432 1000 LINE",
"381 997 OFFCURVE",
"314 926 OFFCURVE",
"310 874 QCURVE SMOOTH",
"310 864 LINE SMOOTH",
"310 837 OFFCURVE",
"321 811 QCURVE",
"240 780 LINE",
"300 727 LINE",
"276 710 OFFCURVE",
"241 657 OFFCURVE",
"241 615 QCURVE SMOOTH",
"241 577 OFFCURVE",
"274 523 OFFCURVE",
"297 508 QCURVE",
"243 439 LINE",
"321 423 LINE",
"309 396 OFFCURVE",
"309 364 QCURVE SMOOTH",
"309 360 LINE SMOOTH",
"310 311 OFFCURVE",
"375 238 OFFCURVE",
"429 231 QCURVE",
"417 145 LINE",
"491 170 LINE",
"497 115 OFFCURVE",
"569 50 OFFCURVE",
"619 47 QCURVE SMOOTH",
"626 47 LINE SMOOTH",
"655 47 OFFCURVE",
"681 59 QCURVE",
"712 -22 LINE",
"766 38 LINE",
"782 14 OFFCURVE",
"836 -21 OFFCURVE",
"877 -21 QCURVE SMOOTH",
"915 -21 OFFCURVE",
"969 13 OFFCURVE",
"985 36 QCURVE",
"1053 -20 LINE",
"1069 59 LINE",
"1098 46 OFFCURVE",
"1131 46 QCURVE SMOOTH",
"1180 46 OFFCURVE",
"1254 113 OFFCURVE",
"1261 168 QCURVE",
"1347 155 LINE",
"1322 229 LINE",
"1376 235 OFFCURVE",
"1442 309 OFFCURVE",
"1445 357 QCURVE SMOOTH",
"1445 362 LINE SMOOTH",
"1445 390 OFFCURVE",
"1434 419 QCURVE",
"1514 450 LINE",
"1455 503 LINE",
"1479 521 OFFCURVE",
"1514 574 OFFCURVE",
"1514 615 QCURVE SMOOTH",
"1514 653 OFFCURVE",
"1479 707 OFFCURVE",
"1457 723 QCURVE",
"1512 791 LINE",
"1434 807 LINE",
"1446 837 OFFCURVE",
"1446 871 QCURVE SMOOTH",
"1446 917 OFFCURVE",
"1379 992 OFFCURVE",
"1325 1000 QCURVE",
"1338 1085 LINE",
"1262 1060 LINE",
"1259 1113 OFFCURVE",
"1185 1180 OFFCURVE",
"1136 1183 QCURVE SMOOTH",
"1130 1183 LINE SMOOTH",
"1102 1183 OFFCURVE",
"1073 1171 QCURVE",
"1042 1252 LINE",
"989 1193 LINE"
);
},
{
closed = 1;
nodes = (
"897 397 OFFCURVE",
"958 200 OFFCURVE",
"991 143 OFFCURVE",
"991 111 QCURVE SMOOTH",
"991 65 OFFCURVE",
"928 7 OFFCURVE",
"877 7 QCURVE SMOOTH",
"818 7 OFFCURVE",
"758 79 OFFCURVE",
"758 139 QCURVE SMOOTH",
"758 210 OFFCURVE",
"822 463 OFFCURVE",
"857 547 QCURVE",
"864 543 OFFCURVE",
"876 543 QCURVE"
);
},
{
closed = 1;
nodes = (
"1077 634 OFFCURVE",
"1279 690 OFFCURVE",
"1354 729 OFFCURVE",
"1382 729 QCURVE SMOOTH",
"1427 729 OFFCURVE",
"1485 666 OFFCURVE",
"1485 615 QCURVE SMOOTH",
"1485 556 OFFCURVE",
"1413 497 OFFCURVE",
"1354 497 QCURVE SMOOTH",
"1276 497 OFFCURVE",
"1026 562 OFFCURVE",
"946 595 QCURVE",
"947 600 OFFCURVE",
"949 610 OFFCURVE",
"949 614 QCURVE"
);
},
{
closed = 1;
nodes = (
"682 702 OFFCURVE",
"490 750 OFFCURVE",
"391 757 OFFCURVE",
"332 815 OFFCURVE",
"332 856 QCURVE SMOOTH",
"332 897 OFFCURVE",
"395 980 OFFCURVE",
"444 980 QCURVE SMOOTH",
"519 980 OFFCURVE",
"750 763 OFFCURVE",
"827 667 QCURVE",
"824 664 OFFCURVE",
"821 660 QCURVE",
"815 651 LINE"
);
},
{
closed = 1;
nodes = (
"799 448 OFFCURVE",
"742 233 OFFCURVE",
"737 132 OFFCURVE",
"678 70 OFFCURVE",
"636 70 QCURVE SMOOTH",
"594 70 OFFCURVE",
"512 133 OFFCURVE",
"512 182 QCURVE SMOOTH",
"512 256 OFFCURVE",
"726 489 OFFCURVE",
"825 565 QCURVE",
"829 562 OFFCURVE",
"836 556 OFFCURVE",
"840 554 QCURVE"
);
},
{
closed = 1;
nodes = (
"780 756 OFFCURVE",
"622 917 OFFCURVE",
"512 991 OFFCURVE",
"512 1047 QCURVE SMOOTH",
"512 1094 OFFCURVE",
"593 1161 OFFCURVE",
"635 1161 QCURVE SMOOTH",
"726 1161 OFFCURVE",
"841 822 OFFCURVE",
"859 685 QCURVE",
"852 682 OFFCURVE",
"842 678 QCURVE"
);
},
{
closed = 1;
nodes = (
"1020 714 OFFCURVE",
"1180 872 OFFCURVE",
"1254 981 OFFCURVE",
"1309 981 QCURVE SMOOTH",
"1357 981 OFFCURVE",
"1423 897 OFFCURVE",
"1423 857 QCURVE SMOOTH",
"1423 766 OFFCURVE",
"1083 650 OFFCURVE",
"947 632 QCURVE",
"939 650 LINE"
);
},
{
closed = 1;
nodes = (
"623 585 OFFCURVE",
"464 534 OFFCURVE",
"402 501 OFFCURVE",
"373 501 QCURVE SMOOTH",
"331 501 OFFCURVE",
"269 560 OFFCURVE",
"269 615 QCURVE SMOOTH",
"269 673 OFFCURVE",
"341 733 OFFCURVE",
"401 733 QCURVE SMOOTH",
"457 733 OFFCURVE",
"626 700 OFFCURVE",
"731 664 QCURVE",
"648 641 LINE",
"724 604 LINE"
);
},
{
closed = 1;
nodes = (
"1003 916 OFFCURVE",
"1024 1160 OFFCURVE",
"1118 1160 QCURVE SMOOTH",
"1159 1160 OFFCURVE",
"1242 1098 OFFCURVE",
"1242 1048 QCURVE SMOOTH",
"1242 984 OFFCURVE",
"1081 793 OFFCURVE",
"991 717 QCURVE",
"1026 811 LINE",
"945 752 LINE"
);
},
{
closed = 1;
nodes = (
"1013 431 OFFCURVE",
"1128 314 OFFCURVE",
"1243 240 OFFCURVE",
"1243 184 QCURVE SMOOTH",
"1243 134 OFFCURVE",
"1159 69 OFFCURVE",
"1119 69 QCURVE SMOOTH",
"1042 69 OFFCURVE",
"938 303 OFFCURVE",
"908 465 QCURVE",
"983 400 LINE",
"965 486 LINE"
);
},
{
closed = 1;
nodes = (
"472 250 OFFCURVE",
"446 250 QCURVE SMOOTH",
"397 250 OFFCURVE",
"332 332 OFFCURVE",
"332 374 QCURVE SMOOTH",
"332 424 OFFCURVE",
"433 503 OFFCURVE",
"556 542 QCURVE",
"543 530 OFFCURVE",
"525 502 OFFCURVE",
"525 483 QCURVE SMOOTH",
"525 449 OFFCURVE",
"578 402 OFFCURVE",
"606 402 QCURVE SMOOTH",
"613 402 OFFCURVE",
"615 402 QCURVE",
"564 346 OFFCURVE",
"525 284 OFFCURVE",
"515 276 QCURVE SMOOTH",
"498 264 LINE"
);
},
{
closed = 1;
nodes = (
"798 1024 OFFCURVE",
"763 1091 OFFCURVE",
"763 1120 QCURVE SMOOTH",
"763 1162 OFFCURVE",
"822 1224 OFFCURVE",
"877 1224 QCURVE SMOOTH",
"935 1224 OFFCURVE",
"995 1151 OFFCURVE",
"995 1092 QCURVE SMOOTH",
"995 1055 OFFCURVE",
"983 974 OFFCURVE",
"974 929 QCURVE",
"970 956 OFFCURVE",
"934 996 OFFCURVE",
"896 996 QCURVE SMOOTH",
"868 996 OFFCURVE",
"831 968 OFFCURVE",
"823 947 QCURVE"
);
},
{
closed = 1;
nodes = (
"1262 479 OFFCURVE",
"1360 476 OFFCURVE",
"1422 416 OFFCURVE",
"1422 375 QCURVE SMOOTH",
"1422 332 OFFCURVE",
"1359 250 OFFCURVE",
"1310 250 QCURVE SMOOTH",
"1272 250 OFFCURVE",
"1172 307 OFFCURVE",
"1100 375 QCURVE",
"1108 371 OFFCURVE",
"1127 369 OFFCURVE",
"1135 369 QCURVE SMOOTH",
"1163 369 OFFCURVE",
"1209 415 OFFCURVE",
"1209 449 QCURVE SMOOTH",
"1209 475 OFFCURVE",
"1193 495 QCURVE"
);
},
{
closed = 1;
nodes = (
"888 688 OFFCURVE",
"878 688 QCURVE",
"870 731 LINE SMOOTH",
"865 756 OFFCURVE",
"859 783 QCURVE SMOOTH",
"848 836 LINE SMOOTH",
"841 869 OFFCURVE",
"834 893 OFFCURVE",
"832 916 QCURVE",
"832 942 OFFCURVE",
"864 976 OFFCURVE",
"891 976 QCURVE SMOOTH",
"920 976 OFFCURVE",
"956 932 OFFCURVE",
"956 903 QCURVE SMOOTH",
"956 863 OFFCURVE",
"899 689 OFFCURVE",
"897 684 QCURVE"
);
},
{
closed = 1;
nodes = (
"1097 395 OFFCURVE",
"1027 451 OFFCURVE",
"982 501 QCURVE SMOOTH",
"962 523 LINE",
"943 546 LINE SMOOTH",
"934 556 OFFCURVE",
"928 564 QCURVE",
"933 567 OFFCURVE",
"935 571 QCURVE SMOOTH",
"939 579 LINE",
"985 563 LINE SMOOTH",
"1092 524 OFFCURVE",
"1191 503 OFFCURVE",
"1193 457 QCURVE SMOOTH",
"1193 430 OFFCURVE",
"1156 395 OFFCURVE",
"1133 395 QCURVE SMOOTH"
);
},
{
closed = 1;
nodes = (
"812 588 LINE",
"813 583 OFFCURVE",
"815 579 QCURVE",
"785 556 OFFCURVE",
"681 464 OFFCURVE",
"636 417 OFFCURVE",
"612 417 QCURVE SMOOTH",
"588 417 OFFCURVE",
"551 455 OFFCURVE",
"551 478 QCURVE SMOOTH",
"551 536 OFFCURVE",
"746 589 OFFCURVE",
"809 596 QCURVE"
);
},
{
closed = 1;
nodes = (
"735 1132 OFFCURVE",
"716 1152 OFFCURVE",
"704 1159 QCURVE",
"710 1225 LINE",
"757 1177 LINE",
"745 1148 OFFCURVE",
"745 1121 QCURVE"
);
},
{
closed = 1;
nodes = (
"1019 99 OFFCURVE",
"1038 78 OFFCURVE",
"1050 70 QCURVE",
"1044 5 LINE",
"997 54 LINE",
"1010 78 OFFCURVE",
"1010 109 QCURVE"
);
},
{
closed = 1;
nodes = (
"1394 757 OFFCURVE",
"1414 776 OFFCURVE",
"1421 789 QCURVE",
"1487 782 LINE",
"1439 735 LINE",
"1413 748 OFFCURVE",
"1382 748 QCURVE"
);
},
{
closed = 1;
nodes = (
"359 473 OFFCURVE",
"340 455 OFFCURVE",
"332 442 QCURVE",
"267 448 LINE",
"315 495 LINE",
"343 482 OFFCURVE",
"371 482 QCURVE"
);
},
{
closed = 1;
nodes = (
"1038 1227 LINE",
"1055 1162 LINE",
"1031 1145 OFFCURVE",
"1015 1120 QCURVE",
"1013 1134 OFFCURVE",
"1006 1161 OFFCURVE",
"1000 1173 QCURVE"
);
},
{
closed = 1;
nodes = (
"358 751 OFFCURVE",
"331 745 OFFCURVE",
"318 737 QCURVE",
"265 776 LINE",
"331 793 LINE",
"338 780 OFFCURVE",
"359 761 OFFCURVE",
"372 753 QCURVE"
);
},
{
closed = 1;
nodes = (
"742 83 OFFCURVE",
"754 57 QCURVE",
"716 2 LINE",
"700 68 LINE",
"724 85 OFFCURVE",
"738 111 QCURVE"
);
},
{
closed = 1;
nodes = (
"1410 480 OFFCURVE",
"1435 492 QCURVE",
"1489 455 LINE",
"1424 438 LINE",
"1407 462 OFFCURVE",
"1382 477 QCURVE"
);
},
{
closed = 1;
nodes = (
"499 234 OFFCURVE",
"491 207 OFFCURVE",
"491 192 QCURVE",
"433 166 LINE",
"451 230 LINE",
"481 233 OFFCURVE",
"504 247 QCURVE"
);
},
{
closed = 1;
nodes = (
"1258 237 OFFCURVE",
"1286 229 OFFCURVE",
"1300 229 QCURVE",
"1326 170 LINE",
"1261 189 LINE",
"1259 218 OFFCURVE",
"1246 243 QCURVE"
);
},
{
closed = 1;
nodes = (
"1255 996 OFFCURVE",
"1261 1024 OFFCURVE",
"1263 1038 QCURVE",
"1322 1064 LINE",
"1303 1000 LINE",
"1275 998 OFFCURVE",
"1249 983 QCURVE"
);
},
{
closed = 1;
nodes = (
"485 999 OFFCURVE",
"455 1001 QCURVE",
"428 1060 LINE",
"492 1042 LINE",
"494 1012 OFFCURVE",
"509 987 QCURVE"
);
},
{
closed = 1;
nodes = (
"929 666 LINE",
"922 672 OFFCURVE",
"913 677 QCURVE",
"918 688 LINE",
"935 729 LINE",
"996 771 LINE",
"974 704 LINE"
);
},
{
closed = 1;
nodes = (
"809 635 LINE",
"806 625 OFFCURVE",
"806 614 QCURVE",
"802 613 OFFCURVE",
"794 613 QCURVE",
"750 608 LINE",
"692 636 LINE",
"753 655 LINE"
);
},
{
closed = 1;
nodes = (
"895 546 LINE",
"902 547 OFFCURVE",
"912 553 QCURVE",
"919 543 LINE",
"923 537 OFFCURVE",
"928 531 QCURVE SMOOTH",
"938 518 LINE SMOOTH",
"943 511 OFFCURVE",
"947 507 QCURVE",
"958 442 LINE",
"905 485 LINE",
"903 499 LINE",
"900 507 OFFCURVE",
"900 517 QCURVE"
);
},
{
closed = 1;
nodes = (
"856 564 OFFCURVE",
"826 594 OFFCURVE",
"826 615 QCURVE SMOOTH",
"826 636 OFFCURVE",
"856 666 OFFCURVE",
"877 666 QCURVE SMOOTH",
"898 666 OFFCURVE",
"928 636 OFFCURVE",
"928 615 QCURVE SMOOTH",
"928 594 OFFCURVE",
"898 564 OFFCURVE",
"877 564 QCURVE SMOOTH"
);
}
);
width = 1754;
}
);
note = k_RubElHizb;
unicode = 06DE;
},
{
glyphname = k_Sajdah;
lastChange = "2019-08-09 22:57:09 +0000";
layers = (
{
layerId = "5E96EFD4-BDA9-4728-9E21-55349679CE65";
paths = (
{
closed = 1;
nodes = (
"1013 26 LINE SMOOTH",
"1026 26 OFFCURVE",
"1042 36 OFFCURVE",
"1042 52 QCURVE SMOOTH",
"1042 63 OFFCURVE",
"1030 83 OFFCURVE",
"1023 91 QCURVE SMOOTH",
"1008 108 LINE",
"1008 729 LINE",
"1079 745 OFFCURVE",
"1158 837 OFFCURVE",
"1158 906 QCURVE SMOOTH",
"1158 960 OFFCURVE",
"1092 1063 OFFCURVE",
"815 1246 OFFCURVE",
"738 1382 OFFCURVE",
"722 1393 OFFCURVE",
"711 1393 QCURVE SMOOTH",
"701 1393 OFFCURVE",
"684 1382 OFFCURVE",
"606 1246 OFFCURVE",
"330 1063 OFFCURVE",
"264 960 OFFCURVE",
"264 906 QCURVE SMOOTH",
"264 837 OFFCURVE",
"343 745 OFFCURVE",
"414 729 QCURVE",
"414 108 LINE",
"399 91 LINE SMOOTH",
"392 83 OFFCURVE",
"380 63 OFFCURVE",
"380 52 QCURVE SMOOTH",
"380 36 OFFCURVE",
"396 26 OFFCURVE",
"409 26 QCURVE SMOOTH"
);
},
{
closed = 1;
nodes = (
"420 62 LINE",
"449 95 LINE",
"449 757 LINE",
"383 765 OFFCURVE",
"299 846 OFFCURVE",
"299 906 QCURVE SMOOTH",
"299 956 OFFCURVE",
"367 1047 OFFCURVE",
"578 1183 OFFCURVE",
"682 1294 OFFCURVE",
"709 1358 QCURVE",
"713 1358 LINE",
"740 1294 OFFCURVE",
"844 1183 OFFCURVE",
"1055 1047 OFFCURVE",
"1123 956 OFFCURVE",
"1123 906 QCURVE SMOOTH",
"1123 846 OFFCURVE",
"1039 765 OFFCURVE",
"973 757 QCURVE",
"973 95 LINE",
"1002 62 LINE"
);
},
{
closed = 1;
nodes = (
"634 1179 OFFCURVE",
"395 1031 OFFCURVE",
"332 951 OFFCURVE",
"332 905 QCURVE SMOOTH",
"332 853 OFFCURVE",
"409 783 OFFCURVE",
"480 774 QCURVE",
"480 85 LINE",
"942 85 LINE",
"942 774 LINE",
"1013 783 OFFCURVE",
"1091 853 OFFCURVE",
"1091 905 QCURVE SMOOTH",
"1091 951 OFFCURVE",
"1027 1031 OFFCURVE",
"789 1179 OFFCURVE",
"711 1304 QCURVE"
);
},
{
closed = 1;
nodes = (
"502 107 LINE",
"502 794 LINE",
"429 802 OFFCURVE",
"354 860 OFFCURVE",
"354 905 QCURVE SMOOTH",
"354 978 OFFCURVE",
"569 1112 OFFCURVE",
"674 1205 OFFCURVE",
"711 1268 QCURVE",
"752 1197 OFFCURVE",
"871 1100 OFFCURVE",
"1069 976 OFFCURVE",
"1069 905 QCURVE SMOOTH",
"1069 860 OFFCURVE",
"993 802 OFFCURVE",
"920 794 QCURVE",
"920 107 LINE"
);
},
{
closed = 1;
nodes = (
"644 1125 OFFCURVE",
"446 1001 OFFCURVE",
"388 941 OFFCURVE",
"388 906 QCURVE SMOOTH",
"388 865 OFFCURVE",
"463 823 OFFCURVE",
"533 820 QCURVE",
"533 138 LINE",
"890 138 LINE",
"890 820 LINE",
"959 823 OFFCURVE",
"1035 865 OFFCURVE",
"1035 906 QCURVE SMOOTH",
"1035 941 OFFCURVE",
"976 1001 OFFCURVE",
"779 1125 OFFCURVE",
"711 1210 QCURVE"
);
},
{
closed = 1;
nodes = (
"555 160 LINE",
"555 840 LINE",
"484 843 OFFCURVE",
"411 874 OFFCURVE",
"411 908 QCURVE SMOOTH",
"411 957 OFFCURVE",
"635 1088 OFFCURVE",
"711 1177 QCURVE",
"787 1088 OFFCURVE",
"1011 957 OFFCURVE",
"1011 908 QCURVE SMOOTH",
"1011 874 OFFCURVE",
"938 843 OFFCURVE",
"868 840 QCURVE",
"868 160 LINE"
);
}
);
width = 1422;
}
);
note = k_Sajdah;
unicode = 06E9;
},
{
glyphname = Gaf;
lastChange = "2019-08-09 22:57:09 +0000";
layers = (
{
layerId = "5E96EFD4-BDA9-4728-9E21-55349679CE65";
paths = (
{
closed = 1;
nodes = (
"1332 1242 LINE",
"1020 965 OFFCURVE",
"924 863 OFFCURVE",
"874 759 OFFCURVE",
"848 660 OFFCURVE",
"845 604 QCURVE",
"837 353 LINE SMOOTH",
"835 317 OFFCURVE",
"816 279 OFFCURVE",
"787 257 QCURVE SMOOTH",
"639 149 OFFCURVE",
"347 149 QCURVE SMOOTH",
"205 149 OFFCURVE",
"112 202 OFFCURVE",
"112 269 QCURVE SMOOTH",
"112 284 OFFCURVE",
"113 301 QCURVE",
"83 306 LINE",
"58 219 OFFCURVE",
"58 160 QCURVE SMOOTH",
"58 94 OFFCURVE",
"112 18 OFFCURVE",
"213 -18 OFFCURVE",
"315 -18 QCURVE SMOOTH",
"439 -18 OFFCURVE",
"659 38 OFFCURVE",
"804 142 OFFCURVE",
"896 347 OFFCURVE",
"903 456 QCURVE SMOOTH",
"919 721 LINE",
"924 763 OFFCURVE",
"927 771 QCURVE SMOOTH",
"936 796 OFFCURVE",
"971 832 QCURVE SMOOTH",
"1057 917 OFFCURVE",
"1170 1013 QCURVE SMOOTH",
"1297 1121 OFFCURVE",
"1365 1202 QCURVE",
"1391 1269 OFFCURVE",
"1396 1294 QCURVE",
"1387 1299 LINE"
);
},
{
closed = 1;
nodes = (
"481 1051 LINE"
);
},
{
closed = 1;
nodes = (
"471 -266 LINE"
);
},
{
closed = 1;
nodes = (
"481 554 LINE"
);
},
{
closed = 1;
nodes = (
"990 998 LINE",
"1012 1026 OFFCURVE",
"1192 1181 QCURVE SMOOTH",
"1306 1281 OFFCURVE",
"1338 1326 QCURVE",
"1347 1347 OFFCURVE",
"1357 1387 QCURVE",
"1348 1391 LINE",
"1321 1365 OFFCURVE",
"1268 1310 OFFCURVE",
"1051 1113 OFFCURVE",
"1003 1062 OFFCURVE",
"980 1026 OFFCURVE",
"973 1007 QCURVE"
);
}
);
width = 1159;
}
);
note = Gaf;
unicode = 06AF;
},
{
glyphname = YehKashmiri;
lastChange = "2019-08-09 22:57:09 +0000";
layers = (
{
layerId = "5E96EFD4-BDA9-4728-9E21-55349679CE65";
paths = (
{
closed = 1;
nodes = (
"41 -257 LINE",
"47 -285 OFFCURVE",
"160 -341 OFFCURVE",
"220 -341 QCURVE SMOOTH",
"328 -341 OFFCURVE",
"505 -196 OFFCURVE",
"627 76 OFFCURVE",
"627 169 QCURVE SMOOTH",
"627 199 OFFCURVE",
"603 233 OFFCURVE",
"534 259 OFFCURVE",
"500 293 OFFCURVE",
"500 315 QCURVE SMOOTH",
"500 360 OFFCURVE",
"622 480 OFFCURVE",
"670 480 QCURVE SMOOTH",
"692 480 OFFCURVE",
"701 472 QCURVE",
"710 474 LINE",
"758 584 LINE SMOOTH",
"764 596 OFFCURVE",
"764 604 QCURVE SMOOTH",
"764 622 OFFCURVE",
"733 632 OFFCURVE",
"719 632 QCURVE SMOOTH",
"660 632 OFFCURVE",
"525 481 OFFCURVE",
"416 245 OFFCURVE",
"416 193 QCURVE SMOOTH",
"416 129 OFFCURVE",
"557 80 OFFCURVE",
"557 42 QCURVE SMOOTH",
"557 -22 OFFCURVE",
"333 -184 OFFCURVE",
"53 -230 QCURVE"
);
},
{
closed = 1;
nodes = (
"275 468 LINE"
);
},
{
closed = 1;
nodes = (
"342 -577 LINE"
);
}
);
width = 806;
}
);
note = YehKashmiri;
unicode = 0620;
},
{
glyphname = Tatweel;
lastChange = "2019-08-09 22:57:09 +0000";
layers = (
{
layerId = "5E96EFD4-BDA9-4728-9E21-55349679CE65";
paths = (
{
closed = 1;
nodes = (
"182 158 OFFCURVE",
"147 158 QCURVE SMOOTH",
"84 158 LINE SMOOTH",
"39 158 OFFCURVE",
"-33 82 OFFCURVE",
"-33 32 QCURVE SMOOTH",
"-33 0 OFFCURVE",
"2 0 QCURVE SMOOTH",
"66 0 LINE SMOOTH",
"112 0 OFFCURVE",
"182 77 OFFCURVE",
"182 126 QCURVE SMOOTH"
);
}
);
width = 65;
}
);
note = Tatweel;
unicode = 0640;
},
{
glyphname = Mhmd;
lastChange = "2019-08-09 22:57:09 +0000";
layers = (
{
layerId = "5E96EFD4-BDA9-4728-9E21-55349679CE65";
paths = (
{
closed = 1;
nodes = (
"516 250 OFFCURVE",
"599 314 OFFCURVE",
"737 377 QCURVE SMOOTH",
"838 422 OFFCURVE",
"913 490 OFFCURVE",
"935 534 QCURVE",
"934 541 LINE",
"896 557 OFFCURVE",
"735 578 OFFCURVE",
"677 578 QCURVE SMOOTH",
"661 578 OFFCURVE",
"643 577 QCURVE",
"700 668 OFFCURVE",
"881 734 QCURVE SMOOTH",
"933 751 OFFCURVE",
"961 766 QCURVE SMOOTH",
"997 782 OFFCURVE",
"1072 887 OFFCURVE",
"1072 921 QCURVE SMOOTH",
"1072 949 OFFCURVE",
"985 1007 OFFCURVE",
"947 1007 QCURVE SMOOTH",
"917 1007 OFFCURVE",
"858 936 OFFCURVE",
"824 870 OFFCURVE",
"824 850 QCURVE SMOOTH",
"824 833 OFFCURVE",
"842 811 OFFCURVE",
"856 799 QCURVE",
"762 757 OFFCURVE",
"642 659 OFFCURVE",
"562 534 OFFCURVE",
"547 490 QCURVE",
"556 481 LINE",
"579 481 OFFCURVE",
"599 481 QCURVE SMOOTH",
"667 481 OFFCURVE",
"783 468 OFFCURVE",
"797 461 QCURVE",
"713 425 LINE SMOOTH",
"613 383 OFFCURVE",
"525 312 OFFCURVE",
"467 219 OFFCURVE",
"455 176 QCURVE",
"408 210 OFFCURVE",
"408 297 QCURVE SMOOTH",
"408 310 OFFCURVE",
"422 400 QCURVE",
"392 404 LINE",
"360 280 OFFCURVE",
"304 149 OFFCURVE",
"154 37 OFFCURVE",
"56 -15 QCURVE",
"58 -37 LINE",
"155 -25 OFFCURVE",
"239 -5 OFFCURVE",
"258 8 QCURVE",
"317 73 OFFCURVE",
"344 141 QCURVE",
"345 141 LINE",
"345 79 OFFCURVE",
"410 0 OFFCURVE",
"471 0 QCURVE SMOOTH",
"530 2 OFFCURVE",
"621 100 OFFCURVE",
"621 157 QCURVE",
"616 165 LINE",
"610 171 OFFCURVE",
"552 181 QCURVE SMOOTH",
"516 187 OFFCURVE",
"516 213 QCURVE SMOOTH"
);
}
);
width = 1099;
}
);
note = Mhmd;
unicode = FDF4;
},
{
glyphname = uniFDFA;
lastChange = "2019-08-09 22:57:09 +0000";
layers = (
{
layerId = "5E96EFD4-BDA9-4728-9E21-55349679CE65";
paths = (
{
closed = 1;
nodes = (
"1227 709 OFFCURVE",
"1214 679 OFFCURVE",
"1202 643 OFFCURVE",
"1195 604 OFFCURVE",
"1195 586 QCURVE SMOOTH",
"1195 547 OFFCURVE",
"1255 504 OFFCURVE",
"1297 495 QCURVE SMOOTH",
"1320 490 OFFCURVE",
"1369 482 OFFCURVE",
"1417 480 OFFCURVE",
"1459 479 OFFCURVE",
"1475 479 QCURVE SMOOTH",
"1510 479 OFFCURVE",
"1582 481 OFFCURVE",
"1646 485 OFFCURVE",
"1698 489 OFFCURVE",
"1715 490 QCURVE SMOOTH",
"1743 492 OFFCURVE",
"1846 503 OFFCURVE",
"1977 521 OFFCURVE",
"2129 543 OFFCURVE",
"2283 570 OFFCURVE",
"2434 603 OFFCURVE",
"2498 622 QCURVE",
"2497 644 LINE",
"2457 648 OFFCURVE",
"2335 655 OFFCURVE",
"2259 655 QCURVE SMOOTH",
"2195 655 OFFCURVE",
"2050 650 OFFCURVE",
"1971 644 QCURVE SMOOTH",
"1755 626 LINE SMOOTH",
"1703 622 OFFCURVE",
"1593 618 OFFCURVE",
"1541 618 QCURVE SMOOTH",
"1479 618 OFFCURVE",
"1362 625 OFFCURVE",
"1326 635 QCURVE SMOOTH",
"1295 643 OFFCURVE",
"1271 665 OFFCURVE",
"1271 679 QCURVE SMOOTH",
"1271 685 OFFCURVE",
"1275 700 OFFCURVE",
"1277 704 QCURVE",
"1293 733 OFFCURVE",
"1349 776 OFFCURVE",
"1387 796 QCURVE",
"1399 802 OFFCURVE",
"1418 813 OFFCURVE",
"1438 823 OFFCURVE",
"1458 833 OFFCURVE",
"1471 837 QCURVE SMOOTH",
"1496 848 OFFCURVE",
"1538 869 OFFCURVE",
"1573 893 OFFCURVE",
"1602 923 OFFCURVE",
"1612 943 QCURVE",
"1615 908 OFFCURVE",
"1628 846 OFFCURVE",
"1659 801 OFFCURVE",
"1705 774 OFFCURVE",
"1739 774 QCURVE SMOOTH",
"1765 774 OFFCURVE",
"1804 794 OFFCURVE",
"1838 827 OFFCURVE",
"1867 870 OFFCURVE",
"1882 894 QCURVE SMOOTH",
"1892 910 OFFCURVE",
"1905 929 OFFCURVE",
"1916 939 OFFCURVE",
"1924 943 OFFCURVE",
"1928 943 QCURVE SMOOTH",
"1936 943 OFFCURVE",
"1949 937 OFFCURVE",
"1958 931 QCURVE SMOOTH",
"1990 912 OFFCURVE",
"2049 896 OFFCURVE",
"2081 896 QCURVE SMOOTH",
"2111 896 OFFCURVE",
"2165 907 OFFCURVE",
"2195 919 QCURVE SMOOTH",
"2235 935 OFFCURVE",
"2295 977 OFFCURVE",
"2340 1021 OFFCURVE",
"2374 1068 OFFCURVE",
"2387 1089 QCURVE SMOOTH",
"2407 1120 OFFCURVE",
"2441 1194 OFFCURVE",
"2441 1235 QCURVE SMOOTH",
"2441 1263 OFFCURVE",
"2401 1299 OFFCURVE",
"2365 1299 QCURVE SMOOTH",
"2341 1299 OFFCURVE",
"2288 1285 OFFCURVE",
"2226 1250 OFFCURVE",
"2157 1190 OFFCURVE",
"2116 1145 QCURVE",
"2107 1133 OFFCURVE",
"2081 1101 OFFCURVE",
"2054 1069 OFFCURVE",
"2029 1037 OFFCURVE",
"2021 1026 QCURVE",
"2011 1030 OFFCURVE",
"1993 1038 QCURVE SMOOTH",
"1986 1041 OFFCURVE",
"1970 1046 OFFCURVE",
"1962 1046 QCURVE SMOOTH",
"1949 1046 OFFCURVE",
"1930 1036 OFFCURVE",
"1919 1023 QCURVE SMOOTH",
"1885 978 LINE SMOOTH",
"1870 958 OFFCURVE",
"1824 933 OFFCURVE",
"1790 933 QCURVE SMOOTH",
"1752 933 OFFCURVE",
"1710 968 OFFCURVE",
"1688 1028 OFFCURVE",
"1681 1112 OFFCURVE",
"1681 1161 QCURVE SMOOTH",
"1681 1247 OFFCURVE",
"1686 1378 OFFCURVE",
"1694 1475 OFFCURVE",
"1702 1542 OFFCURVE",
"1706 1563 QCURVE",
"1686 1569 LINE",
"1670 1533 OFFCURVE",
"1650 1472 OFFCURVE",
"1637 1415 OFFCURVE",
"1630 1359 OFFCURVE",
"1628 1328 QCURVE SMOOTH",
"1627 1320 OFFCURVE",
"1624 1273 OFFCURVE",
"1620 1212 OFFCURVE",
"1616 1140 OFFCURVE",
"1615 1107 QCURVE SMOOTH",
"1613 1078 OFFCURVE",
"1610 1032 OFFCURVE",
"1610 1013 QCURVE",
"1608 1004 OFFCURVE",
"1598 988 OFFCURVE",
"1572 969 OFFCURVE",
"1526 946 OFFCURVE",
"1487 930 QCURVE SMOOTH",
"1458 917 OFFCURVE",
"1400 885 OFFCURVE",
"1346 848 OFFCURVE",
"1299 807 OFFCURVE",
"1281 787 QCURVE SMOOTH",
"1269 771 OFFCURVE",
"1246 743 OFFCURVE",
"1233 720 QCURVE SMOOTH"
);
},
{
closed = 1;
nodes = (
"2190 1021 OFFCURVE",
"2133 1009 OFFCURVE",
"2096 1009 QCURVE SMOOTH",
"2090 1009 OFFCURVE",
"2072 1012 OFFCURVE",
"2064 1013 QCURVE",
"2077 1030 OFFCURVE",
"2099 1058 OFFCURVE",
"2111 1071 QCURVE SMOOTH",
"2138 1101 OFFCURVE",
"2183 1140 OFFCURVE",
"2225 1163 OFFCURVE",
"2263 1171 OFFCURVE",
"2283 1171 QCURVE SMOOTH",
"2292 1171 OFFCURVE",
"2315 1167 OFFCURVE",
"2336 1158 OFFCURVE",
"2351 1141 OFFCURVE",
"2351 1128 QCURVE SMOOTH",
"2351 1111 OFFCURVE",
"2319 1079 OFFCURVE",
"2275 1051 OFFCURVE",
"2228 1032 OFFCURVE",
"2213 1027 QCURVE SMOOTH"
);
},
{
closed = 1;
nodes = (
"2195 -89 OFFCURVE",
"2169 -122 OFFCURVE",
"2146 -159 OFFCURVE",
"2128 -198 OFFCURVE",
"2125 -215 QCURVE",
"2103 -206 OFFCURVE",
"2077 -165 OFFCURVE",
"2063 -107 OFFCURVE",
"2059 -35 OFFCURVE",
"2059 5 QCURVE SMOOTH",
"2059 91 OFFCURVE",
"2063 222 OFFCURVE",
"2072 319 OFFCURVE",
"2080 386 OFFCURVE",
"2084 407 QCURVE",
"2063 413 LINE",
"2048 377 OFFCURVE",
"2028 316 OFFCURVE",
"2015 259 OFFCURVE",
"2008 203 OFFCURVE",
"2006 172 QCURVE SMOOTH",
"2005 165 OFFCURVE",
"2002 118 OFFCURVE",
"1998 56 OFFCURVE",
"1994 -16 OFFCURVE",
"1993 -48 QCURVE SMOOTH",
"1992 -68 OFFCURVE",
"1989 -116 OFFCURVE",
"1985 -163 OFFCURVE",
"1982 -201 OFFCURVE",
"1979 -213 QCURVE SMOOTH",
"1967 -272 OFFCURVE",
"1916 -348 OFFCURVE",
"1873 -348 QCURVE SMOOTH",
"1860 -348 OFFCURVE",
"1840 -342 OFFCURVE",
"1831 -337 QCURVE SMOOTH",
"1822 -333 OFFCURVE",
"1803 -328 OFFCURVE",
"1795 -328 QCURVE SMOOTH",
"1782 -328 OFFCURVE",
"1763 -339 OFFCURVE",
"1753 -354 QCURVE SMOOTH",
"1747 -362 OFFCURVE",
"1732 -382 OFFCURVE",
"1721 -396 QCURVE SMOOTH",
"1705 -417 OFFCURVE",
"1668 -439 OFFCURVE",
"1633 -439 QCURVE SMOOTH",
"1621 -439 OFFCURVE",
"1593 -436 OFFCURVE",
"1583 -434 QCURVE SMOOTH",
"1558 -429 OFFCURVE",
"1532 -429 QCURVE SMOOTH",
"1474 -429 OFFCURVE",
"1363 -529 OFFCURVE",
"1317 -646 QCURVE",
"1338 -656 LINE",
"1354 -634 OFFCURVE",
"1381 -604 OFFCURVE",
"1408 -587 OFFCURVE",
"1436 -580 OFFCURVE",
"1452 -580 QCURVE SMOOTH",
"1461 -580 OFFCURVE",
"1489 -586 OFFCURVE",
"1501 -590 QCURVE SMOOTH",
"1514 -593 OFFCURVE",
"1536 -598 OFFCURVE",
"1548 -598 QCURVE SMOOTH",
"1565 -598 OFFCURVE",
"1601 -591 OFFCURVE",
"1618 -582 QCURVE SMOOTH",
"1647 -567 OFFCURVE",
"1694 -512 OFFCURVE",
"1716 -481 QCURVE SMOOTH",
"1727 -465 OFFCURVE",
"1740 -446 OFFCURVE",
"1749 -435 OFFCURVE",
"1756 -431 OFFCURVE",
"1761 -431 QCURVE SMOOTH",
"1767 -431 OFFCURVE",
"1779 -436 OFFCURVE",
"1789 -441 QCURVE SMOOTH",
"1801 -447 OFFCURVE",
"1822 -455 OFFCURVE",
"1839 -455 QCURVE SMOOTH",
"1866 -455 OFFCURVE",
"1914 -438 OFFCURVE",
"1956 -399 OFFCURVE",
"1991 -336 OFFCURVE",
"2005 -291 QCURVE",
"2017 -332 OFFCURVE",
"2069 -381 OFFCURVE",
"2117 -381 QCURVE SMOOTH",
"2179 -381 OFFCURVE",
"2295 -335 OFFCURVE",
"2392 -260 OFFCURVE",
"2463 -166 OFFCURVE",
"2481 -118 QCURVE",
"2463 -107 LINE",
"2437 -146 OFFCURVE",
"2369 -193 OFFCURVE",
"2324 -206 QCURVE",
"2319 -206 LINE SMOOTH",
"2305 -206 OFFCURVE",
"2275 -198 OFFCURVE",
"2250 -182 OFFCURVE",
"2234 -156 OFFCURVE",
"2234 -137 QCURVE SMOOTH",
"2234 -122 OFFCURVE",
"2249 -92 OFFCURVE",
"2262 -81 QCURVE SMOOTH",
"2280 -66 OFFCURVE",
"2324 -51 OFFCURVE",
"2347 -51 QCURVE SMOOTH",
"2364 -51 OFFCURVE",
"2397 -62 OFFCURVE",
"2411 -74 QCURVE",
"2419 -75 LINE",
"2436 -66 OFFCURVE",
"2448 -33 OFFCURVE",
"2448 -20 QCURVE SMOOTH",
"2448 -4 OFFCURVE",
"2436 18 OFFCURVE",
"2416 32 OFFCURVE",
"2392 39 OFFCURVE",
"2379 39 QCURVE SMOOTH",
"2354 39 OFFCURVE",
"2309 20 OFFCURVE",
"2267 -11 OFFCURVE",
"2226 -53 OFFCURVE",
"2205 -77 QCURVE SMOOTH"
);
},
{
closed = 1;
nodes = (
"781 93 LINE SMOOTH",
"780 62 OFFCURVE",
"759 24 OFFCURVE",
"745 11 QCURVE SMOOTH",
"735 1 OFFCURVE",
"703 -22 OFFCURVE",
"669 -46 OFFCURVE",
"636 -67 OFFCURVE",
"625 -75 QCURVE SMOOTH",
"598 -93 OFFCURVE",
"564 -123 OFFCURVE",
"547 -143 QCURVE SMOOTH",
"534 -158 OFFCURVE",
"511 -188 OFFCURVE",
"499 -211 QCURVE",
"494 -218 OFFCURVE",
"482 -243 OFFCURVE",
"470 -270 OFFCURVE",
"460 -295 OFFCURVE",
"458 -302 QCURVE",
"400 -331 OFFCURVE",
"313 -386 OFFCURVE",
"244 -450 OFFCURVE",
"190 -531 OFFCURVE",
"164 -585 QCURVE SMOOTH",
"135 -644 OFFCURVE",
"104 -780 OFFCURVE",
"90 -931 OFFCURVE",
"88 -1094 OFFCURVE",
"88 -1180 QCURVE SMOOTH",
"88 -1229 OFFCURVE",
"89 -1335 OFFCURVE",
"90 -1382 QCURVE",
"125 -1382 LINE",
"129 -1344 OFFCURVE",
"136 -1232 OFFCURVE",
"143 -1111 OFFCURVE",
"149 -992 OFFCURVE",
"153 -947 QCURVE SMOOTH",
"160 -848 OFFCURVE",
"174 -728 OFFCURVE",
"188 -654 OFFCURVE",
"206 -611 OFFCURVE",
"216 -590 QCURVE SMOOTH",
"238 -545 OFFCURVE",
"321 -483 OFFCURVE",
"419 -440 OFFCURVE",
"526 -414 OFFCURVE",
"574 -405 QCURVE SMOOTH",
"588 -402 OFFCURVE",
"601 -396 OFFCURVE",
"605 -394 QCURVE SMOOTH",
"622 -383 OFFCURVE",
"656 -336 OFFCURVE",
"682 -284 OFFCURVE",
"699 -235 OFFCURVE",
"699 -221 QCURVE SMOOTH",
"699 -196 OFFCURVE",
"660 -180 QCURVE SMOOTH",
"645 -174 OFFCURVE",
"614 -165 OFFCURVE",
"600 -161 QCURVE",
"616 -148 OFFCURVE",
"635 -136 QCURVE SMOOTH",
"692 -101 OFFCURVE",
"759 -49 OFFCURVE",
"778 -17 QCURVE",
"779 -58 OFFCURVE",
"790 -132 OFFCURVE",
"819 -188 OFFCURVE",
"868 -222 OFFCURVE",
"907 -222 QCURVE SMOOTH",
"933 -222 OFFCURVE",
"972 -201 OFFCURVE",
"1005 -169 OFFCURVE",
"1035 -125 OFFCURVE",
"1049 -102 QCURVE SMOOTH",
"1060 -86 OFFCURVE",
"1073 -67 OFFCURVE",
"1083 -56 OFFCURVE",
"1092 -53 OFFCURVE",
"1096 -53 QCURVE SMOOTH",
"1101 -53 OFFCURVE",
"1114 -58 OFFCURVE",
"1123 -63 QCURVE SMOOTH",
"1136 -69 OFFCURVE",
"1157 -77 OFFCURVE",
"1174 -77 QCURVE SMOOTH",
"1229 -77 OFFCURVE",
"1272 -3 QCURVE",
"1291 -9 OFFCURVE",
"1308 -9 QCURVE SMOOTH",
"1338 -9 OFFCURVE",
"1386 22 OFFCURVE",
"1422 75 OFFCURVE",
"1448 143 OFFCURVE",
"1457 182 QCURVE",
"1427 188 LINE",
"1423 174 OFFCURVE",
"1412 143 OFFCURVE",
"1395 118 OFFCURVE",
"1372 101 OFFCURVE",
"1357 101 QCURVE SMOOTH",
"1347 101 OFFCURVE",
"1325 105 OFFCURVE",
"1311 112 QCURVE",
"1301 110 LINE",
"1288 87 OFFCURVE",
"1266 56 OFFCURVE",
"1245 38 OFFCURVE",
"1222 30 OFFCURVE",
"1208 30 QCURVE SMOOTH",
"1194 30 OFFCURVE",
"1175 36 OFFCURVE",
"1166 41 QCURVE SMOOTH",
"1157 45 OFFCURVE",
"1137 50 OFFCURVE",
"1129 50 QCURVE SMOOTH",
"1116 50 OFFCURVE",
"1098 41 OFFCURVE",
"1087 27 QCURVE SMOOTH",
"1053 -18 LINE SMOOTH",
"1037 -38 OFFCURVE",
"991 -63 OFFCURVE",
"957 -63 QCURVE SMOOTH",
"920 -63 OFFCURVE",
"878 -28 OFFCURVE",
"855 33 OFFCURVE",
"849 116 OFFCURVE",
"849 165 QCURVE SMOOTH",
"849 251 OFFCURVE",
"854 382 OFFCURVE",
"861 479 OFFCURVE",
"869 546 OFFCURVE",
"874 567 QCURVE",
"854 573 LINE",
"837 537 OFFCURVE",
"818 477 OFFCURVE",
"805 419 OFFCURVE",
"798 363 OFFCURVE",
"795 332 QCURVE SMOOTH",
"794 324 OFFCURVE",
"792 280 OFFCURVE",
"789 230 OFFCURVE",
"786 186 OFFCURVE",
"786 177 QCURVE SMOOTH"
);
},
{
closed = 1;
nodes = (
"1068 802 LINE",
"1097 869 OFFCURVE",
"1134 1014 OFFCURVE",
"1137 1078 QCURVE SMOOTH",
"1148 1272 LINE SMOOTH",
"1150 1315 OFFCURVE",
"1155 1404 OFFCURVE",
"1162 1483 OFFCURVE",
"1171 1545 OFFCURVE",
"1178 1562 QCURVE",
"1157 1570 LINE",
"1126 1502 OFFCURVE",
"1095 1416 OFFCURVE",
"1088 1386 QCURVE SMOOTH",
"1081 1356 OFFCURVE",
"1075 1281 OFFCURVE",
"1073 1245 QCURVE SMOOTH",
"1063 996 LINE SMOOTH",
"1062 963 OFFCURVE",
"1057 902 OFFCURVE",
"1052 852 OFFCURVE",
"1048 815 OFFCURVE",
"1046 807 QCURVE"
);
},
{
closed = 1;
nodes = (
"739 811 OFFCURVE",
"703 860 OFFCURVE",
"703 903 QCURVE SMOOTH",
"703 908 OFFCURVE",
"703 917 OFFCURVE",
"704 923 QCURVE",
"680 926 LINE",
"660 849 OFFCURVE",
"594 777 OFFCURVE",
"546 777 QCURVE SMOOTH",
"512 777 OFFCURVE",
"469 820 OFFCURVE",
"469 862 QCURVE SMOOTH",
"469 877 OFFCURVE",
"472 893 QCURVE",
"455 899 LINE",
"445 886 OFFCURVE",
"406 841 OFFCURVE",
"356 787 OFFCURVE",
"299 725 OFFCURVE",
"242 666 OFFCURVE",
"188 612 OFFCURVE",
"167 591 QCURVE",
"183 575 LINE",
"204 589 OFFCURVE",
"253 626 OFFCURVE",
"304 666 OFFCURVE",
"352 705 OFFCURVE",
"372 723 QCURVE",
"380 675 OFFCURVE",
"447 619 OFFCURVE",
"506 619 QCURVE SMOOTH",
"556 619 OFFCURVE",
"626 665 OFFCURVE",
"645 695 QCURVE",
"662 670 OFFCURVE",
"708 652 OFFCURVE",
"733 652 QCURVE SMOOTH",
"779 652 OFFCURVE",
"851 713 OFFCURVE",
"874 757 QCURVE SMOOTH",
"890 788 OFFCURVE",
"910 851 OFFCURVE",
"921 923 OFFCURVE",
"928 1005 OFFCURVE",
"932 1056 QCURVE SMOOTH",
"934 1089 OFFCURVE",
"939 1135 OFFCURVE",
"944 1152 QCURVE",
"925 1160 LINE",
"891 1102 OFFCURVE",
"867 1004 OFFCURVE",
"867 965 QCURVE SMOOTH",
"867 960 OFFCURVE",
"867 941 OFFCURVE",
"866 917 OFFCURVE",
"865 893 OFFCURVE",
"864 884 QCURVE SMOOTH",
"859 853 OFFCURVE",
"815 811 OFFCURVE",
"779 811 QCURVE SMOOTH"
);
},
{
closed = 1;
nodes = (
"575 1105 OFFCURVE",
"591 1079 OFFCURVE",
"612 1079 QCURVE SMOOTH",
"635 1079 OFFCURVE",
"667 1111 OFFCURVE",
"679 1140 QCURVE",
"684 1136 OFFCURVE",
"698 1132 OFFCURVE",
"704 1132 QCURVE SMOOTH",
"744 1132 OFFCURVE",
"782 1195 OFFCURVE",
"782 1241 QCURVE SMOOTH",
"782 1251 LINE",
"765 1249 LINE",
"759 1210 OFFCURVE",
"742 1183 OFFCURVE",
"725 1183 QCURVE SMOOTH",
"717 1183 OFFCURVE",
"699 1191 OFFCURVE",
"693 1201 QCURVE",
"678 1198 LINE",
"668 1159 OFFCURVE",
"644 1129 OFFCURVE",
"624 1129 QCURVE SMOOTH",
"613 1129 OFFCURVE",
"600 1143 OFFCURVE",
"597 1159 QCURVE",
"597 1164 LINE",
"583 1162 LINE",
"575 1145 OFFCURVE",
"575 1121 QCURVE SMOOTH"
);
},
{
closed = 1;
nodes = (
"1229 -386 OFFCURVE",
"1224 -327 OFFCURVE",
"1205 -278 OFFCURVE",
"1170 -246 OFFCURVE",
"1142 -246 QCURVE SMOOTH",
"1097 -246 OFFCURVE",
"1074 -293 QCURVE SMOOTH",
"1042 -359 LINE SMOOTH",
"1030 -382 OFFCURVE",
"1021 -419 OFFCURVE",
"1021 -433 QCURVE SMOOTH",
"1021 -452 OFFCURVE",
"1038 -481 OFFCURVE",
"1063 -500 OFFCURVE",
"1094 -510 OFFCURVE",
"1108 -510 QCURVE SMOOTH",
"1126 -510 OFFCURVE",
"1161 -496 OFFCURVE",
"1175 -486 QCURVE",
"1177 -488 OFFCURVE",
"1178 -492 OFFCURVE",
"1178 -494 QCURVE SMOOTH",
"1178 -503 OFFCURVE",
"1155 -543 OFFCURVE",
"1135 -565 QCURVE SMOOTH",
"1115 -586 OFFCURVE",
"1058 -635 OFFCURVE",
"995 -682 OFFCURVE",
"931 -725 OFFCURVE",
"904 -741 QCURVE",
"910 -763 LINE",
"937 -756 OFFCURVE",
"1004 -734 OFFCURVE",
"1070 -708 OFFCURVE",
"1124 -684 OFFCURVE",
"1137 -675 QCURVE",
"1182 -622 OFFCURVE",
"1229 -482 OFFCURVE",
"1229 -413 QCURVE SMOOTH"
);
},
{
closed = 1;
nodes = (
"1626 -793 OFFCURVE",
"1649 -813 OFFCURVE",
"1672 -835 OFFCURVE",
"1694 -855 OFFCURVE",
"1700 -861 QCURVE",
"1708 -861 LINE",
"1734 -843 OFFCURVE",
"1777 -803 OFFCURVE",
"1787 -785 QCURVE",
"1804 -800 OFFCURVE",
"1839 -833 OFFCURVE",
"1850 -843 QCURVE",
"1859 -843 LINE",
"1891 -820 OFFCURVE",
"1939 -768 OFFCURVE",
"1939 -748 QCURVE SMOOTH",
"1939 -727 OFFCURVE",
"1899 -688 OFFCURVE",
"1861 -664 QCURVE",
"1852 -664 LINE",
"1848 -666 OFFCURVE",
"1832 -681 OFFCURVE",
"1813 -701 OFFCURVE",
"1791 -726 OFFCURVE",
"1781 -737 QCURVE",
"1771 -725 OFFCURVE",
"1738 -698 OFFCURVE",
"1713 -682 QCURVE",
"1704 -682 LINE",
"1700 -685 OFFCURVE",
"1678 -706 OFFCURVE",
"1652 -734 OFFCURVE",
"1626 -765 OFFCURVE",
"1617 -778 QCURVE",
"1617 -787 LINE"
);
},
{
closed = 1;
nodes = (
"392 209 OFFCURVE",
"362 189 OFFCURVE",
"341 156 OFFCURVE",
"331 115 OFFCURVE",
"331 96 QCURVE SMOOTH",
"331 63 OFFCURVE",
"367 23 OFFCURVE",
"397 23 QCURVE SMOOTH",
"436 23 OFFCURVE",
"480 75 OFFCURVE",
"480 115 QCURVE SMOOTH",
"480 133 OFFCURVE",
"469 167 OFFCURVE",
"452 193 OFFCURVE",
"426 209 OFFCURVE",
"412 209 QCURVE SMOOTH"
);
},
{
closed = 1;
nodes = (
"452 98 OFFCURVE",
"423 73 OFFCURVE",
"403 73 QCURVE SMOOTH",
"377 73 OFFCURVE",
"360 97 OFFCURVE",
"360 111 QCURVE SMOOTH",
"360 129 OFFCURVE",
"387 156 OFFCURVE",
"405 156 QCURVE SMOOTH",
"424 156 OFFCURVE",
"452 134 OFFCURVE",
"452 118 QCURVE SMOOTH"
);
},
{
closed = 1;
nodes = (
"1706 -113 OFFCURVE",
"1743 -90 OFFCURVE",
"1778 -63 OFFCURVE",
"1805 -39 OFFCURVE",
"1808 -33 QCURVE",
"1804 -19 LINE",
"1751 4 OFFCURVE",
"1679 18 OFFCURVE",
"1659 18 QCURVE SMOOTH",
"1654 18 OFFCURVE",
"1639 14 OFFCURVE",
"1623 1 OFFCURVE",
"1604 -24 OFFCURVE",
"1595 -46 QCURVE",
"1606 -51 LINE",
"1611 -46 OFFCURVE",
"1626 -41 OFFCURVE",
"1637 -41 QCURVE SMOOTH",
"1647 -41 OFFCURVE",
"1672 -44 OFFCURVE",
"1701 -50 OFFCURVE",
"1727 -58 OFFCURVE",
"1738 -62 QCURVE",
"1738 -64 LINE",
"1734 -68 OFFCURVE",
"1708 -81 OFFCURVE",
"1668 -97 OFFCURVE",
"1619 -112 OFFCURVE",
"1593 -120 QCURVE",
"1594 -134 LINE",
"1607 -134 OFFCURVE",
"1641 -128 OFFCURVE",
"1671 -123 OFFCURVE",
"1692 -119 OFFCURVE",
"1694 -118 QCURVE SMOOTH"
);
},
{
closed = 1;
nodes = (
"2021 1468 OFFCURVE",
"1992 1439 OFFCURVE",
"1984 1412 QCURVE",
"1992 1406 LINE",
"2000 1415 OFFCURVE",
"2027 1433 OFFCURVE",
"2044 1442 QCURVE SMOOTH",
"2183 1518 LINE SMOOTH",
"2201 1527 OFFCURVE",
"2228 1557 OFFCURVE",
"2239 1584 QCURVE",
"2230 1590 LINE",
"2223 1584 OFFCURVE",
"2192 1567 OFFCURVE",
"2180 1560 QCURVE SMOOTH",
"2164 1551 OFFCURVE",
"2125 1530 OFFCURVE",
"2085 1508 OFFCURVE",
"2052 1488 OFFCURVE",
"2042 1482 QCURVE"
);
},
{
closed = 1;
nodes = (
"1361 1099 LINE",
"1376 1132 OFFCURVE",
"1394 1205 OFFCURVE",
"1396 1237 QCURVE SMOOTH",
"1398 1277 LINE SMOOTH",
"1399 1299 OFFCURVE",
"1402 1343 OFFCURVE",
"1405 1382 OFFCURVE",
"1410 1414 OFFCURVE",
"1413 1422 QCURVE",
"1403 1426 LINE",
"1387 1395 OFFCURVE",
"1372 1349 OFFCURVE",
"1369 1334 QCURVE SMOOTH",
"1364 1319 OFFCURVE",
"1362 1281 OFFCURVE",
"1361 1263 QCURVE SMOOTH",
"1359 1196 LINE SMOOTH",
"1357 1163 OFFCURVE",
"1352 1110 OFFCURVE",
"1350 1101 QCURVE"
);
},
{
closed = 1;
nodes = (
"1071 257 OFFCURVE",
"1042 229 OFFCURVE",
"1035 200 QCURVE",
"1042 195 LINE",
"1050 204 OFFCURVE",
"1078 222 OFFCURVE",
"1095 231 QCURVE SMOOTH",
"1234 307 LINE SMOOTH",
"1251 316 OFFCURVE",
"1279 345 OFFCURVE",
"1290 374 QCURVE",
"1281 379 LINE",
"1273 374 OFFCURVE",
"1243 356 OFFCURVE",
"1230 349 QCURVE SMOOTH",
"1215 340 OFFCURVE",
"1176 319 OFFCURVE",
"1136 297 OFFCURVE",
"1103 277 OFFCURVE",
"1092 271 QCURVE SMOOTH"
);
},
{
closed = 1;
nodes = (
"2248 325 OFFCURVE",
"2218 297 OFFCURVE",
"2211 269 QCURVE",
"2218 264 LINE",
"2226 272 OFFCURVE",
"2253 290 OFFCURVE",
"2271 300 QCURVE SMOOTH",
"2410 375 LINE SMOOTH",
"2428 385 OFFCURVE",
"2455 414 OFFCURVE",
"2465 442 QCURVE",
"2457 447 LINE",
"2450 442 OFFCURVE",
"2419 424 OFFCURVE",
"2406 417 QCURVE SMOOTH",
"2391 409 OFFCURVE",
"2352 388 OFFCURVE",
"2313 366 OFFCURVE",
"2279 345 OFFCURVE",
"2269 339 QCURVE SMOOTH"
);
},
{
closed = 1;
nodes = (
"682 1268 LINE",
"697 1302 OFFCURVE",
"715 1375 OFFCURVE",
"717 1406 QCURVE SMOOTH",
"718 1424 LINE SMOOTH",
"720 1468 OFFCURVE",
"724 1514 OFFCURVE",
"727 1524 QCURVE",
"716 1527 LINE",
"707 1509 OFFCURVE",
"693 1480 OFFCURVE",
"686 1454 OFFCURVE",
"682 1426 OFFCURVE",
"681 1410 QCURVE SMOOTH",
"679 1366 LINE SMOOTH",
"678 1333 OFFCURVE",
"672 1280 OFFCURVE",
"670 1271 QCURVE"
);
},
{
closed = 1;
nodes = (
"1568 1659 OFFCURVE",
"1584 1632 OFFCURVE",
"1605 1632 QCURVE SMOOTH",
"1628 1632 OFFCURVE",
"1660 1665 OFFCURVE",
"1672 1694 QCURVE",
"1677 1690 OFFCURVE",
"1691 1686 OFFCURVE",
"1697 1686 QCURVE SMOOTH",
"1737 1686 OFFCURVE",
"1775 1749 OFFCURVE",
"1775 1795 QCURVE SMOOTH",
"1775 1805 LINE",
"1758 1803 LINE",
"1752 1764 OFFCURVE",
"1735 1737 OFFCURVE",
"1718 1737 QCURVE SMOOTH",
"1710 1737 OFFCURVE",
"1692 1745 OFFCURVE",
"1687 1754 QCURVE",
"1671 1751 LINE",
"1661 1713 OFFCURVE",
"1637 1683 OFFCURVE",
"1617 1683 QCURVE SMOOTH",
"1606 1683 OFFCURVE",
"1593 1696 OFFCURVE",
"1590 1713 QCURVE",
"1590 1717 LINE",
"1577 1716 LINE",
"1568 1698 OFFCURVE",
"1568 1674 QCURVE SMOOTH"
);
},
{
closed = 1;
nodes = (
"1208 -975 OFFCURVE",
"1180 -1003 OFFCURVE",
"1172 -1031 QCURVE",
"1180 -1036 LINE",
"1188 -1027 OFFCURVE",
"1215 -1010 OFFCURVE",
"1232 -1000 QCURVE SMOOTH",
"1371 -925 LINE SMOOTH",
"1389 -915 OFFCURVE",
"1416 -886 OFFCURVE",
"1426 -858 QCURVE",
"1417 -853 LINE",
"1411 -858 OFFCURVE",
"1380 -875 OFFCURVE",
"1368 -882 QCURVE SMOOTH",
"1352 -891 OFFCURVE",
"1313 -912 OFFCURVE",
"1273 -934 OFFCURVE",
"1240 -955 OFFCURVE",
"1229 -960 QCURVE"
);
}
);
width = 2586;
}
);
note = uniFDFA;
unicode = FDFA;
},
{
glyphname = uniFDFB;
lastChange = "2019-08-09 22:57:09 +0000";
layers = (
{
layerId = "5E96EFD4-BDA9-4728-9E21-55349679CE65";
paths = (
{
closed = 1;
nodes = (
"1013 244 OFFCURVE",
"887 287 OFFCURVE",
"822 362 OFFCURVE",
"805 458 OFFCURVE",
"805 524 QCURVE SMOOTH",
"810 666 OFFCURVE",
"830 837 OFFCURVE",
"841 881 QCURVE",
"820 890 LINE",
"806 859 OFFCURVE",
"789 815 OFFCURVE",
"778 781 OFFCURVE",
"771 754 OFFCURVE",
"768 739 QCURVE SMOOTH",
"763 716 OFFCURVE",
"755 648 OFFCURVE",
"750 578 OFFCURVE",
"745 514 OFFCURVE",
"745 498 QCURVE SMOOTH",
"723 60 LINE SMOOTH",
"722 27 OFFCURVE",
"716 -34 OFFCURVE",
"711 -86 OFFCURVE",
"706 -124 OFFCURVE",
"704 -133 QCURVE SMOOTH",
"698 -169 OFFCURVE",
"648 -260 OFFCURVE",
"557 -343 OFFCURVE",
"424 -399 OFFCURVE",
"336 -399 QCURVE SMOOTH",
"281 -399 OFFCURVE",
"187 -371 OFFCURVE",
"117 -315 OFFCURVE",
"77 -231 OFFCURVE",
"77 -174 QCURVE SMOOTH",
"77 -127 OFFCURVE",
"102 -6 OFFCURVE",
"133 68 QCURVE",
"104 79 LINE",
"57 -21 OFFCURVE",
"10 -215 OFFCURVE",
"10 -322 QCURVE SMOOTH",
"10 -375 OFFCURVE",
"50 -468 OFFCURVE",
"124 -538 OFFCURVE",
"226 -578 OFFCURVE",
"288 -578 QCURVE SMOOTH",
"381 -578 OFFCURVE",
"527 -512 OFFCURVE",
"637 -400 OFFCURVE",
"715 -250 OFFCURVE",
"742 -167 QCURVE SMOOTH",
"762 -104 OFFCURVE",
"784 33 OFFCURVE",
"789 97 QCURVE SMOOTH",
"795 198 LINE",
"811 169 OFFCURVE",
"871 127 OFFCURVE",
"945 99 OFFCURVE",
"1026 85 OFFCURVE",
"1063 85 QCURVE SMOOTH",
"1181 85 OFFCURVE",
"1395 137 OFFCURVE",
"1592 227 OFFCURVE",
"1773 350 OFFCURVE",
"1945 492 OFFCURVE",
"2109 648 OFFCURVE",
"2191 727 QCURVE SMOOTH",
"2247 780 LINE SMOOTH",
"2256 789 OFFCURVE",
"2282 809 OFFCURVE",
"2292 817 QCURVE",
"2290 830 LINE",
"2274 832 OFFCURVE",
"2224 851 OFFCURVE",
"2195 865 QCURVE SMOOTH",
"2183 871 OFFCURVE",
"2151 885 OFFCURVE",
"2119 898 OFFCURVE",
"2088 910 OFFCURVE",
"2077 913 QCURVE SMOOTH",
"2051 920 OFFCURVE",
"2030 920 QCURVE SMOOTH",
"1985 920 OFFCURVE",
"1910 868 OFFCURVE",
"1876 801 QCURVE",
"1902 792 LINE",
"1915 815 OFFCURVE",
"1952 829 OFFCURVE",
"1971 829 QCURVE SMOOTH",
"1992 829 OFFCURVE",
"2024 821 OFFCURVE",
"2047 812 QCURVE SMOOTH",
"2077 800 OFFCURVE",
"2138 778 OFFCURVE",
"2160 769 QCURVE",
"2094 702 OFFCURVE",
"1947 573 OFFCURVE",
"1784 456 OFFCURVE",
"1608 357 OFFCURVE",
"1421 285 OFFCURVE",
"1225 244 OFFCURVE",
"1123 244 QCURVE SMOOTH"
);
},
{
closed = 1;
nodes = (
"622 614 LINE SMOOTH",
"624 658 OFFCURVE",
"630 726 OFFCURVE",
"635 745 QCURVE",
"613 753 LINE",
"599 720 OFFCURVE",
"580 670 OFFCURVE",
"568 632 OFFCURVE",
"561 600 OFFCURVE",
"557 585 QCURVE SMOOTH",
"550 556 OFFCURVE",
"543 495 OFFCURVE",
"542 458 QCURVE SMOOTH",
"540 283 LINE SMOOTH",
"539 218 OFFCURVE",
"534 152 OFFCURVE",
"531 135 QCURVE SMOOTH",
"525 104 OFFCURVE",
"510 66 OFFCURVE",
"489 44 OFFCURVE",
"459 36 OFFCURVE",
"440 36 QCURVE SMOOTH",
"418 36 OFFCURVE",
"384 46 OFFCURVE",
"358 46 QCURVE SMOOTH",
"330 46 OFFCURVE",
"277 24 OFFCURVE",
"228 -25 OFFCURVE",
"180 -106 OFFCURVE",
"157 -165 QCURVE",
"178 -175 LINE",
"193 -153 OFFCURVE",
"217 -125 OFFCURVE",
"239 -110 OFFCURVE",
"263 -104 OFFCURVE",
"279 -104 QCURVE SMOOTH",
"301 -104 OFFCURVE",
"342 -122 OFFCURVE",
"366 -122 QCURVE SMOOTH",
"408 -122 OFFCURVE",
"472 -83 OFFCURVE",
"521 -20 OFFCURVE",
"555 58 OFFCURVE",
"566 95 QCURVE SMOOTH",
"577 129 OFFCURVE",
"592 210 OFFCURVE",
"603 294 OFFCURVE",
"610 376 OFFCURVE",
"612 412 QCURVE SMOOTH",
"618 526 LINE"
);
},
{
closed = 1;
nodes = (
"1421 551 OFFCURVE",
"1513 581 OFFCURVE",
"1593 633 OFFCURVE",
"1663 704 OFFCURVE",
"1695 745 QCURVE SMOOTH",
"1725 782 OFFCURVE",
"1778 860 OFFCURVE",
"1803 898 QCURVE",
"1800 911 LINE",
"1772 917 OFFCURVE",
"1702 942 QCURVE SMOOTH",
"1664 956 OFFCURVE",
"1605 969 OFFCURVE",
"1574 969 QCURVE SMOOTH",
"1532 969 OFFCURVE",
"1471 928 OFFCURVE",
"1444 883 QCURVE SMOOTH",
"1421 847 OFFCURVE",
"1383 758 OFFCURVE",
"1375 714 QCURVE",
"1349 720 OFFCURVE",
"1318 750 OFFCURVE",
"1299 795 OFFCURVE",
"1293 866 OFFCURVE",
"1293 919 QCURVE SMOOTH",
"1296 1056 OFFCURVE",
"1312 1241 OFFCURVE",
"1323 1285 QCURVE",
"1302 1294 LINE",
"1289 1262 OFFCURVE",
"1271 1218 OFFCURVE",
"1260 1186 OFFCURVE",
"1253 1158 OFFCURVE",
"1250 1144 QCURVE SMOOTH",
"1242 1108 OFFCURVE",
"1229 1021 OFFCURVE",
"1227 970 QCURVE SMOOTH",
"1214 701 LINE SMOOTH",
"1212 669 OFFCURVE",
"1208 623 OFFCURVE",
"1197 586 OFFCURVE",
"1175 554 OFFCURVE",
"1156 537 QCURVE SMOOTH",
"1127 512 OFFCURVE",
"1054 481 OFFCURVE",
"1015 475 QCURVE",
"1042 541 OFFCURVE",
"1077 679 OFFCURVE",
"1080 740 QCURVE SMOOTH",
"1091 934 LINE SMOOTH",
"1093 978 OFFCURVE",
"1098 1067 OFFCURVE",
"1105 1146 OFFCURVE",
"1114 1208 OFFCURVE",
"1121 1224 QCURVE",
"1100 1232 LINE",
"1069 1165 OFFCURVE",
"1038 1079 OFFCURVE",
"1031 1048 QCURVE SMOOTH",
"1024 1019 OFFCURVE",
"1018 944 OFFCURVE",
"1016 907 QCURVE SMOOTH",
"1006 658 LINE SMOOTH",
"1004 626 OFFCURVE",
"1000 565 OFFCURVE",
"995 515 OFFCURVE",
"991 479 OFFCURVE",
"989 470 QCURVE",
"984 469 OFFCURVE",
"978 468 OFFCURVE",
"973 468 QCURVE",
"968 449 LINE",
"976 441 OFFCURVE",
"1005 424 OFFCURVE",
"1039 409 OFFCURVE",
"1072 397 OFFCURVE",
"1085 396 QCURVE",
"1101 400 OFFCURVE",
"1130 417 OFFCURVE",
"1157 439 OFFCURVE",
"1180 465 OFFCURVE",
"1188 476 QCURVE SMOOTH",
"1208 503 OFFCURVE",
"1238 572 OFFCURVE",
"1250 613 QCURVE",
"1259 595 OFFCURVE",
"1286 570 OFFCURVE",
"1317 556 OFFCURVE",
"1351 551 OFFCURVE",
"1367 551 QCURVE SMOOTH"
);
},
{
closed = 1;
nodes = (
"1498 858 OFFCURVE",
"1536 868 OFFCURVE",
"1556 868 QCURVE SMOOTH",
"1583 868 OFFCURVE",
"1636 855 OFFCURVE",
"1662 846 QCURVE SMOOTH",
"1708 832 LINE",
"1688 802 OFFCURVE",
"1627 757 OFFCURVE",
"1550 726 OFFCURVE",
"1463 709 OFFCURVE",
"1417 709 QCURVE SMOOTH",
"1407 709 LINE",
"1428 803 OFFCURVE",
"1483 846 QCURVE SMOOTH"
);
},
{
closed = 1;
nodes = (
"2063 1087 OFFCURVE",
"2034 1059 OFFCURVE",
"2027 1031 QCURVE",
"2034 1026 LINE",
"2042 1035 OFFCURVE",
"2069 1052 OFFCURVE",
"2086 1062 QCURVE SMOOTH",
"2226 1137 LINE SMOOTH",
"2243 1147 OFFCURVE",
"2270 1176 OFFCURVE",
"2281 1204 QCURVE",
"2272 1209 LINE",
"2265 1204 OFFCURVE",
"2234 1187 OFFCURVE",
"2222 1180 QCURVE SMOOTH",
"2206 1171 OFFCURVE",
"2167 1149 OFFCURVE",
"2128 1127 OFFCURVE",
"2094 1107 OFFCURVE",
"2084 1101 QCURVE SMOOTH"
);
},
{
closed = 1;
nodes = (
"1990 332 OFFCURVE",
"2013 312 OFFCURVE",
"2037 290 OFFCURVE",
"2058 270 OFFCURVE",
"2063 264 QCURVE",
"2072 264 LINE",
"2088 275 OFFCURVE",
"2118 300 OFFCURVE",
"2141 324 OFFCURVE",
"2155 348 OFFCURVE",
"2155 358 QCURVE SMOOTH",
"2155 380 OFFCURVE",
"2116 418 OFFCURVE",
"2077 443 QCURVE",
"2068 443 LINE",
"2063 440 OFFCURVE",
"2042 419 OFFCURVE",
"2016 391 OFFCURVE",
"1990 360 OFFCURVE",
"1981 347 QCURVE",
"1981 338 LINE"
);
},
{
closed = 1;
nodes = (
"1468 -21 OFFCURVE",
"1491 -41 OFFCURVE",
"1514 -63 OFFCURVE",
"1536 -83 OFFCURVE",
"1542 -89 QCURVE",
"1550 -89 LINE",
"1566 -77 OFFCURVE",
"1596 -53 OFFCURVE",
"1619 -28 OFFCURVE",
"1633 -4 OFFCURVE",
"1633 6 QCURVE SMOOTH",
"1633 27 OFFCURVE",
"1593 66 OFFCURVE",
"1555 90 QCURVE",
"1546 90 LINE",
"1542 88 OFFCURVE",
"1520 67 OFFCURVE",
"1494 39 OFFCURVE",
"1468 8 OFFCURVE",
"1459 -5 QCURVE",
"1459 -14 LINE"
);
},
{
closed = 1;
nodes = (
"1535 1113 OFFCURVE",
"1505 1084 OFFCURVE",
"1499 1057 QCURVE",
"1505 1051 LINE",
"1514 1060 OFFCURVE",
"1541 1078 OFFCURVE",
"1558 1087 QCURVE SMOOTH",
"1697 1163 LINE SMOOTH",
"1715 1172 OFFCURVE",
"1742 1202 OFFCURVE",
"1752 1229 QCURVE",
"1744 1235 LINE",
"1737 1229 OFFCURVE",
"1706 1212 OFFCURVE",
"1694 1205 QCURVE SMOOTH",
"1678 1196 OFFCURVE",
"1639 1175 OFFCURVE",
"1600 1153 OFFCURVE",
"1566 1133 OFFCURVE",
"1556 1127 QCURVE"
);
},
{
closed = 1;
nodes = (
"224 332 OFFCURVE",
"257 349 OFFCURVE",
"290 367 OFFCURVE",
"321 385 OFFCURVE",
"331 390 QCURVE",
"347 402 OFFCURVE",
"383 430 OFFCURVE",
"413 462 OFFCURVE",
"433 501 OFFCURVE",
"433 524 QCURVE SMOOTH",
"433 542 OFFCURVE",
"415 568 OFFCURVE",
"395 568 QCURVE SMOOTH",
"381 568 OFFCURVE",
"355 553 OFFCURVE",
"334 530 OFFCURVE",
"321 502 OFFCURVE",
"321 489 QCURVE SMOOTH",
"321 479 OFFCURVE",
"331 455 OFFCURVE",
"340 443 QCURVE",
"334 438 OFFCURVE",
"306 417 OFFCURVE",
"289 402 QCURVE SMOOTH",
"266 385 OFFCURVE",
"222 347 OFFCURVE",
"208 333 QCURVE",
"213 327 LINE"
);
},
{
closed = 1;
nodes = (
"398 499 OFFCURVE",
"385 480 OFFCURVE",
"376 472 QCURVE",
"365 482 OFFCURVE",
"352 499 OFFCURVE",
"352 506 QCURVE SMOOTH",
"352 518 OFFCURVE",
"367 530 OFFCURVE",
"377 530 QCURVE SMOOTH",
"387 530 OFFCURVE",
"398 520 OFFCURVE",
"398 510 QCURVE SMOOTH"
);
},
{
closed = 1;
nodes = (
"439 878 OFFCURVE",
"411 850 OFFCURVE",
"403 822 QCURVE",
"411 816 LINE",
"418 825 OFFCURVE",
"446 843 OFFCURVE",
"463 853 QCURVE SMOOTH",
"602 928 LINE SMOOTH",
"620 938 OFFCURVE",
"647 967 OFFCURVE",
"657 995 QCURVE",
"648 1000 LINE",
"642 995 OFFCURVE",
"611 978 OFFCURVE",
"599 970 QCURVE SMOOTH",
"583 961 OFFCURVE",
"544 940 OFFCURVE",
"504 918 OFFCURVE",
"471 898 OFFCURVE",
"460 892 QCURVE SMOOTH"
);
},
{
closed = 1;
nodes = (
"741 1017 OFFCURVE",
"758 991 OFFCURVE",
"778 991 QCURVE SMOOTH",
"801 991 OFFCURVE",
"833 1023 OFFCURVE",
"846 1052 QCURVE",
"850 1048 OFFCURVE",
"864 1044 OFFCURVE",
"870 1044 QCURVE SMOOTH",
"910 1044 OFFCURVE",
"948 1107 OFFCURVE",
"948 1153 QCURVE SMOOTH",
"948 1164 LINE",
"931 1161 LINE",
"925 1123 OFFCURVE",
"908 1095 OFFCURVE",
"891 1095 QCURVE SMOOTH",
"883 1095 OFFCURVE",
"865 1103 OFFCURVE",
"859 1113 QCURVE",
"844 1110 LINE",
"834 1071 OFFCURVE",
"811 1042 OFFCURVE",
"790 1042 QCURVE SMOOTH",
"779 1042 OFFCURVE",
"766 1055 OFFCURVE",
"763 1071 QCURVE",
"763 1076 LINE",
"750 1074 LINE",
"741 1057 OFFCURVE",
"741 1033 QCURVE SMOOTH"
);
},
{
closed = 1;
nodes = (
"775 1212 OFFCURVE",
"746 1184 OFFCURVE",
"739 1156 QCURVE",
"746 1150 LINE",
"754 1159 OFFCURVE",
"781 1177 OFFCURVE",
"799 1187 QCURVE SMOOTH",
"938 1262 LINE SMOOTH",
"956 1272 OFFCURVE",
"982 1301 OFFCURVE",
"993 1329 QCURVE",
"984 1334 LINE",
"978 1329 OFFCURVE",
"947 1312 OFFCURVE",
"934 1304 QCURVE SMOOTH",
"918 1295 OFFCURVE",
"880 1274 OFFCURVE",
"840 1252 OFFCURVE",
"807 1232 OFFCURVE",
"796 1226 QCURVE SMOOTH"
);
}
);
width = 2312;
}
);
note = uniFDFB;
unicode = FDFB;
},
{
glyphname = DecimalPointArabic;
lastChange = "2019-08-09 22:57:09 +0000";
layers = (
{
layerId = "5E96EFD4-BDA9-4728-9E21-55349679CE65";
paths = (
{
closed = 1;
nodes = (
"137 187 OFFCURVE",
"76 121 OFFCURVE",
"54 91 QCURVE",
"54 83 LINE",
"114 40 OFFCURVE",
"146 -2 OFFCURVE",
"146 -23 QCURVE SMOOTH",
"146 -49 OFFCURVE",
"117 -104 OFFCURVE",
"99 -133 QCURVE",
"117 -146 LINE",
"173 -85 OFFCURVE",
"232 28 OFFCURVE",
"232 73 QCURVE SMOOTH",
"232 142 OFFCURVE",
"153 190 QCURVE",
"144 190 LINE"
);
}
);
width = 285;
}
);
note = DecimalPointArabic;
unicode = 066B;
},
{
glyphname = ThousandMarkerArabic;
lastChange = "2019-08-09 22:57:09 +0000";
layers = (
{
layerId = "5E96EFD4-BDA9-4728-9E21-55349679CE65";
paths = (
{
closed = 1;
nodes = (
"125 747 OFFCURVE",
"73 692 OFFCURVE",
"51 663 QCURVE",
"51 655 LINE",
"101 618 OFFCURVE",
"134 580 OFFCURVE",
"134 560 QCURVE SMOOTH",
"134 525 OFFCURVE",
"91 461 QCURVE",
"108 449 LINE",
"149 491 OFFCURVE",
"212 601 OFFCURVE",
"212 646 QCURVE SMOOTH",
"212 708 OFFCURVE",
"141 751 QCURVE",
"133 751 LINE"
);
}
);
width = 285;
}
);
note = ThousandMarkerArabic;
unicode = 066C;
},
{
glyphname = ZeroArabic;
lastChange = "2019-08-09 22:57:09 +0000";
layers = (
{
layerId = "5E96EFD4-BDA9-4728-9E21-55349679CE65";
paths = (
{
closed = 1;
nodes = (
"165 229 OFFCURVE",
"193 196 QCURVE",
"203 196 LINE",
"292 262 OFFCURVE",
"292 298 QCURVE SMOOTH",
"292 321 OFFCURVE",
"250 363 OFFCURVE",
"208 389 QCURVE",
"199 389 LINE",
"191 385 OFFCURVE",
"123 314 OFFCURVE",
"104 287 QCURVE",
"104 277 LINE"
);
}
);
width = 409;
}
);
note = ZeroArabic;
unicode = 0660;
},
{
glyphname = OneArabic;
lastChange = "2019-08-09 22:57:09 +0000";
layers = (
{
layerId = "5E96EFD4-BDA9-4728-9E21-55349679CE65";
paths = (
{
closed = 1;
nodes = (
"280 -2 LINE",
"309 61 OFFCURVE",
"328 180 OFFCURVE",
"328 324 QCURVE SMOOTH",
"328 408 OFFCURVE",
"304 638 OFFCURVE",
"293 670 QCURVE",
"282 670 LINE",
"269 640 LINE SMOOTH",
"237 569 OFFCURVE",
"229 536 QCURVE",
"240 453 LINE",
"259 339 OFFCURVE",
"266 147 QCURVE SMOOTH",
"266 122 LINE SMOOTH",
"266 36 OFFCURVE",
"260 2 QCURVE"
);
}
);
width = 567;
}
);
note = OneArabic;
unicode = 0661;
},
{
glyphname = TwoArabic;
lastChange = "2019-08-09 22:57:09 +0000";
layers = (
{
layerId = "5E96EFD4-BDA9-4728-9E21-55349679CE65";
paths = (
{
closed = 1;
nodes = (
"175 -2 LINE",
"204 66 OFFCURVE",
"222 177 OFFCURVE",
"222 324 QCURVE SMOOTH",
"222 358 OFFCURVE",
"215 424 QCURVE",
"240 417 OFFCURVE",
"274 417 QCURVE SMOOTH",
"373 417 OFFCURVE",
"473 524 OFFCURVE",
"494 666 QCURVE",
"472 670 LINE",
"451 604 OFFCURVE",
"375 542 OFFCURVE",
"304 542 QCURVE SMOOTH",
"264 542 OFFCURVE",
"202 576 OFFCURVE",
"191 604 QCURVE",
"189 622 OFFCURVE",
"182 653 OFFCURVE",
"178 670 QCURVE",
"166 670 LINE",
"156 647 OFFCURVE",
"123 562 OFFCURVE",
"116 536 QCURVE",
"130 459 LINE",
"137 427 OFFCURVE",
"154 300 OFFCURVE",
"160 147 QCURVE",
"160 122 LINE SMOOTH",
"160 42 OFFCURVE",
"154 2 QCURVE"
);
}
);
width = 567;
}
);
note = TwoArabic;
unicode = 0662;
},
{
glyphname = ThreeArabic;
lastChange = "2019-08-09 22:57:09 +0000";
layers = (
{
layerId = "5E96EFD4-BDA9-4728-9E21-55349679CE65";
paths = (
{
closed = 1;
nodes = (
"121 -2 LINE",
"150 65 OFFCURVE",
"168 178 OFFCURVE",
"168 324 QCURVE SMOOTH",
"167 348 OFFCURVE",
"165 395 OFFCURVE",
"163 418 QCURVE",
"175 417 OFFCURVE",
"187 417 QCURVE SMOOTH",
"248 417 OFFCURVE",
"286 451 QCURVE",
"318 425 OFFCURVE",
"363 425 QCURVE SMOOTH",
"436 425 OFFCURVE",
"534 544 OFFCURVE",
"546 668 QCURVE",
"524 670 LINE",
"507 606 OFFCURVE",
"456 542 OFFCURVE",
"409 542 QCURVE SMOOTH",
"361 542 OFFCURVE",
"344 570 QCURVE",
"353 606 OFFCURVE",
"358 667 QCURVE",
"336 670 LINE",
"318 600 OFFCURVE",
"267 542 OFFCURVE",
"214 542 QCURVE SMOOTH",
"158 542 OFFCURVE",
"141 585 QCURVE",
"132 644 OFFCURVE",
"123 670 QCURVE",
"112 670 LINE",
"102 647 OFFCURVE",
"69 562 OFFCURVE",
"63 536 QCURVE",
"77 459 LINE",
"97 381 OFFCURVE",
"106 147 QCURVE",
"106 122 LINE SMOOTH",
"106 42 OFFCURVE",
"100 2 QCURVE"
);
}
);
width = 567;
}
);
note = ThreeArabic;
unicode = 0663;
},
{
glyphname = FourArabic;
lastChange = "2019-08-09 22:57:09 +0000";
layers = (
{
layerId = "5E96EFD4-BDA9-4728-9E21-55349679CE65";
paths = (
{
closed = 1;
nodes = (
"472 99 LINE",
"403 99 OFFCURVE",
"253 115 OFFCURVE",
"205 142 OFFCURVE",
"205 171 QCURVE SMOOTH",
"205 214 OFFCURVE",
"310 309 QCURVE SMOOTH",
"352 346 OFFCURVE",
"352 375 QCURVE SMOOTH",
"352 396 OFFCURVE",
"306 413 QCURVE SMOOTH",
"213 446 OFFCURVE",
"178 471 OFFCURVE",
"178 483 QCURVE SMOOTH",
"178 525 OFFCURVE",
"314 581 QCURVE",
"337 607 OFFCURVE",
"377 670 OFFCURVE",
"383 687 QCURVE",
"375 691 LINE",
"280 657 OFFCURVE",
"93 487 OFFCURVE",
"93 421 QCURVE SMOOTH",
"93 384 OFFCURVE",
"148 330 OFFCURVE",
"240 300 QCURVE",
"175 247 OFFCURVE",
"104 144 OFFCURVE",
"104 92 QCURVE SMOOTH",
"104 0 OFFCURVE",
"271 0 QCURVE SMOOTH",
"369 0 OFFCURVE",
"476 91 QCURVE"
);
}
);
width = 565;
}
);
note = FourArabic;
unicode = 0664;
},
{
glyphname = FiveArabic;
lastChange = "2019-08-09 22:57:09 +0000";
layers = (
{
layerId = "5E96EFD4-BDA9-4728-9E21-55349679CE65";
paths = (
{
closed = 1;
nodes = (
"225 594 OFFCURVE",
"79 291 OFFCURVE",
"79 178 QCURVE SMOOTH",
"79 106 OFFCURVE",
"166 24 OFFCURVE",
"244 24 QCURVE SMOOTH",
"486 24 OFFCURVE",
"486 326 QCURVE SMOOTH",
"486 398 OFFCURVE",
"436 521 OFFCURVE",
"351 594 OFFCURVE",
"307 594 QCURVE SMOOTH"
);
},
{
closed = 1;
nodes = (
"432 208 OFFCURVE",
"349 156 OFFCURVE",
"271 156 QCURVE SMOOTH",
"211 156 OFFCURVE",
"143 203 OFFCURVE",
"143 251 QCURVE SMOOTH",
"143 287 OFFCURVE",
"189 402 OFFCURVE",
"246 461 OFFCURVE",
"276 461 QCURVE SMOOTH",
"309 461 OFFCURVE",
"381 395 OFFCURVE",
"432 294 OFFCURVE",
"432 255 QCURVE SMOOTH"
);
}
);
width = 567;
}
);
note = FiveArabic;
unicode = 0665;
},
{
glyphname = SixArabic;
lastChange = "2019-08-09 22:57:09 +0000";
layers = (
{
layerId = "5E96EFD4-BDA9-4728-9E21-55349679CE65";
paths = (
{
closed = 1;
nodes = (
"396 657 LINE",
"374 631 OFFCURVE",
"292 603 OFFCURVE",
"247 603 QCURVE SMOOTH",
"127 603 OFFCURVE",
"72 663 QCURVE",
"63 661 LINE",
"46 613 OFFCURVE",
"46 568 QCURVE SMOOTH",
"46 544 OFFCURVE",
"71 517 OFFCURVE",
"122 494 OFFCURVE",
"192 482 OFFCURVE",
"227 482 QCURVE SMOOTH",
"257 482 OFFCURVE",
"335 500 OFFCURVE",
"364 520 QCURVE",
"353 433 OFFCURVE",
"353 282 QCURVE SMOOTH",
"353 219 OFFCURVE",
"372 42 OFFCURVE",
"385 0 QCURVE",
"396 -1 LINE",
"426 72 OFFCURVE",
"445 129 QCURVE",
"443 149 OFFCURVE",
"437 191 OFFCURVE",
"433 213 QCURVE SMOOTH",
"421 292 OFFCURVE",
"413 424 OFFCURVE",
"413 538 QCURVE SMOOTH",
"413 629 OFFCURVE",
"417 652 QCURVE"
);
}
);
width = 567;
}
);
note = SixArabic;
unicode = 0666;
},
{
glyphname = SevenArabic;
lastChange = "2019-08-09 22:57:09 +0000";
layers = (
{
layerId = "5E96EFD4-BDA9-4728-9E21-55349679CE65";
paths = (
{
closed = 1;
nodes = (
"100 386 OFFCURVE",
"209 93 QCURVE SMOOTH",
"218 69 OFFCURVE",
"235 23 OFFCURVE",
"246 0 QCURVE",
"266 0 LINE",
"279 16 OFFCURVE",
"346 180 QCURVE SMOOTH",
"423 368 OFFCURVE",
"523 580 QCURVE",
"523 585 OFFCURVE",
"503 642 OFFCURVE",
"490 670 QCURVE",
"481 670 LINE",
"333 301 OFFCURVE",
"290 177 QCURVE",
"284 177 LINE",
"267 244 OFFCURVE",
"141 587 OFFCURVE",
"99 670 QCURVE",
"90 670 LINE",
"74 645 OFFCURVE",
"34 565 OFFCURVE",
"28 543 QCURVE"
);
}
);
width = 567;
}
);
note = SevenArabic;
unicode = 0667;
},
{
glyphname = EightArabic;
lastChange = "2019-08-09 22:57:09 +0000";
layers = (
{
layerId = "5E96EFD4-BDA9-4728-9E21-55349679CE65";
paths = (
{
closed = 1;
nodes = (
"462 257 OFFCURVE",
"342 578 QCURVE",
"334 601 OFFCURVE",
"316 648 OFFCURVE",
"305 670 QCURVE",
"285 670 LINE",
"271 655 OFFCURVE",
"205 490 QCURVE SMOOTH",
"143 340 OFFCURVE",
"68 176 QCURVE SMOOTH",
"28 90 LINE",
"28 84 OFFCURVE",
"53 15 OFFCURVE",
"61 0 QCURVE",
"69 0 LINE",
"91 52 OFFCURVE",
"232 412 OFFCURVE",
"261 494 QCURVE",
"267 494 LINE",
"284 428 OFFCURVE",
"411 82 OFFCURVE",
"452 0 QCURVE",
"460 0 LINE",
"479 30 OFFCURVE",
"517 106 OFFCURVE",
"523 127 QCURVE"
);
}
);
width = 567;
}
);
note = EightArabic;
unicode = 0668;
},
{
glyphname = NineArabic;
lastChange = "2019-08-09 22:57:09 +0000";
layers = (
{
layerId = "5E96EFD4-BDA9-4728-9E21-55349679CE65";
paths = (
{
closed = 1;
nodes = (
"348 59 OFFCURVE",
"367 0 QCURVE",
"379 -1 LINE",
"410 72 OFFCURVE",
"427 129 QCURVE",
"424 150 OFFCURVE",
"419 191 OFFCURVE",
"416 213 QCURVE SMOOTH",
"402 296 OFFCURVE",
"400 376 QCURVE SMOOTH",
"394 509 OFFCURVE",
"367 619 OFFCURVE",
"315 670 OFFCURVE",
"270 670 QCURVE SMOOTH",
"222 670 OFFCURVE",
"143 597 OFFCURVE",
"96 471 OFFCURVE",
"96 412 QCURVE SMOOTH",
"96 349 OFFCURVE",
"168 287 OFFCURVE",
"227 287 QCURVE SMOOTH",
"299 287 OFFCURVE",
"338 339 QCURVE"
);
},
{
closed = 1;
nodes = (
"305 402 OFFCURVE",
"252 402 QCURVE SMOOTH",
"207 402 OFFCURVE",
"154 437 OFFCURVE",
"154 471 QCURVE SMOOTH",
"154 502 OFFCURVE",
"208 560 OFFCURVE",
"243 560 QCURVE SMOOTH",
"287 560 OFFCURVE",
"336 490 OFFCURVE",
"336 418 QCURVE"
);
}
);
width = 567;
}
);
note = NineArabic;
unicode = 0669;
},
{
glyphname = FourUrdu;
lastChange = "2019-08-09 22:57:09 +0000";
layers = (
{
layerId = "5E96EFD4-BDA9-4728-9E21-55349679CE65";
paths = (
{
closed = 1;
nodes = (
"191 673 OFFCURVE",
"121 611 OFFCURVE",
"81 504 OFFCURVE",
"81 450 QCURVE SMOOTH",
"81 417 OFFCURVE",
"104 266 QCURVE SMOOTH",
"113 208 OFFCURVE",
"131 89 OFFCURVE",
"131 23 QCURVE SMOOTH",
"130 -3 LINE",
"150 -5 LINE",
"181 64 OFFCURVE",
"181 170 QCURVE SMOOTH",
"181 289 OFFCURVE",
"158 418 QCURVE SMOOTH",
"144 500 OFFCURVE",
"144 518 QCURVE SMOOTH",
"145 566 OFFCURVE",
"197 566 QCURVE SMOOTH",
"227 566 OFFCURVE",
"279 512 OFFCURVE",
"321 416 OFFCURVE",
"330 369 QCURVE",
"344 369 LINE",
"374 430 OFFCURVE",
"444 516 OFFCURVE",
"474 549 QCURVE",
"497 601 OFFCURVE",
"523 692 QCURVE",
"516 697 LINE",
"454 635 OFFCURVE",
"388 528 QCURVE",
"381 528 LINE",
"338 673 OFFCURVE",
"235 673 QCURVE SMOOTH"
);
}
);
width = 567;
}
);
note = FourUrdu;
unicode = 06F4;
},
{
glyphname = FiveFarsi;
lastChange = "2019-08-09 22:57:09 +0000";
layers = (
{
layerId = "5E96EFD4-BDA9-4728-9E21-55349679CE65";
paths = (
{
closed = 1;
nodes = (
"287 42 OFFCURVE",
"332 32 OFFCURVE",
"354 32 QCURVE SMOOTH",
"393 32 OFFCURVE",
"459 101 OFFCURVE",
"498 238 OFFCURVE",
"498 306 QCURVE SMOOTH",
"498 384 OFFCURVE",
"411 552 OFFCURVE",
"305 663 QCURVE",
"296 665 LINE",
"276 646 OFFCURVE",
"232 582 OFFCURVE",
"232 570 QCURVE",
"233 562 LINE",
"137 432 OFFCURVE",
"62 239 OFFCURVE",
"62 153 QCURVE SMOOTH",
"62 90 OFFCURVE",
"117 17 OFFCURVE",
"172 17 QCURVE SMOOTH",
"236 17 OFFCURVE",
"270 64 QCURVE"
);
},
{
closed = 1;
nodes = (
"343 431 OFFCURVE",
"401 353 OFFCURVE",
"439 271 OFFCURVE",
"439 234 QCURVE SMOOTH",
"439 196 OFFCURVE",
"405 151 OFFCURVE",
"375 151 QCURVE SMOOTH",
"321 151 OFFCURVE",
"301 202 QCURVE",
"288 203 LINE",
"249 142 OFFCURVE",
"191 142 QCURVE SMOOTH",
"123 142 OFFCURVE",
"123 228 QCURVE SMOOTH",
"123 283 OFFCURVE",
"204 433 OFFCURVE",
"272 503 QCURVE"
);
}
);
width = 567;
}
);
note = FiveFarsi;
unicode = 06F5;
},
{
glyphname = SevenUrdu;
lastChange = "2019-08-09 22:57:09 +0000";
layers = (
{
layerId = "5E96EFD4-BDA9-4728-9E21-55349679CE65";
paths = (
{
closed = 1;
nodes = (
"491 122 LINE",
"459 126 OFFCURVE",
"183 163 OFFCURVE",
"130 174 QCURVE",
"130 178 LINE",
"144 208 OFFCURVE",
"206 289 OFFCURVE",
"339 451 OFFCURVE",
"404 525 QCURVE",
"407 534 OFFCURVE",
"414 568 OFFCURVE",
"419 604 OFFCURVE",
"424 635 OFFCURVE",
"424 640 QCURVE",
"416 642 LINE",
"316 524 OFFCURVE",
"183 353 OFFCURVE",
"103 231 OFFCURVE",
"57 135 OFFCURVE",
"48 81 QCURVE",
"55 69 LINE",
"96 57 OFFCURVE",
"398 13 OFFCURVE",
"440 13 QCURVE",
"466 46 OFFCURVE",
"492 109 QCURVE"
);
}
);
width = 567;
}
);
note = SevenUrdu;
unicode = 06F7;
},
{
glyphname = slash;
lastChange = "2019-08-09 22:57:09 +0000";
layers = (
{
layerId = "5E96EFD4-BDA9-4728-9E21-55349679CE65";
paths = (
{
closed = 1;
nodes = (
"479 776 LINE",
"426 675 OFFCURVE",
"318 458 OFFCURVE",
"212 235 OFFCURVE",
"109 13 OFFCURVE",
"62 -93 QCURVE",
"104 -111 LINE",
"150 -10 OFFCURVE",
"252 208 OFFCURVE",
"358 432 OFFCURVE",
"469 655 OFFCURVE",
"524 762 QCURVE"
);
}
);
width = 564;
}
);
note = slash;
unicode = 002F;
},
{
glyphname = backslash;
lastChange = "2019-08-09 22:57:09 +0000";
layers = (
{
layerId = "5E96EFD4-BDA9-4728-9E21-55349679CE65";
paths = (
{
closed = 1;
nodes = (
"490 -105 LINE",
"440 3 OFFCURVE",
"338 231 OFFCURVE",
"241 458 OFFCURVE",
"147 680 OFFCURVE",
"104 783 QCURVE",
"62 767 LINE",
"104 659 OFFCURVE",
"199 433 OFFCURVE",
"296 207 OFFCURVE",
"396 -15 OFFCURVE",
"446 -118 QCURVE"
);
}
);
width = 543;
}
);
note = backslash;
unicode = 005C;
},
{
glyphname = parenleft;
lastChange = "2019-08-09 22:57:09 +0000";
layers = (
{
layerId = "5E96EFD4-BDA9-4728-9E21-55349679CE65";
paths = (
{
closed = 1;
nodes = (
"147 402 OFFCURVE",
"164 542 OFFCURVE",
"212 679 OFFCURVE",
"299 803 OFFCURVE",
"369 848 QCURVE",
"352 875 LINE",
"279 835 OFFCURVE",
"164 716 OFFCURVE",
"83 574 OFFCURVE",
"41 415 OFFCURVE",
"41 333 QCURVE SMOOTH",
"41 236 OFFCURVE",
"83 68 OFFCURVE",
"163 -71 OFFCURVE",
"277 -180 OFFCURVE",
"348 -218 QCURVE",
"366 -191 LINE",
"295 -146 OFFCURVE",
"209 -15 OFFCURVE",
"163 131 OFFCURVE",
"147 279 OFFCURVE",
"147 340 QCURVE SMOOTH"
);
}
);
width = 380;
}
);
note = parenleft;
unicode = 0028;
},
{
glyphname = parenright;
lastChange = "2019-08-09 22:57:09 +0000";
layers = (
{
layerId = "5E96EFD4-BDA9-4728-9E21-55349679CE65";
paths = (
{
closed = 1;
nodes = (
"233 256 OFFCURVE",
"216 115 OFFCURVE",
"168 -22 OFFCURVE",
"81 -146 OFFCURVE",
"11 -191 QCURVE",
"28 -218 LINE",
"100 -178 OFFCURVE",
"216 -59 OFFCURVE",
"296 83 OFFCURVE",
"339 243 OFFCURVE",
"339 324 QCURVE SMOOTH",
"339 420 OFFCURVE",
"297 589 OFFCURVE",
"217 729 OFFCURVE",
"103 837 OFFCURVE",
"32 875 QCURVE",
"14 848 LINE",
"84 803 OFFCURVE",
"170 672 OFFCURVE",
"217 526 OFFCURVE",
"233 379 OFFCURVE",
"233 317 QCURVE SMOOTH"
);
}
);
width = 380;
}
);
note = parenright;
unicode = 0029;
},
{
glyphname = braceleft;
lastChange = "2019-08-09 22:57:09 +0000";
layers = (
{
layerId = "5E96EFD4-BDA9-4728-9E21-55349679CE65";
paths = (
{
closed = 1;
nodes = (
"207 753 OFFCURVE",
"264 812 OFFCURVE",
"307 812 QCURVE SMOOTH",
"316 812 OFFCURVE",
"333 811 OFFCURVE",
"342 809 QCURVE",
"348 843 LINE",
"338 845 OFFCURVE",
"313 846 OFFCURVE",
"303 846 QCURVE SMOOTH",
"265 846 OFFCURVE",
"195 821 OFFCURVE",
"143 768 OFFCURVE",
"113 687 OFFCURVE",
"113 629 QCURVE SMOOTH",
"113 606 OFFCURVE",
"116 571 OFFCURVE",
"119 534 OFFCURVE",
"121 490 OFFCURVE",
"121 459 QCURVE SMOOTH",
"121 427 OFFCURVE",
"112 387 OFFCURVE",
"92 363 OFFCURVE",
"65 353 OFFCURVE",
"46 352 QCURVE SMOOTH",
"35 351 LINE",
"35 318 LINE",
"46 317 LINE SMOOTH",
"65 315 OFFCURVE",
"92 306 OFFCURVE",
"112 282 OFFCURVE",
"121 241 OFFCURVE",
"121 208 QCURVE SMOOTH",
"121 178 OFFCURVE",
"119 130 OFFCURVE",
"116 90 OFFCURVE",
"113 50 OFFCURVE",
"113 28 QCURVE SMOOTH",
"113 -29 OFFCURVE",
"143 -111 OFFCURVE",
"195 -164 OFFCURVE",
"265 -189 OFFCURVE",
"303 -189 QCURVE SMOOTH",
"313 -189 OFFCURVE",
"336 -187 OFFCURVE",
"345 -186 QCURVE",
"342 -151 LINE",
"327 -155 OFFCURVE",
"307 -155 QCURVE SMOOTH",
"286 -155 OFFCURVE",
"249 -141 OFFCURVE",
"222 -110 OFFCURVE",
"207 -60 OFFCURVE",
"207 -24 QCURVE SMOOTH",
"207 2 OFFCURVE",
"209 46 OFFCURVE",
"212 92 OFFCURVE",
"214 143 OFFCURVE",
"214 176 QCURVE SMOOTH",
"214 197 OFFCURVE",
"206 246 OFFCURVE",
"182 292 OFFCURVE",
"139 327 OFFCURVE",
"104 333 QCURVE",
"104 337 LINE",
"139 344 OFFCURVE",
"182 379 OFFCURVE",
"206 423 OFFCURVE",
"214 472 OFFCURVE",
"214 493 QCURVE SMOOTH",
"214 525 OFFCURVE",
"212 576 OFFCURVE",
"209 619 OFFCURVE",
"207 658 OFFCURVE",
"207 680 QCURVE SMOOTH"
);
}
);
width = 380;
}
);
note = braceleft;
unicode = 007B;
},
{
glyphname = braceright;
lastChange = "2019-08-09 22:57:09 +0000";
layers = (
{
layerId = "5E96EFD4-BDA9-4728-9E21-55349679CE65";
paths = (
{
closed = 1;
nodes = (
"173 658 OFFCURVE",
"170 619 OFFCURVE",
"168 576 OFFCURVE",
"165 525 OFFCURVE",
"165 493 QCURVE SMOOTH",
"165 472 OFFCURVE",
"174 423 OFFCURVE",
"198 379 OFFCURVE",
"241 344 OFFCURVE",
"276 337 QCURVE",
"276 333 LINE",
"241 327 OFFCURVE",
"198 292 OFFCURVE",
"174 246 OFFCURVE",
"165 197 OFFCURVE",
"165 176 QCURVE SMOOTH",
"165 143 OFFCURVE",
"168 92 OFFCURVE",
"170 46 OFFCURVE",
"173 2 OFFCURVE",
"173 -24 QCURVE SMOOTH",
"173 -60 OFFCURVE",
"158 -110 OFFCURVE",
"131 -141 OFFCURVE",
"94 -155 OFFCURVE",
"73 -155 QCURVE SMOOTH",
"54 -155 OFFCURVE",
"39 -151 QCURVE",
"34 -186 LINE",
"44 -187 OFFCURVE",
"67 -189 OFFCURVE",
"77 -189 QCURVE SMOOTH",
"115 -189 OFFCURVE",
"185 -164 OFFCURVE",
"236 -111 OFFCURVE",
"266 -29 OFFCURVE",
"266 28 QCURVE SMOOTH",
"266 50 OFFCURVE",
"264 90 OFFCURVE",
"260 130 OFFCURVE",
"257 178 OFFCURVE",
"257 208 QCURVE SMOOTH",
"257 241 OFFCURVE",
"267 282 OFFCURVE",
"287 306 OFFCURVE",
"314 315 OFFCURVE",
"333 317 QCURVE SMOOTH",
"345 318 LINE",
"345 351 LINE",
"333 352 LINE SMOOTH",
"314 353 OFFCURVE",
"287 363 OFFCURVE",
"267 387 OFFCURVE",
"257 427 OFFCURVE",
"257 459 QCURVE SMOOTH",
"257 490 OFFCURVE",
"260 534 OFFCURVE",
"264 571 OFFCURVE",
"266 606 OFFCURVE",
"266 629 QCURVE SMOOTH",
"266 687 OFFCURVE",
"236 768 OFFCURVE",
"185 821 OFFCURVE",
"115 846 OFFCURVE",
"77 846 QCURVE SMOOTH",
"67 846 OFFCURVE",
"42 845 OFFCURVE",
"32 843 QCURVE",
"39 809 LINE",
"46 811 OFFCURVE",
"63 812 OFFCURVE",
"73 812 QCURVE SMOOTH",
"116 812 OFFCURVE",
"173 753 OFFCURVE",
"173 680 QCURVE SMOOTH"
);
}
);
width = 380;
}
);
note = braceright;
unicode = 007D;
},
{
glyphname = bracketleft;
lastChange = "2019-08-09 22:57:09 +0000";
layers = (
{
layerId = "5E96EFD4-BDA9-4728-9E21-55349679CE65";
paths = (
{
closed = 1;
nodes = (
"143 -189 LINE",
"366 -189 LINE",
"366 -152 LINE",
"237 -152 LINE",
"237 810 LINE",
"366 810 LINE",
"366 846 LINE",
"143 846 LINE"
);
}
);
width = 397;
}
);
note = bracketleft;
unicode = 005B;
},
{
glyphname = bracketright;
lastChange = "2019-08-09 22:57:09 +0000";
layers = (
{
layerId = "5E96EFD4-BDA9-4728-9E21-55349679CE65";
paths = (
{
closed = 1;
nodes = (
"255 846 LINE",
"32 846 LINE",
"32 810 LINE",
"160 810 LINE",
"160 -152 LINE",
"32 -152 LINE",
"32 -189 LINE",
"255 -189 LINE"
);
}
);
width = 397;
}
);
note = bracketright;
unicode = 005D;
},
{
glyphname = hyphen;
lastChange = "2019-08-09 22:57:09 +0000";
layers = (
{
layerId = "5E96EFD4-BDA9-4728-9E21-55349679CE65";
paths = (
{
closed = 1;
nodes = (
"407 338 LINE",
"73 338 LINE",
"66 275 LINE",
"400 275 LINE"
);
}
);
width = 473;
}
);
note = hyphen;
unicode = 002D;
},
{
glyphname = endash;
lastChange = "2019-08-09 22:57:09 +0000";
layers = (
{
layerId = "5E96EFD4-BDA9-4728-9E21-55349679CE65";
paths = (
{
closed = 1;
nodes = (
"517 265 LINE",
"517 309 LINE",
"-3 309 LINE",
"-3 265 LINE"
);
}
);
width = 513;
}
);
note = endash;
unicode = 2013;
},
{
glyphname = emdash;
lastChange = "2019-08-09 22:57:09 +0000";
layers = (
{
layerId = "5E96EFD4-BDA9-4728-9E21-55349679CE65";
paths = (
{
closed = 1;
nodes = (
"700 265 LINE",
"700 309 LINE",
"-3 309 LINE",
"-3 265 LINE"
);
}
);
width = 696;
}
);
note = emdash;
unicode = 2014;
},
{
glyphname = DblGuillemetLeftArabic;
lastChange = "2019-08-09 22:57:09 +0000";
layers = (
{
layerId = "5E96EFD4-BDA9-4728-9E21-55349679CE65";
paths = (
{
closed = 1;
nodes = (
"367 95 LINE",
"371 100 OFFCURVE",
"394 161 OFFCURVE",
"396 176 QCURVE",
"358 208 OFFCURVE",
"323 285 OFFCURVE",
"323 343 QCURVE SMOOTH",
"323 386 OFFCURVE",
"358 490 OFFCURVE",
"392 536 QCURVE",
"375 549 LINE",
"320 488 OFFCURVE",
"260 347 OFFCURVE",
"260 279 QCURVE SMOOTH",
"260 157 OFFCURVE",
"358 93 QCURVE"
);
},
{
closed = 1;
nodes = (
"189 62 LINE",
"191 64 OFFCURVE",
"219 133 OFFCURVE",
"221 143 QCURVE",
"147 213 OFFCURVE",
"147 331 QCURVE SMOOTH",
"147 377 OFFCURVE",
"184 488 OFFCURVE",
"216 533 QCURVE",
"200 547 LINE",
"145 487 OFFCURVE",
"84 335 OFFCURVE",
"84 266 QCURVE SMOOTH",
"84 200 OFFCURVE",
"134 90 OFFCURVE",
"180 60 QCURVE"
);
}
);
width = 481;
}
);
note = DblGuillemetLeftArabic;
unicode = 00AB;
},
{
glyphname = DblGuillemetRightArabic;
lastChange = "2019-08-09 22:57:09 +0000";
layers = (
{
layerId = "5E96EFD4-BDA9-4728-9E21-55349679CE65";
paths = (
{
closed = 1;
nodes = (
"113 514 LINE",
"107 505 OFFCURVE",
"87 446 OFFCURVE",
"84 433 QCURVE",
"123 402 OFFCURVE",
"158 324 OFFCURVE",
"158 266 QCURVE SMOOTH",
"158 223 OFFCURVE",
"122 120 OFFCURVE",
"89 73 QCURVE",
"105 60 LINE",
"161 121 OFFCURVE",
"221 262 OFFCURVE",
"221 331 QCURVE SMOOTH",
"221 452 OFFCURVE",
"122 516 QCURVE"
);
},
{
closed = 1;
nodes = (
"292 547 LINE",
"289 545 OFFCURVE",
"262 476 OFFCURVE",
"260 467 QCURVE",
"334 396 OFFCURVE",
"334 279 QCURVE SMOOTH",
"334 232 OFFCURVE",
"297 121 OFFCURVE",
"265 77 QCURVE",
"281 63 LINE",
"336 121 OFFCURVE",
"396 274 OFFCURVE",
"396 343 QCURVE SMOOTH",
"396 408 OFFCURVE",
"349 516 OFFCURVE",
"301 549 QCURVE"
);
}
);
width = 481;
}
);
note = DblGuillemetRightArabic;
unicode = 00BB;
},
{
glyphname = QuoteSingleLeftArabic;
lastChange = "2019-08-09 22:57:09 +0000";
layers = (
{
layerId = "5E96EFD4-BDA9-4728-9E21-55349679CE65";
paths = (
{
closed = 1;
nodes = (
"228 806 OFFCURVE",
"190 833 QCURVE SMOOTH",
"148 866 OFFCURVE",
"148 886 QCURVE SMOOTH",
"148 907 OFFCURVE",
"170 951 OFFCURVE",
"195 988 QCURVE",
"178 1000 LINE",
"134 954 OFFCURVE",
"79 837 OFFCURVE",
"79 795 QCURVE SMOOTH",
"79 762 OFFCURVE",
"112 720 OFFCURVE",
"145 698 QCURVE",
"154 698 LINE",
"185 718 OFFCURVE",
"228 767 OFFCURVE",
"228 783 QCURVE SMOOTH"
);
}
);
width = 307;
}
);
note = QuoteSingleLeftArabic;
unicode = 2018;
},
{
glyphname = QuoteSingleRightArabic;
lastChange = "2019-08-09 22:57:09 +0000";
layers = (
{
layerId = "5E96EFD4-BDA9-4728-9E21-55349679CE65";
paths = (
{
closed = 1;
nodes = (
"125 956 OFFCURVE",
"81 905 OFFCURVE",
"76 890 QCURVE",
"76 881 LINE",
"129 834 OFFCURVE",
"154 804 OFFCURVE",
"154 782 QCURVE SMOOTH",
"154 762 OFFCURVE",
"137 723 OFFCURVE",
"112 683 QCURVE",
"128 671 LINE",
"172 718 OFFCURVE",
"228 834 OFFCURVE",
"228 876 QCURVE SMOOTH",
"228 938 OFFCURVE",
"161 974 QCURVE",
"152 974 LINE"
);
}
);
width = 307;
}
);
note = QuoteSingleRightArabic;
unicode = 2019;
},
{
glyphname = SglGuillemetLeftArabic;
lastChange = "2019-08-09 22:57:09 +0000";
layers = (
{
layerId = "5E96EFD4-BDA9-4728-9E21-55349679CE65";
paths = (
{
closed = 1;
nodes = (
"189 62 LINE",
"191 64 OFFCURVE",
"219 133 OFFCURVE",
"221 143 QCURVE",
"147 213 OFFCURVE",
"147 331 QCURVE SMOOTH",
"147 377 OFFCURVE",
"184 488 OFFCURVE",
"216 533 QCURVE",
"200 547 LINE",
"145 487 OFFCURVE",
"84 335 OFFCURVE",
"84 266 QCURVE SMOOTH",
"84 200 OFFCURVE",
"134 90 OFFCURVE",
"180 60 QCURVE"
);
}
);
width = 305;
}
);
note = SglGuillemetLeftArabic;
unicode = 2039;
},
{
glyphname = SglGuillemetRightArabic;
lastChange = "2019-08-09 22:57:09 +0000";
layers = (
{
layerId = "5E96EFD4-BDA9-4728-9E21-55349679CE65";
paths = (
{
closed = 1;
nodes = (
"116 547 LINE",
"113 545 OFFCURVE",
"86 476 OFFCURVE",
"84 467 QCURVE",
"158 396 OFFCURVE",
"158 279 QCURVE SMOOTH",
"158 232 OFFCURVE",
"121 121 OFFCURVE",
"89 77 QCURVE",
"105 63 LINE",
"160 121 OFFCURVE",
"221 273 OFFCURVE",
"221 343 QCURVE SMOOTH",
"221 408 OFFCURVE",
"173 516 OFFCURVE",
"125 549 QCURVE"
);
}
);
width = 305;
}
);
note = SglGuillemetRightArabic;
unicode = 203A;
},
{
glyphname = uniFBBC;
lastChange = "2019-08-09 22:57:09 +0000";
layers = (
{
layerId = "5E96EFD4-BDA9-4728-9E21-55349679CE65";
paths = (
{
closed = 1;
nodes = (
"78 -116 LINE",
"40 -167 LINE",
"40 -263 LINE SMOOTH",
"39 -304 OFFCURVE",
"39 -333 QCURVE SMOOTH",
"37 -383 LINE",
"35 -419 LINE",
"42 -424 LINE",
"84 -391 OFFCURVE",
"90 -330 OFFCURVE",
"90 -264 QCURVE SMOOTH",
"90 -200 LINE",
"88 -120 LINE"
);
},
{
closed = 1;
nodes = (
"198 -96 LINE",
"159 -147 LINE",
"159 -243 LINE SMOOTH",
"158 -284 OFFCURVE",
"158 -313 QCURVE SMOOTH",
"156 -363 LINE",
"155 -399 LINE",
"162 -403 LINE",
"204 -371 OFFCURVE",
"209 -310 OFFCURVE",
"209 -244 QCURVE SMOOTH",
"209 -180 LINE",
"208 -99 LINE"
);
}
);
width = 246;
}
);
note = uniFBBC;
unicode = FBBC;
},
{
glyphname = PeriodUrdu;
lastChange = "2019-08-09 22:57:09 +0000";
layers = (
{
layerId = "5E96EFD4-BDA9-4728-9E21-55349679CE65";
paths = (
{
closed = 1;
nodes = (
"95 81 OFFCURVE",
"287 99 QCURVE SMOOTH",
"464 116 OFFCURVE",
"508 126 QCURVE SMOOTH",
"539 134 OFFCURVE",
"593 196 OFFCURVE",
"604 243 QCURVE",
"600 250 LINE",
"562 239 OFFCURVE",
"525 235 QCURVE SMOOTH",
"490 230 OFFCURVE",
"422 223 OFFCURVE",
"387 221 QCURVE SMOOTH",
"200 204 OFFCURVE",
"151 182 QCURVE SMOOTH",
"83 150 OFFCURVE",
"58 77 QCURVE",
"63 69 LINE"
);
}
);
width = 663;
}
);
note = PeriodUrdu;
unicode = 06D4;
},
{
glyphname = CommaArabic;
lastChange = "2019-08-09 22:57:09 +0000";
layers = (
{
layerId = "5E96EFD4-BDA9-4728-9E21-55349679CE65";
paths = (
{
closed = 1;
nodes = (
"267 133 OFFCURVE",
"247 151 QCURVE SMOOTH",
"201 190 OFFCURVE",
"179 216 OFFCURVE",
"179 232 QCURVE SMOOTH",
"179 251 OFFCURVE",
"211 311 OFFCURVE",
"231 342 QCURVE",
"213 355 LINE",
"165 303 OFFCURVE",
"103 177 OFFCURVE",
"103 127 QCURVE SMOOTH",
"103 110 OFFCURVE",
"113 79 OFFCURVE",
"134 52 OFFCURVE",
"176 20 QCURVE",
"186 20 LINE",
"267 78 OFFCURVE",
"267 114 QCURVE SMOOTH"
);
}
);
width = 357;
}
);
note = CommaArabic;
unicode = 060C;
},
{
glyphname = SemicolonArabic;
lastChange = "2019-08-09 22:57:09 +0000";
layers = (
{
layerId = "5E96EFD4-BDA9-4728-9E21-55349679CE65";
paths = (
{
closed = 1;
nodes = (
"182 522 LINE SMOOTH",
"168 535 OFFCURVE",
"156 553 OFFCURVE",
"156 567 QCURVE SMOOTH",
"156 589 OFFCURVE",
"190 650 OFFCURVE",
"208 677 QCURVE",
"189 690 LINE",
"140 637 OFFCURVE",
"79 512 OFFCURVE",
"79 462 QCURVE SMOOTH",
"79 439 OFFCURVE",
"98 398 OFFCURVE",
"152 354 QCURVE",
"162 354 LINE",
"204 384 OFFCURVE",
"244 433 OFFCURVE",
"244 449 QCURVE SMOOTH",
"244 461 OFFCURVE",
"232 478 OFFCURVE",
"223 486 QCURVE SMOOTH"
);
},
{
closed = 1;
nodes = (
"73 94 LINE",
"117 57 LINE",
"139 36 LINE",
"156 20 LINE",
"165 20 LINE",
"208 50 OFFCURVE",
"247 98 OFFCURVE",
"247 114 QCURVE SMOOTH",
"247 135 OFFCURVE",
"208 174 OFFCURVE",
"169 199 QCURVE",
"160 199 LINE",
"150 192 OFFCURVE",
"86 123 OFFCURVE",
"73 103 QCURVE"
);
}
);
width = 317;
}
);
note = SemicolonArabic;
unicode = 061B;
},
{
glyphname = QuestionmarkArabic;
lastChange = "2019-08-09 22:57:09 +0000";
layers = (
{
layerId = "5E96EFD4-BDA9-4728-9E21-55349679CE65";
paths = (
{
closed = 1;
nodes = (
"291 298 OFFCURVE",
"291 330 QCURVE SMOOTH",
"291 460 OFFCURVE",
"190 567 QCURVE SMOOTH",
"133 627 OFFCURVE",
"133 662 QCURVE SMOOTH",
"133 701 OFFCURVE",
"212 747 OFFCURVE",
"271 747 QCURVE SMOOTH",
"315 747 OFFCURVE",
"339 738 QCURVE",
"348 738 LINE",
"370 767 OFFCURVE",
"370 799 QCURVE SMOOTH",
"370 825 OFFCURVE",
"323 856 OFFCURVE",
"279 856 QCURVE SMOOTH",
"201 856 OFFCURVE",
"88 728 OFFCURVE",
"88 650 QCURVE SMOOTH",
"88 608 OFFCURVE",
"119 531 OFFCURVE",
"163 474 QCURVE SMOOTH",
"222 398 OFFCURVE",
"257 316 OFFCURVE",
"265 268 QCURVE",
"284 267 LINE"
);
},
{
closed = 1;
nodes = (
"237 51 OFFCURVE",
"265 20 QCURVE",
"273 20 LINE",
"324 59 OFFCURVE",
"353 97 OFFCURVE",
"353 111 QCURVE SMOOTH",
"353 131 OFFCURVE",
"314 168 OFFCURVE",
"278 191 QCURVE",
"269 191 LINE",
"261 187 OFFCURVE",
"206 128 OFFCURVE",
"186 100 QCURVE",
"186 91 LINE"
);
}
);
width = 476;
}
);
note = QuestionmarkArabic;
unicode = 061F;
},
{
glyphname = NumberSign;
lastChange = "2019-08-09 22:57:09 +0000";
layers = (
{
layerId = "5E96EFD4-BDA9-4728-9E21-55349679CE65";
paths = (
{
closed = 1;
nodes = (
"1365 527 OFFCURVE",
"1263 359 OFFCURVE",
"1245 291 QCURVE",
"1203 252 LINE",
"1140 188 OFFCURVE",
"744 116 OFFCURVE",
"496 116 QCURVE SMOOTH",
"399 116 OFFCURVE",
"157 136 OFFCURVE",
"116 147 QCURVE",
"110 140 LINE",
"104 109 OFFCURVE",
"104 81 QCURVE SMOOTH",
"104 47 OFFCURVE",
"174 16 OFFCURVE",
"354 0 OFFCURVE",
"444 0 QCURVE SMOOTH",
"636 0 OFFCURVE",
"1010 84 OFFCURVE",
"1141 156 QCURVE SMOOTH",
"1163 169 OFFCURVE",
"1192 178 OFFCURVE",
"1212 178 QCURVE SMOOTH",
"1232 178 OFFCURVE",
"1272 156 QCURVE SMOOTH",
"1295 144 OFFCURVE",
"1308 144 QCURVE SMOOTH",
"1337 144 OFFCURVE",
"1393 229 OFFCURVE",
"1393 259 QCURVE SMOOTH",
"1393 283 OFFCURVE",
"1361 300 QCURVE SMOOTH",
"1334 314 LINE SMOOTH",
"1312 327 OFFCURVE",
"1312 345 QCURVE SMOOTH",
"1312 385 OFFCURVE",
"1370 438 QCURVE SMOOTH",
"1379 446 OFFCURVE",
"1420 556 OFFCURVE",
"1422 567 QCURVE",
"1413 570 LINE"
);
},
{
closed = 1;
nodes = (
"865 279 LINE"
);
}
);
width = 1527;
}
);
note = NumberSign;
unicode = 0600;
},
{
glyphname = AsteriskArabic;
lastChange = "2019-08-09 22:57:09 +0000";
layers = (
{
layerId = "5E96EFD4-BDA9-4728-9E21-55349679CE65";
paths = (
{
closed = 1;
nodes = (
"271 394 OFFCURVE",
"250 394 QCURVE SMOOTH",
"235 394 OFFCURVE",
"235 365 QCURVE SMOOTH",
"235 327 OFFCURVE",
"252 276 OFFCURVE",
"259 276 QCURVE SMOOTH",
"271 276 OFFCURVE",
"271 336 QCURVE SMOOTH"
);
},
{
closed = 1;
nodes = (
"369 359 OFFCURVE",
"357 359 QCURVE SMOOTH",
"340 359 OFFCURVE",
"288 289 OFFCURVE",
"288 271 QCURVE SMOOTH",
"288 266 OFFCURVE",
"292 266 QCURVE SMOOTH",
"303 267 OFFCURVE",
"369 329 OFFCURVE",
"369 345 QCURVE SMOOTH"
);
},
{
closed = 1;
nodes = (
"140 344 OFFCURVE",
"140 331 QCURVE SMOOTH",
"140 314 OFFCURVE",
"210 261 OFFCURVE",
"229 261 QCURVE SMOOTH",
"233 261 OFFCURVE",
"233 266 QCURVE SMOOTH",
"233 277 OFFCURVE",
"169 344 OFFCURVE",
"154 344 QCURVE SMOOTH"
);
},
{
closed = 1;
nodes = (
"419 228 OFFCURVE",
"419 250 QCURVE SMOOTH",
"419 264 OFFCURVE",
"388 264 QCURVE SMOOTH",
"355 263 OFFCURVE",
"302 247 OFFCURVE",
"302 240 QCURVE SMOOTH",
"302 228 OFFCURVE",
"363 228 QCURVE SMOOTH"
);
},
{
closed = 1;
nodes = (
"105 245 OFFCURVE",
"105 224 QCURVE SMOOTH",
"105 209 OFFCURVE",
"136 209 QCURVE SMOOTH",
"173 210 OFFCURVE",
"222 226 OFFCURVE",
"222 234 QCURVE SMOOTH",
"222 245 OFFCURVE",
"163 245 QCURVE SMOOTH"
);
},
{
closed = 1;
nodes = (
"386 130 OFFCURVE",
"386 143 QCURVE SMOOTH",
"386 159 OFFCURVE",
"314 212 OFFCURVE",
"297 212 QCURVE SMOOTH",
"292 212 OFFCURVE",
"292 208 QCURVE SMOOTH",
"292 196 OFFCURVE",
"354 130 OFFCURVE",
"372 130 QCURVE SMOOTH"
);
},
{
closed = 1;
nodes = (
"156 113 OFFCURVE",
"169 113 QCURVE SMOOTH",
"185 114 OFFCURVE",
"237 185 OFFCURVE",
"237 202 QCURVE SMOOTH",
"237 208 OFFCURVE",
"234 208 QCURVE SMOOTH",
"223 208 OFFCURVE",
"156 144 OFFCURVE",
"156 127 QCURVE SMOOTH"
);
},
{
closed = 1;
nodes = (
"254 80 OFFCURVE",
"275 80 QCURVE SMOOTH",
"290 80 OFFCURVE",
"290 109 QCURVE SMOOTH",
"290 143 OFFCURVE",
"272 197 OFFCURVE",
"266 197 QCURVE SMOOTH",
"254 197 OFFCURVE",
"254 136 QCURVE SMOOTH"
);
}
);
width = 525;
}
);
note = AsteriskArabic;
unicode = 066D;
},
{
glyphname = Sanah;
lastChange = "2019-08-09 22:57:09 +0000";
layers = (
{
layerId = "5E96EFD4-BDA9-4728-9E21-55349679CE65";
paths = (
{
closed = 1;
nodes = (
"593 103 OFFCURVE",
"543 120 QCURVE",
"536 123 OFFCURVE",
"525 123 QCURVE SMOOTH",
"504 123 OFFCURVE",
"487 100 QCURVE",
"452 60 LINE SMOOTH",
"434 40 OFFCURVE",
"398 18 OFFCURVE",
"369 18 QCURVE SMOOTH",
"347 18 OFFCURVE",
"310 26 OFFCURVE",
"290 26 QCURVE SMOOTH",
"178 26 OFFCURVE",
"105 -165 QCURVE",
"123 -174 LINE",
"150 -135 OFFCURVE",
"193 -107 OFFCURVE",
"219 -107 QCURVE SMOOTH",
"231 -107 OFFCURVE",
"259 -114 QCURVE SMOOTH",
"288 -121 OFFCURVE",
"307 -121 QCURVE SMOOTH",
"337 -121 OFFCURVE",
"390 -88 OFFCURVE",
"433 -33 QCURVE SMOOTH",
"458 -1 OFFCURVE",
"476 13 OFFCURVE",
"484 13 QCURVE SMOOTH",
"495 13 OFFCURVE",
"516 3 QCURVE SMOOTH",
"572 -21 OFFCURVE",
"642 -21 QCURVE SMOOTH",
"846 -21 OFFCURVE",
"1105 186 QCURVE SMOOTH",
"1151 222 OFFCURVE",
"1184 230 QCURVE",
"1205 263 OFFCURVE",
"1227 327 QCURVE",
"1224 336 LINE",
"1215 334 OFFCURVE",
"1184 314 OFFCURVE",
"1115 260 QCURVE SMOOTH",
"1024 188 OFFCURVE",
"775 103 OFFCURVE",
"659 103 QCURVE SMOOTH"
);
},
{
closed = 1;
nodes = (
"610 323 LINE"
);
}
);
width = 1333;
}
);
note = Sanah;
unicode = 0601;
},
{
glyphname = Footnote;
lastChange = "2019-08-09 22:57:09 +0000";
layers = (
{
layerId = "5E96EFD4-BDA9-4728-9E21-55349679CE65";
paths = (
{
closed = 1;
nodes = (
"428 151 OFFCURVE",
"428 200 QCURVE SMOOTH",
"428 257 OFFCURVE",
"374 323 OFFCURVE",
"323 323 QCURVE SMOOTH",
"280 323 OFFCURVE",
"187 250 OFFCURVE",
"132 143 OFFCURVE",
"132 101 QCURVE SMOOTH",
"132 0 OFFCURVE",
"301 0 QCURVE SMOOTH",
"604 0 OFFCURVE",
"1159 97 OFFCURVE",
"1348 185 QCURVE",
"1375 236 OFFCURVE",
"1379 278 QCURVE",
"1369 280 LINE",
"997 126 OFFCURVE",
"411 104 QCURVE"
);
},
{
closed = 1;
nodes = (
"367 104 LINE SMOOTH",
"279 104 OFFCURVE",
"183 128 OFFCURVE",
"183 163 QCURVE SMOOTH",
"183 193 OFFCURVE",
"238 239 OFFCURVE",
"275 239 QCURVE SMOOTH",
"387 239 OFFCURVE",
"387 110 QCURVE SMOOTH",
"387 104 LINE"
);
},
{
closed = 1;
nodes = (
"789 319 LINE"
);
}
);
width = 1493;
}
);
note = Footnote;
unicode = 0602;
},
{
glyphname = Safhah;
lastChange = "2019-08-09 22:57:09 +0000";
layers = (
{
layerId = "5E96EFD4-BDA9-4728-9E21-55349679CE65";
paths = (
{
closed = 1;
nodes = (
"1094 220 OFFCURVE",
"931 141 OFFCURVE",
"839 141 QCURVE",
"806 143 LINE",
"870 228 OFFCURVE",
"971 302 OFFCURVE",
"1026 302 QCURVE SMOOTH",
"1055 302 OFFCURVE",
"1094 278 OFFCURVE",
"1094 259 QCURVE SMOOTH"
);
},
{
closed = 1;
nodes = (
"490 -42 OFFCURVE",
"656 72 QCURVE SMOOTH",
"662 77 OFFCURVE",
"669 77 QCURVE SMOOTH",
"671 77 OFFCURVE",
"677 74 OFFCURVE",
"679 72 QCURVE SMOOTH",
"733 42 OFFCURVE",
"790 28 OFFCURVE",
"822 28 QCURVE SMOOTH",
"885 28 OFFCURVE",
"996 72 OFFCURVE",
"1088 151 OFFCURVE",
"1184 306 OFFCURVE",
"1184 366 QCURVE SMOOTH",
"1184 394 OFFCURVE",
"1145 430 OFFCURVE",
"1108 430 QCURVE SMOOTH",
"1035 430 OFFCURVE",
"875 304 OFFCURVE",
"763 156 QCURVE",
"748 161 OFFCURVE",
"714 178 OFFCURVE",
"701 178 QCURVE SMOOTH",
"688 178 OFFCURVE",
"640 137 OFFCURVE",
"603 111 QCURVE SMOOTH",
"523 54 OFFCURVE",
"250 -15 OFFCURVE",
"110 -15 QCURVE",
"104 -38 LINE",
"149 -42 OFFCURVE",
"187 -42 QCURVE SMOOTH"
);
},
{
closed = 1;
nodes = (
"385 305 LINE"
);
}
);
width = 1331;
}
);
note = Safhah;
unicode = 0603;
},
{
glyphname = DateSeparatorArabic;
lastChange = "2019-08-09 22:57:09 +0000";
layers = (
{
layerId = "5E96EFD4-BDA9-4728-9E21-55349679CE65";
paths = (
{
closed = 1;
nodes = (
"390 417 LINE",
"310 370 OFFCURVE",
"144 126 OFFCURVE",
"114 1 QCURVE",
"133 -5 LINE",
"172 76 OFFCURVE",
"254 176 OFFCURVE",
"346 242 QCURVE SMOOTH",
"357 249 OFFCURVE",
"374 266 OFFCURVE",
"378 281 QCURVE SMOOTH",
"381 296 OFFCURVE",
"387 314 QCURVE SMOOTH",
"393 339 OFFCURVE",
"406 394 OFFCURVE",
"406 407 QCURVE"
);
}
);
width = 529;
}
);
note = DateSeparatorArabic;
unicode = 060D;
},
{
glyphname = VerseSign;
lastChange = "2019-08-09 22:57:09 +0000";
layers = (
{
layerId = "5E96EFD4-BDA9-4728-9E21-55349679CE65";
paths = (
{
closed = 1;
nodes = (
"536 168 OFFCURVE",
"536 222 QCURVE SMOOTH",
"536 288 OFFCURVE",
"455 373 OFFCURVE",
"381 373 QCURVE SMOOTH",
"301 373 OFFCURVE",
"114 208 OFFCURVE",
"114 119 QCURVE SMOOTH",
"114 55 OFFCURVE",
"266 0 OFFCURVE",
"411 0 QCURVE SMOOTH",
"730 0 OFFCURVE",
"1246 91 OFFCURVE",
"1447 185 QCURVE",
"1461 213 OFFCURVE",
"1476 260 OFFCURVE",
"1478 278 QCURVE",
"1468 280 LINE",
"1286 205 OFFCURVE",
"802 115 OFFCURVE",
"509 104 QCURVE"
);
},
{
closed = 1;
nodes = (
"467 104 LINE SMOOTH",
"370 104 OFFCURVE",
"256 117 OFFCURVE",
"182 146 OFFCURVE",
"182 185 QCURVE SMOOTH",
"182 226 OFFCURVE",
"262 279 OFFCURVE",
"311 279 QCURVE SMOOTH",
"394 279 OFFCURVE",
"485 191 OFFCURVE",
"485 110 QCURVE SMOOTH",
"485 104 LINE"
);
}
);
width = 1583;
}
);
note = VerseSign;
unicode = 060E;
},
{
glyphname = Misra;
lastChange = "2019-08-09 22:57:09 +0000";
layers = (
{
layerId = "5E96EFD4-BDA9-4728-9E21-55349679CE65";
paths = (
{
closed = 1;
nodes = (
"200 -313 OFFCURVE",
"301 -341 OFFCURVE",
"356 -341 QCURVE SMOOTH",
"551 -341 OFFCURVE",
"805 -89 OFFCURVE",
"805 115 QCURVE SMOOTH",
"805 212 OFFCURVE",
"698 323 OFFCURVE",
"620 323 QCURVE SMOOTH",
"508 323 OFFCURVE",
"300 128 OFFCURVE",
"195 -95 QCURVE",
"164 -64 OFFCURVE",
"129 18 OFFCURVE",
"129 68 QCURVE SMOOTH",
"129 181 OFFCURVE",
"270 359 OFFCURVE",
"484 481 QCURVE SMOOTH",
"505 494 LINE",
"520 501 OFFCURVE",
"560 563 OFFCURVE",
"565 578 QCURVE",
"552 589 LINE",
"524 569 OFFCURVE",
"456 525 OFFCURVE",
"428 511 QCURVE SMOOTH",
"408 500 LINE",
"397 496 OFFCURVE",
"376 493 OFFCURVE",
"364 493 QCURVE SMOOTH",
"316 493 OFFCURVE",
"250 535 OFFCURVE",
"250 567 QCURVE SMOOTH",
"250 601 OFFCURVE",
"316 653 OFFCURVE",
"362 653 QCURVE SMOOTH",
"380 653 OFFCURVE",
"413 643 OFFCURVE",
"426 630 QCURVE",
"435 629 LINE",
"451 638 OFFCURVE",
"463 671 OFFCURVE",
"463 685 QCURVE SMOOTH",
"463 711 OFFCURVE",
"424 743 OFFCURVE",
"395 743 QCURVE SMOOTH",
"323 743 OFFCURVE",
"144 543 OFFCURVE",
"144 477 QCURVE SMOOTH",
"144 438 OFFCURVE",
"191 379 OFFCURVE",
"231 367 QCURVE",
"133 284 OFFCURVE",
"28 82 OFFCURVE",
"28 -31 QCURVE SMOOTH",
"28 -105 OFFCURVE",
"80 -221 OFFCURVE",
"125 -260 QCURVE",
"107 -310 OFFCURVE",
"85 -377 OFFCURVE",
"80 -397 QCURVE",
"104 -403 LINE",
"118 -374 OFFCURVE",
"145 -313 OFFCURVE",
"158 -286 QCURVE"
);
},
{
closed = 1;
nodes = (
"763 -31 OFFCURVE",
"562 -172 OFFCURVE",
"413 -172 QCURVE SMOOTH",
"306 -172 OFFCURVE",
"233 -125 QCURVE",
"292 7 OFFCURVE",
"490 189 OFFCURVE",
"595 189 QCURVE SMOOTH",
"669 189 OFFCURVE",
"763 123 OFFCURVE",
"763 64 QCURVE SMOOTH"
);
}
);
width = 872;
}
);
note = Misra;
unicode = 060F;
},
{
glyphname = AyahEnd;
lastChange = "2019-08-09 22:57:09 +0000";
layers = (
{
layerId = "5E96EFD4-BDA9-4728-9E21-55349679CE65";
paths = (
{
closed = 1;
nodes = (
"1158 1160 OFFCURVE",
"1091 1216 OFFCURVE",
"1044 1244 QCURVE",
"1067 1248 OFFCURVE",
"1089 1272 OFFCURVE",
"1089 1290 QCURVE SMOOTH",
"1089 1313 OFFCURVE",
"1053 1342 OFFCURVE",
"1029 1342 QCURVE SMOOTH",
"1022 1342 OFFCURVE",
"1008 1340 OFFCURVE",
"1001 1337 QCURVE",
"1004 1343 OFFCURVE",
"1009 1360 OFFCURVE",
"1009 1370 QCURVE SMOOTH",
"1009 1400 OFFCURVE",
"968 1444 OFFCURVE",
"934 1444 QCURVE",
"931 1498 OFFCURVE",
"889 1563 OFFCURVE",
"861 1563 QCURVE SMOOTH",
"833 1563 OFFCURVE",
"793 1496 OFFCURVE",
"789 1444 QCURVE",
"756 1444 OFFCURVE",
"714 1400 OFFCURVE",
"714 1370 QCURVE SMOOTH",
"714 1360 OFFCURVE",
"720 1343 OFFCURVE",
"723 1337 QCURVE",
"715 1340 OFFCURVE",
"701 1342 OFFCURVE",
"694 1342 QCURVE SMOOTH",
"670 1342 OFFCURVE",
"635 1313 OFFCURVE",
"635 1290 QCURVE SMOOTH",
"635 1272 OFFCURVE",
"657 1248 OFFCURVE",
"679 1244 QCURVE",
"622 1210 OFFCURVE",
"566 1158 OFFCURVE",
"563 1140 QCURVE",
"412 1057 OFFCURVE",
"246 771 OFFCURVE",
"246 597 QCURVE SMOOTH",
"246 428 OFFCURVE",
"407 147 OFFCURVE",
"693 -13 OFFCURVE",
"863 -13 QCURVE SMOOTH",
"1033 -13 OFFCURVE",
"1316 148 OFFCURVE",
"1478 431 OFFCURVE",
"1478 601 QCURVE SMOOTH",
"1478 768 OFFCURVE",
"1308 1059 OFFCURVE",
"1161 1139 QCURVE"
);
},
{
closed = 1;
nodes = (
"698 11 OFFCURVE",
"424 165 OFFCURVE",
"271 433 OFFCURVE",
"271 597 QCURVE SMOOTH",
"271 766 OFFCURVE",
"429 1038 OFFCURVE",
"705 1193 OFFCURVE",
"858 1193 QCURVE SMOOTH",
"1019 1193 OFFCURVE",
"1294 1035 OFFCURVE",
"1453 761 OFFCURVE",
"1453 604 QCURVE SMOOTH",
"1453 439 OFFCURVE",
"1298 167 OFFCURVE",
"1026 11 OFFCURVE",
"862 11 QCURVE SMOOTH"
);
},
{
closed = 1;
nodes = (
"717 1117 OFFCURVE",
"479 982 OFFCURVE",
"345 744 OFFCURVE",
"345 598 QCURVE SMOOTH",
"345 455 OFFCURVE",
"480 222 OFFCURVE",
"720 86 OFFCURVE",
"862 86 QCURVE SMOOTH",
"1004 86 OFFCURVE",
"1245 222 OFFCURVE",
"1379 459 OFFCURVE",
"1379 602 QCURVE SMOOTH",
"1379 741 OFFCURVE",
"1240 979 OFFCURVE",
"1001 1117 OFFCURVE",
"861 1117 QCURVE SMOOTH"
);
},
{
closed = 1;
nodes = (
"729 111 OFFCURVE",
"505 239 OFFCURVE",
"379 462 OFFCURVE",
"379 598 QCURVE SMOOTH",
"379 740 OFFCURVE",
"508 968 OFFCURVE",
"730 1093 OFFCURVE",
"861 1093 QCURVE SMOOTH",
"991 1093 OFFCURVE",
"1215 960 OFFCURVE",
"1347 733 OFFCURVE",
"1347 602 QCURVE SMOOTH",
"1347 465 OFFCURVE",
"1220 240 OFFCURVE",
"996 111 OFFCURVE",
"862 111 QCURVE SMOOTH"
);
},
{
closed = 1;
nodes = (
"798 1245 OFFCURVE",
"776 1291 OFFCURVE",
"763 1310 QCURVE SMOOTH",
"741 1339 LINE SMOOTH",
"731 1352 OFFCURVE",
"731 1370 QCURVE SMOOTH",
"731 1391 OFFCURVE",
"759 1426 OFFCURVE",
"787 1426 QCURVE SMOOTH",
"819 1426 OFFCURVE",
"849 1352 OFFCURVE",
"854 1242 QCURVE",
"847 1228 OFFCURVE",
"821 1218 OFFCURVE",
"804 1216 QCURVE"
);
},
{
closed = 1;
nodes = (
"597 1158 LINE",
"611 1175 OFFCURVE",
"677 1224 OFFCURVE",
"715 1247 OFFCURVE",
"721 1264 QCURVE",
"719 1266 LINE",
"703 1259 OFFCURVE",
"686 1259 QCURVE SMOOTH",
"674 1259 OFFCURVE",
"650 1271 OFFCURVE",
"650 1287 QCURVE SMOOTH",
"650 1301 OFFCURVE",
"672 1320 OFFCURVE",
"692 1320 QCURVE SMOOTH",
"724 1320 OFFCURVE",
"773 1262 OFFCURVE",
"787 1214 QCURVE",
"736 1207 OFFCURVE",
"635 1175 OFFCURVE",
"600 1157 QCURVE"
);
},
{
closed = 1;
nodes = (
"903 1218 OFFCURVE",
"876 1228 OFFCURVE",
"870 1242 QCURVE",
"875 1352 OFFCURVE",
"904 1426 OFFCURVE",
"937 1426 QCURVE SMOOTH",
"964 1426 OFFCURVE",
"992 1391 OFFCURVE",
"992 1370 QCURVE SMOOTH",
"992 1352 OFFCURVE",
"982 1339 QCURVE SMOOTH",
"960 1310 LINE SMOOTH",
"947 1291 OFFCURVE",
"925 1245 OFFCURVE",
"919 1216 QCURVE"
);
},
{
closed = 1;
nodes = (
"1125 1156 LINE",
"1087 1175 OFFCURVE",
"981 1208 OFFCURVE",
"937 1214 QCURVE",
"950 1262 OFFCURVE",
"1000 1320 OFFCURVE",
"1031 1320 QCURVE SMOOTH",
"1051 1320 OFFCURVE",
"1073 1301 OFFCURVE",
"1073 1287 QCURVE SMOOTH",
"1073 1271 OFFCURVE",
"1049 1259 OFFCURVE",
"1038 1259 QCURVE SMOOTH",
"1021 1259 OFFCURVE",
"1004 1266 QCURVE",
"1003 1264 LINE",
"1008 1247 OFFCURVE",
"1047 1224 OFFCURVE",
"1114 1174 OFFCURVE",
"1127 1157 QCURVE"
);
},
{
closed = 1;
nodes = (
"811 1477 OFFCURVE",
"841 1549 OFFCURVE",
"861 1549 QCURVE SMOOTH",
"881 1549 OFFCURVE",
"912 1473 OFFCURVE",
"912 1440 QCURVE",
"893 1435 OFFCURVE",
"868 1396 OFFCURVE",
"864 1369 QCURVE",
"859 1369 LINE",
"855 1396 OFFCURVE",
"831 1435 OFFCURVE",
"811 1440 QCURVE"
);
},
{
closed = 1;
nodes = (
"581 453 LINE"
);
},
{
closed = 1;
nodes = (
"860 453 LINE"
);
},
{
closed = 1;
nodes = (
"1140 453 LINE"
);
},
{
closed = 1;
nodes = (
"721 453 LINE"
);
},
{
closed = 1;
nodes = (
"1000 453 LINE"
);
}
);
width = 1724;
}
);
note = AyahEnd;
unicode = 06DD;
},
{
glyphname = OrnateLeftParenthesis;
lastChange = "2019-08-09 22:57:09 +0000";
layers = (
{
layerId = "5E96EFD4-BDA9-4728-9E21-55349679CE65";
paths = (
{
closed = 1;
nodes = (
"486 494 OFFCURVE",
"412 378 OFFCURVE",
"383 346 OFFCURVE",
"383 336 QCURVE SMOOTH",
"383 316 OFFCURVE",
"451 287 OFFCURVE",
"519 285 QCURVE",
"563 97 OFFCURVE",
"743 -213 OFFCURVE",
"956 -389 OFFCURVE",
"993 -389 QCURVE SMOOTH",
"1000 -389 OFFCURVE",
"1009 -380 OFFCURVE",
"1009 -373 QCURVE SMOOTH",
"1009 -361 OFFCURVE",
"969 -342 OFFCURVE",
"871 -231 OFFCURVE",
"746 -22 OFFCURVE",
"648 210 OFFCURVE",
"635 291 QCURVE",
"690 299 OFFCURVE",
"741 329 OFFCURVE",
"741 336 QCURVE SMOOTH",
"741 348 OFFCURVE",
"690 395 OFFCURVE",
"617 490 OFFCURVE",
"617 512 QCURVE SMOOTH",
"617 518 LINE",
"626 518 LINE SMOOTH",
"647 518 OFFCURVE",
"735 458 OFFCURVE",
"792 399 OFFCURVE",
"809 399 QCURVE SMOOTH",
"823 399 OFFCURVE",
"841 453 OFFCURVE",
"841 512 QCURVE",
"881 527 OFFCURVE",
"927 569 OFFCURVE",
"927 583 QCURVE SMOOTH",
"927 598 OFFCURVE",
"880 638 OFFCURVE",
"841 652 QCURVE",
"841 665 LINE SMOOTH",
"841 700 OFFCURVE",
"816 768 OFFCURVE",
"802 768 QCURVE SMOOTH",
"789 768 OFFCURVE",
"746 723 OFFCURVE",
"649 650 OFFCURVE",
"626 650 QCURVE SMOOTH",
"613 650 LINE",
"613 656 LINE SMOOTH",
"613 678 OFFCURVE",
"686 772 OFFCURVE",
"737 820 OFFCURVE",
"737 832 QCURVE SMOOTH",
"737 839 OFFCURVE",
"685 869 OFFCURVE",
"632 877 QCURVE",
"640 925 OFFCURVE",
"661 987 QCURVE SMOOTH",
"700 1102 OFFCURVE",
"834 1352 OFFCURVE",
"949 1495 OFFCURVE",
"1004 1530 OFFCURVE",
"1004 1535 QCURVE SMOOTH",
"1005 1541 LINE",
"1005 1548 OFFCURVE",
"997 1557 OFFCURVE",
"990 1557 QCURVE SMOOTH",
"952 1557 OFFCURVE",
"736 1379 OFFCURVE",
"559 1069 OFFCURVE",
"515 883 QCURVE",
"447 881 OFFCURVE",
"380 852 OFFCURVE",
"380 833 QCURVE SMOOTH",
"380 824 OFFCURVE",
"396 804 OFFCURVE",
"409 787 QCURVE SMOOTH",
"437 746 LINE SMOOTH",
"457 715 OFFCURVE",
"482 666 OFFCURVE",
"482 656 QCURVE SMOOTH",
"482 650 LINE",
"476 650 LINE SMOOTH",
"454 650 OFFCURVE",
"360 719 OFFCURVE",
"314 768 OFFCURVE",
"301 768 QCURVE SMOOTH",
"286 768 OFFCURVE",
"261 701 OFFCURVE",
"261 665 QCURVE SMOOTH",
"261 652 LINE",
"223 638 OFFCURVE",
"176 598 OFFCURVE",
"176 583 QCURVE SMOOTH",
"176 569 OFFCURVE",
"222 527 OFFCURVE",
"261 512 QCURVE",
"261 454 OFFCURVE",
"280 399 OFFCURVE",
"294 399 QCURVE SMOOTH",
"311 399 OFFCURVE",
"370 460 OFFCURVE",
"454 518 OFFCURVE",
"474 518 QCURVE SMOOTH",
"486 518 LINE",
"486 512 LINE SMOOTH"
);
},
{
closed = 1;
nodes = (
"776 461 OFFCURVE",
"678 523 OFFCURVE",
"655 530 OFFCURVE",
"655 537 QCURVE SMOOTH",
"655 549 OFFCURVE",
"702 566 OFFCURVE",
"702 583 QCURVE SMOOTH",
"702 599 OFFCURVE",
"655 617 OFFCURVE",
"655 627 QCURVE SMOOTH",
"655 636 OFFCURVE",
"681 647 OFFCURVE",
"767 697 OFFCURVE",
"799 728 QCURVE",
"813 702 OFFCURVE",
"820 664 OFFCURVE",
"820 638 QCURVE",
"850 627 OFFCURVE",
"877 600 OFFCURVE",
"884 584 QCURVE",
"878 569 OFFCURVE",
"850 540 OFFCURVE",
"820 529 QCURVE",
"819 496 OFFCURVE",
"811 453 OFFCURVE",
"802 438 QCURVE"
);
},
{
closed = 1;
nodes = (
"635 854 OFFCURVE",
"688 834 OFFCURVE",
"695 826 QCURVE",
"674 802 OFFCURVE",
"611 709 OFFCURVE",
"601 690 OFFCURVE",
"594 690 QCURVE SMOOTH",
"582 690 OFFCURVE",
"566 738 OFFCURVE",
"551 738 QCURVE SMOOTH",
"530 738 OFFCURVE",
"515 689 OFFCURVE",
"503 689 QCURVE SMOOTH",
"500 689 OFFCURVE",
"495 692 OFFCURVE",
"493 696 QCURVE",
"481 722 LINE SMOOTH",
"472 744 OFFCURVE",
"435 810 OFFCURVE",
"419 833 QCURVE",
"433 845 OFFCURVE",
"487 859 OFFCURVE",
"538 864 QCURVE",
"586 1091 OFFCURVE",
"831 1463 OFFCURVE",
"987 1545 QCURVE",
"990 1541 LINE",
"868 1462 OFFCURVE",
"619 1003 OFFCURVE",
"602 859 QCURVE"
);
},
{
closed = 1;
nodes = (
"468 615 OFFCURVE",
"516 666 OFFCURVE",
"549 666 QCURVE SMOOTH",
"585 666 OFFCURVE",
"633 615 OFFCURVE",
"633 582 QCURVE SMOOTH",
"633 549 OFFCURVE",
"583 498 OFFCURVE",
"549 498 QCURVE SMOOTH",
"515 498 OFFCURVE",
"468 549 OFFCURVE",
"468 582 QCURVE SMOOTH"
);
},
{
closed = 1;
nodes = (
"292 453 OFFCURVE",
"283 496 OFFCURVE",
"283 529 QCURVE",
"253 540 OFFCURVE",
"225 569 OFFCURVE",
"219 584 QCURVE",
"226 600 OFFCURVE",
"253 627 OFFCURVE",
"283 638 QCURVE",
"283 661 OFFCURVE",
"289 701 OFFCURVE",
"303 728 QCURVE",
"333 700 OFFCURVE",
"421 647 OFFCURVE",
"448 636 OFFCURVE",
"448 627 QCURVE SMOOTH",
"448 617 OFFCURVE",
"401 599 OFFCURVE",
"401 583 QCURVE SMOOTH",
"401 566 OFFCURVE",
"448 549 OFFCURVE",
"448 537 QCURVE SMOOTH",
"448 530 OFFCURVE",
"425 523 OFFCURVE",
"327 461 OFFCURVE",
"301 438 QCURVE"
);
},
{
closed = 1;
nodes = (
"438 358 OFFCURVE",
"476 424 OFFCURVE",
"485 447 QCURVE SMOOTH",
"497 472 LINE SMOOTH",
"499 477 OFFCURVE",
"503 479 OFFCURVE",
"507 479 QCURVE SMOOTH",
"519 479 OFFCURVE",
"534 430 OFFCURVE",
"555 430 QCURVE SMOOTH",
"569 430 OFFCURVE",
"585 478 OFFCURVE",
"598 478 QCURVE SMOOTH",
"604 478 OFFCURVE",
"614 459 OFFCURVE",
"678 367 OFFCURVE",
"699 342 QCURVE",
"692 334 OFFCURVE",
"638 314 OFFCURVE",
"605 309 QCURVE",
"622 163 OFFCURVE",
"875 -299 OFFCURVE",
"993 -373 QCURVE",
"991 -377 LINE",
"829 -292 OFFCURVE",
"583 93 OFFCURVE",
"542 304 QCURVE",
"490 309 OFFCURVE",
"436 323 OFFCURVE",
"423 336 QCURVE"
);
}
);
width = 1272;
}
);
note = OrnateLeftParenthesis;
unicode = FD3E;
},
{
glyphname = OrnateRightParenthesis;
lastChange = "2019-08-09 22:57:09 +0000";
layers = (
{
layerId = "5E96EFD4-BDA9-4728-9E21-55349679CE65";
paths = (
{
closed = 1;
nodes = (
"787 674 OFFCURVE",
"859 788 OFFCURVE",
"890 822 OFFCURVE",
"890 833 QCURVE SMOOTH",
"890 852 OFFCURVE",
"822 881 OFFCURVE",
"754 883 QCURVE",
"710 1069 OFFCURVE",
"533 1379 OFFCURVE",
"317 1557 OFFCURVE",
"279 1557 QCURVE SMOOTH",
"272 1557 OFFCURVE",
"264 1548 OFFCURVE",
"264 1541 QCURVE SMOOTH",
"264 1529 OFFCURVE",
"301 1510 OFFCURVE",
"396 1408 OFFCURVE",
"523 1198 OFFCURVE",
"624 960 OFFCURVE",
"637 877 QCURVE",
"583 869 OFFCURVE",
"532 839 OFFCURVE",
"532 832 QCURVE SMOOTH",
"532 820 OFFCURVE",
"583 773 OFFCURVE",
"656 679 OFFCURVE",
"656 657 QCURVE SMOOTH",
"656 650 LINE",
"646 650 LINE SMOOTH",
"626 650 OFFCURVE",
"538 710 OFFCURVE",
"481 769 OFFCURVE",
"464 769 QCURVE SMOOTH",
"450 769 OFFCURVE",
"432 715 OFFCURVE",
"432 657 QCURVE",
"391 641 OFFCURVE",
"345 599 OFFCURVE",
"345 585 QCURVE SMOOTH",
"345 570 OFFCURVE",
"393 530 OFFCURVE",
"432 516 QCURVE",
"432 503 LINE SMOOTH",
"432 468 OFFCURVE",
"456 400 OFFCURVE",
"470 400 QCURVE SMOOTH",
"484 400 OFFCURVE",
"526 446 OFFCURVE",
"623 518 OFFCURVE",
"646 518 QCURVE SMOOTH",
"659 518 LINE",
"659 512 LINE SMOOTH",
"659 490 OFFCURVE",
"587 396 OFFCURVE",
"535 348 OFFCURVE",
"535 336 QCURVE SMOOTH",
"535 329 OFFCURVE",
"588 299 OFFCURVE",
"641 291 QCURVE",
"627 211 OFFCURVE",
"534 -12 OFFCURVE",
"417 -215 OFFCURVE",
"317 -332 OFFCURVE",
"271 -360 OFFCURVE",
"267 -373 QCURVE",
"267 -380 OFFCURVE",
"276 -389 OFFCURVE",
"283 -389 QCURVE SMOOTH",
"321 -389 OFFCURVE",
"534 -213 OFFCURVE",
"714 97 OFFCURVE",
"758 285 QCURVE",
"825 287 OFFCURVE",
"893 316 OFFCURVE",
"893 336 QCURVE SMOOTH",
"893 346 OFFCURVE",
"858 386 OFFCURVE",
"790 495 OFFCURVE",
"790 512 QCURVE SMOOTH",
"790 518 LINE",
"797 518 LINE SMOOTH",
"819 518 OFFCURVE",
"912 449 OFFCURVE",
"959 400 OFFCURVE",
"972 400 QCURVE SMOOTH",
"987 400 OFFCURVE",
"1012 468 OFFCURVE",
"1012 503 QCURVE SMOOTH",
"1012 516 LINE",
"1049 530 OFFCURVE",
"1097 570 OFFCURVE",
"1097 585 QCURVE SMOOTH",
"1097 599 OFFCURVE",
"1051 641 OFFCURVE",
"1012 657 QCURVE",
"1012 714 OFFCURVE",
"992 769 OFFCURVE",
"978 769 QCURVE SMOOTH",
"961 769 OFFCURVE",
"903 708 OFFCURVE",
"819 650 OFFCURVE",
"799 650 QCURVE SMOOTH",
"787 650 LINE",
"787 656 LINE SMOOTH"
);
},
{
closed = 1;
nodes = (
"497 707 OFFCURVE",
"595 645 OFFCURVE",
"618 638 OFFCURVE",
"618 631 QCURVE SMOOTH",
"618 619 OFFCURVE",
"570 602 OFFCURVE",
"570 584 QCURVE SMOOTH",
"570 569 OFFCURVE",
"618 550 OFFCURVE",
"618 541 QCURVE SMOOTH",
"618 532 OFFCURVE",
"590 521 OFFCURVE",
"500 467 OFFCURVE",
"474 440 QCURVE",
"459 466 OFFCURVE",
"453 503 OFFCURVE",
"453 530 QCURVE",
"423 541 OFFCURVE",
"396 568 OFFCURVE",
"389 583 QCURVE",
"395 599 OFFCURVE",
"423 628 OFFCURVE",
"453 639 QCURVE",
"454 672 OFFCURVE",
"462 715 OFFCURVE",
"470 730 QCURVE"
);
},
{
closed = 1;
nodes = (
"638 314 OFFCURVE",
"584 334 OFFCURVE",
"578 342 QCURVE",
"599 367 OFFCURVE",
"662 459 OFFCURVE",
"671 478 OFFCURVE",
"679 478 QCURVE SMOOTH",
"691 478 OFFCURVE",
"707 430 OFFCURVE",
"722 430 QCURVE SMOOTH",
"743 430 OFFCURVE",
"758 479 OFFCURVE",
"769 479 QCURVE SMOOTH",
"772 479 OFFCURVE",
"778 477 OFFCURVE",
"780 472 QCURVE SMOOTH",
"791 447 LINE SMOOTH",
"801 424 OFFCURVE",
"837 358 OFFCURVE",
"854 336 QCURVE",
"840 323 OFFCURVE",
"786 309 OFFCURVE",
"735 304 QCURVE",
"687 77 OFFCURVE",
"442 -295 OFFCURVE",
"286 -377 QCURVE",
"283 -373 LINE",
"401 -299 OFFCURVE",
"654 163 OFFCURVE",
"670 309 QCURVE"
);
},
{
closed = 1;
nodes = (
"805 553 OFFCURVE",
"757 503 OFFCURVE",
"723 503 QCURVE SMOOTH",
"688 503 OFFCURVE",
"640 553 OFFCURVE",
"640 586 QCURVE SMOOTH",
"640 619 OFFCURVE",
"689 670 OFFCURVE",
"723 670 QCURVE SMOOTH",
"757 670 OFFCURVE",
"805 619 OFFCURVE",
"805 586 QCURVE SMOOTH"
);
},
{
closed = 1;
nodes = (
"980 715 OFFCURVE",
"990 672 OFFCURVE",
"990 639 QCURVE",
"1020 628 OFFCURVE",
"1048 599 OFFCURVE",
"1054 583 QCURVE",
"1047 568 OFFCURVE",
"1020 541 OFFCURVE",
"990 530 QCURVE",
"990 506 OFFCURVE",
"983 466 OFFCURVE",
"969 440 QCURVE",
"939 468 OFFCURVE",
"852 521 OFFCURVE",
"824 532 OFFCURVE",
"824 541 QCURVE SMOOTH",
"824 550 OFFCURVE",
"872 569 OFFCURVE",
"872 584 QCURVE SMOOTH",
"872 602 OFFCURVE",
"824 619 OFFCURVE",
"824 631 QCURVE SMOOTH",
"824 638 OFFCURVE",
"847 645 OFFCURVE",
"946 707 OFFCURVE",
"972 730 QCURVE"
);
},
{
closed = 1;
nodes = (
"834 810 OFFCURVE",
"797 744 OFFCURVE",
"788 722 QCURVE SMOOTH",
"776 696 LINE",
"774 692 OFFCURVE",
"769 689 OFFCURVE",
"766 689 QCURVE SMOOTH",
"754 689 OFFCURVE",
"739 738 OFFCURVE",
"718 738 QCURVE SMOOTH",
"703 738 OFFCURVE",
"688 690 OFFCURVE",
"675 690 QCURVE SMOOTH",
"668 690 OFFCURVE",
"658 709 OFFCURVE",
"595 802 OFFCURVE",
"574 826 QCURVE",
"581 834 OFFCURVE",
"635 854 OFFCURVE",
"667 859 QCURVE",
"650 1003 OFFCURVE",
"401 1462 OFFCURVE",
"279 1541 QCURVE",
"282 1545 LINE",
"438 1463 OFFCURVE",
"683 1091 OFFCURVE",
"731 864 QCURVE",
"782 859 OFFCURVE",
"837 845 OFFCURVE",
"850 833 QCURVE"
);
}
);
width = 1272;
}
);
note = OrnateRightParenthesis;
unicode = FD3F;
},
{
glyphname = uni200C;
lastChange = "2019-08-09 22:57:09 +0000";
layers = (
{
layerId = "5E96EFD4-BDA9-4728-9E21-55349679CE65";
paths = (
{
closed = 1;
nodes = (
"-32 1465 LINE",
"-32 161 LINE",
"32 161 LINE",
"32 1465 LINE"
);
}
);
width = 0;
}
);
note = uni200C;
unicode = 200C;
},
{
glyphname = uni200D;
lastChange = "2019-08-09 22:57:09 +0000";
layers = (
{
layerId = "5E96EFD4-BDA9-4728-9E21-55349679CE65";
paths = (
{
closed = 1;
nodes = (
"32 1202 LINE",
"149 1083 LINE",
"192 1126 LINE",
"42 1274 LINE",
"192 1422 LINE",
"149 1465 LINE",
"0 1315 LINE",
"-149 1465 LINE",
"-192 1422 LINE",
"-42 1274 LINE",
"-192 1126 LINE",
"-149 1083 LINE",
"-32 1202 LINE",
"-32 161 LINE",
"32 161 LINE"
);
}
);
width = 0;
}
);
note = uni200D;
unicode = 200D;
},
{
glyphname = uni200E;
lastChange = "2019-08-09 22:57:09 +0000";
layers = (
{
layerId = "5E96EFD4-BDA9-4728-9E21-55349679CE65";
paths = (
{
closed = 1;
nodes = (
"187 1465 LINE",
"144 1422 LINE",
"265 1308 LINE",
"-32 1308 LINE",
"-32 161 LINE",
"31 161 LINE",
"31 1246 LINE",
"265 1246 LINE",
"144 1131 LINE",
"187 1088 LINE",
"378 1276 LINE"
);
}
);
width = 0;
}
);
note = uni200E;
unicode = 200E;
},
{
glyphname = uni200F;
lastChange = "2019-08-09 22:57:09 +0000";
layers = (
{
layerId = "5E96EFD4-BDA9-4728-9E21-55349679CE65";
paths = (
{
closed = 1;
nodes = (
"31 1308 LINE",
"-266 1308 LINE",
"-145 1422 LINE",
"-188 1465 LINE",
"-379 1276 LINE",
"-188 1088 LINE",
"-145 1131 LINE",
"-266 1246 LINE",
"-32 1246 LINE",
"-32 161 LINE",
"31 161 LINE"
);
}
);
width = 0;
}
);
note = uni200F;
unicode = 200F;
},
{
glyphname = .notdef;
lastChange = "2019-08-09 22:57:09 +0000";
layers = (
{
layerId = "5E96EFD4-BDA9-4728-9E21-55349679CE65";
paths = (
{
closed = 1;
nodes = (
"71 1197 LINE",
"71 0 LINE",
"829 0 LINE",
"829 1197 LINE"
);
},
{
closed = 1;
nodes = (
"155 1113 LINE",
"745 1113 LINE",
"745 84 LINE",
"155 84 LINE"
);
}
);
width = 900;
}
);
note = .notdef;
},
{
glyphname = uniFDFC;
lastChange = "2019-08-09 22:57:09 +0000";
layers = (
{
layerId = "5E96EFD4-BDA9-4728-9E21-55349679CE65";
paths = (
{
closed = 1;
nodes = (
"1213 428 LINE",
"1201 391 OFFCURVE",
"1174 328 OFFCURVE",
"1158 295 QCURVE SMOOTH",
"1145 272 OFFCURVE",
"1125 248 OFFCURVE",
"1112 235 QCURVE SMOOTH",
"1091 213 OFFCURVE",
"1038 168 OFFCURVE",
"984 125 OFFCURVE",
"934 91 OFFCURVE",
"914 81 QCURVE",
"918 58 LINE",
"947 64 OFFCURVE",
"1003 78 OFFCURVE",
"1052 91 OFFCURVE",
"1090 104 OFFCURVE",
"1101 110 QCURVE",
"1126 129 OFFCURVE",
"1168 201 OFFCURVE",
"1204 288 OFFCURVE",
"1232 382 OFFCURVE",
"1242 424 QCURVE"
);
},
{
closed = 1;
nodes = (
"971 264 OFFCURVE",
"1025 305 OFFCURVE",
"1063 366 OFFCURVE",
"1087 435 OFFCURVE",
"1092 462 QCURVE",
"1068 466 LINE",
"1052 434 OFFCURVE",
"1014 391 OFFCURVE",
"981 391 QCURVE SMOOTH",
"944 391 OFFCURVE",
"904 429 OFFCURVE",
"884 485 OFFCURVE",
"881 553 OFFCURVE",
"881 583 QCURVE SMOOTH",
"883 660 OFFCURVE",
"890 773 OFFCURVE",
"899 855 OFFCURVE",
"907 908 OFFCURVE",
"911 925 QCURVE",
"889 929 LINE",
"878 900 OFFCURVE",
"862 852 OFFCURVE",
"850 807 OFFCURVE",
"840 762 OFFCURVE",
"837 737 QCURVE SMOOTH",
"832 686 OFFCURVE",
"824 605 OFFCURVE",
"820 537 OFFCURVE",
"818 473 OFFCURVE",
"818 438 QCURVE SMOOTH",
"818 398 OFFCURVE",
"832 334 OFFCURVE",
"859 288 OFFCURVE",
"904 264 OFFCURVE",
"937 264 QCURVE SMOOTH"
);
},
{
closed = 1;
nodes = (
"373 -276 OFFCURVE",
"481 -222 OFFCURVE",
"567 -132 OFFCURVE",
"629 -11 OFFCURVE",
"651 56 QCURVE SMOOTH",
"666 107 OFFCURVE",
"692 235 OFFCURVE",
"695 298 QCURVE SMOOTH",
"704 616 LINE SMOOTH",
"708 730 OFFCURVE",
"715 869 OFFCURVE",
"724 904 QCURVE",
"703 908 LINE",
"692 885 OFFCURVE",
"679 852 OFFCURVE",
"669 824 OFFCURVE",
"663 802 OFFCURVE",
"660 789 QCURVE SMOOTH",
"658 777 OFFCURVE",
"653 741 OFFCURVE",
"649 701 OFFCURVE",
"646 662 OFFCURVE",
"645 648 QCURVE SMOOTH",
"627 241 LINE SMOOTH",
"626 214 OFFCURVE",
"624 165 OFFCURVE",
"621 122 OFFCURVE",
"617 91 OFFCURVE",
"615 83 QCURVE SMOOTH",
"610 55 OFFCURVE",
"575 -20 OFFCURVE",
"508 -85 OFFCURVE",
"409 -131 OFFCURVE",
"340 -131 QCURVE SMOOTH",
"250 -131 OFFCURVE",
"150 -42 OFFCURVE",
"150 50 QCURVE SMOOTH",
"150 89 OFFCURVE",
"171 180 OFFCURVE",
"196 241 QCURVE",
"169 249 LINE",
"150 208 OFFCURVE",
"120 137 OFFCURVE",
"99 64 OFFCURVE",
"88 -13 OFFCURVE",
"88 -60 QCURVE SMOOTH",
"88 -112 OFFCURVE",
"119 -191 OFFCURVE",
"175 -247 OFFCURVE",
"255 -276 OFFCURVE",
"305 -276 QCURVE SMOOTH"
);
},
{
closed = 1;
nodes = (
"815 -186 OFFCURVE",
"835 -201 OFFCURVE",
"854 -218 OFFCURVE",
"871 -235 OFFCURVE",
"876 -240 QCURVE",
"882 -240 LINE",
"903 -225 OFFCURVE",
"938 -193 OFFCURVE",
"946 -178 QCURVE",
"960 -190 OFFCURVE",
"989 -216 OFFCURVE",
"998 -225 QCURVE",
"1004 -225 LINE",
"1030 -207 OFFCURVE",
"1069 -165 OFFCURVE",
"1069 -148 QCURVE SMOOTH",
"1069 -131 OFFCURVE",
"1037 -100 OFFCURVE",
"1006 -81 QCURVE",
"1000 -81 LINE",
"992 -84 OFFCURVE",
"957 -121 OFFCURVE",
"941 -140 QCURVE",
"934 -129 OFFCURVE",
"906 -108 OFFCURVE",
"886 -95 QCURVE",
"880 -95 LINE",
"875 -98 OFFCURVE",
"858 -114 OFFCURVE",
"837 -137 OFFCURVE",
"816 -163 OFFCURVE",
"810 -173 QCURVE",
"810 -180 LINE"
);
}
);
width = 1318;
}
);
note = uniFDFC;
unicode = FDFC;
},
{
glyphname = PlusArabic;
lastChange = "2019-08-09 22:57:09 +0000";
layers = (
{
layerId = "5E96EFD4-BDA9-4728-9E21-55349679CE65";
paths = (
{
closed = 1;
nodes = (
"518 334 LINE",
"304 334 LINE",
"304 539 LINE",
"261 539 LINE",
"261 334 LINE",
"50 334 LINE",
"50 291 LINE",
"261 291 LINE",
"261 85 LINE",
"304 85 LINE",
"304 291 LINE",
"518 291 LINE"
);
}
);
width = 567;
}
);
note = PlusArabic;
unicode = 002B;
},
{
glyphname = MinusArabic;
lastChange = "2019-08-09 22:57:09 +0000";
layers = (
{
layerId = "5E96EFD4-BDA9-4728-9E21-55349679CE65";
paths = (
{
closed = 1;
nodes = (
"518 334 LINE",
"50 334 LINE",
"50 291 LINE",
"518 291 LINE"
);
}
);
width = 567;
}
);
note = MinusArabic;
unicode = 2212;
},
{
glyphname = MultiplyArabic;
lastChange = "2019-08-09 22:57:09 +0000";
layers = (
{
layerId = "5E96EFD4-BDA9-4728-9E21-55349679CE65";
paths = (
{
closed = 1;
nodes = (
"313 312 LINE",
"485 484 LINE",
"455 514 LINE",
"283 342 LINE",
"110 514 LINE",
"81 484 LINE",
"253 312 LINE",
"82 140 LINE",
"111 110 LINE",
"283 282 LINE",
"455 110 LINE",
"486 140 LINE"
);
}
);
width = 567;
}
);
note = MultiplyArabic;
unicode = 00D7;
},
{
glyphname = DivideArabic;
lastChange = "2019-08-09 22:57:09 +0000";
layers = (
{
layerId = "5E96EFD4-BDA9-4728-9E21-55349679CE65";
paths = (
{
closed = 1;
nodes = (
"518 334 LINE",
"50 334 LINE",
"50 291 LINE",
"518 291 LINE"
);
},
{
closed = 1;
nodes = (
"241 467 OFFCURVE",
"278 430 QCURVE",
"285 430 LINE",
"342 471 OFFCURVE",
"342 495 QCURVE SMOOTH",
"342 511 OFFCURVE",
"314 538 OFFCURVE",
"288 555 QCURVE",
"281 555 LINE",
"275 551 OFFCURVE",
"232 503 OFFCURVE",
"221 488 QCURVE",
"221 481 LINE"
);
},
{
closed = 1;
nodes = (
"239 109 OFFCURVE",
"278 70 QCURVE",
"285 70 LINE",
"342 112 OFFCURVE",
"342 136 QCURVE SMOOTH",
"342 151 OFFCURVE",
"314 178 OFFCURVE",
"288 195 QCURVE",
"281 195 LINE",
"274 191 OFFCURVE",
"231 145 OFFCURVE",
"221 129 QCURVE",
"221 122 LINE"
);
}
);
width = 567;
}
);
note = DivideArabic;
unicode = 00F7;
},
{
glyphname = EqualArabic;
lastChange = "2019-08-09 22:57:09 +0000";
layers = (
{
layerId = "5E96EFD4-BDA9-4728-9E21-55349679CE65";
paths = (
{
closed = 1;
nodes = (
"518 416 LINE",
"50 416 LINE",
"50 373 LINE",
"518 373 LINE"
);
},
{
closed = 1;
nodes = (
"518 246 LINE",
"50 246 LINE",
"50 203 LINE",
"518 203 LINE"
);
}
);
width = 567;
}
);
note = EqualArabic;
unicode = 003D;
},
{
glyphname = uni25CC;
lastChange = "2019-08-09 22:57:09 +0000";
layers = (
{
layerId = "5E96EFD4-BDA9-4728-9E21-55349679CE65";
paths = (
{
closed = 1;
nodes = (
"176 271 OFFCURVE",
"205 271 QCURVE SMOOTH",
"237 271 OFFCURVE",
"237 301 QCURVE SMOOTH",
"237 332 OFFCURVE",
"205 332 QCURVE SMOOTH",
"176 332 OFFCURVE",
"176 301 QCURVE SMOOTH"
);
},
{
closed = 1;
nodes = (
"553 271 OFFCURVE",
"582 271 QCURVE SMOOTH",
"613 271 OFFCURVE",
"613 301 QCURVE SMOOTH",
"613 332 OFFCURVE",
"582 332 QCURVE SMOOTH",
"553 332 OFFCURVE",
"553 301 QCURVE SMOOTH"
);
},
{
closed = 1;
nodes = (
"364 458 OFFCURVE",
"395 458 QCURVE SMOOTH",
"424 458 OFFCURVE",
"424 490 QCURVE SMOOTH",
"424 520 OFFCURVE",
"395 520 QCURVE SMOOTH",
"364 520 OFFCURVE",
"364 490 QCURVE SMOOTH"
);
},
{
closed = 1;
nodes = (
"364 83 OFFCURVE",
"395 83 QCURVE SMOOTH",
"424 83 OFFCURVE",
"424 113 QCURVE SMOOTH",
"424 143 OFFCURVE",
"395 143 QCURVE SMOOTH",
"364 143 OFFCURVE",
"364 113 QCURVE SMOOTH"
);
},
{
closed = 1;
nodes = (
"529 365 OFFCURVE",
"559 365 QCURVE SMOOTH",
"588 365 OFFCURVE",
"588 396 QCURVE SMOOTH",
"588 425 OFFCURVE",
"559 425 QCURVE SMOOTH",
"529 425 OFFCURVE",
"529 396 QCURVE SMOOTH"
);
},
{
closed = 1;
nodes = (
"529 178 OFFCURVE",
"559 178 QCURVE SMOOTH",
"588 178 OFFCURVE",
"588 206 QCURVE SMOOTH",
"588 236 OFFCURVE",
"559 236 QCURVE SMOOTH",
"529 236 OFFCURVE",
"529 206 QCURVE SMOOTH"
);
},
{
closed = 1;
nodes = (
"200 365 OFFCURVE",
"229 365 QCURVE SMOOTH",
"261 365 OFFCURVE",
"261 396 QCURVE SMOOTH",
"261 425 OFFCURVE",
"229 425 QCURVE SMOOTH",
"200 425 OFFCURVE",
"200 396 QCURVE SMOOTH"
);
},
{
closed = 1;
nodes = (
"200 178 OFFCURVE",
"229 178 QCURVE SMOOTH",
"261 178 OFFCURVE",
"261 206 QCURVE SMOOTH",
"261 236 OFFCURVE",
"229 236 QCURVE SMOOTH",
"200 236 OFFCURVE",
"200 206 QCURVE SMOOTH"
);
},
{
closed = 1;
nodes = (
"271 436 OFFCURVE",
"299 436 QCURVE SMOOTH",
"330 436 OFFCURVE",
"330 466 QCURVE SMOOTH",
"330 496 OFFCURVE",
"299 496 QCURVE SMOOTH",
"271 496 OFFCURVE",
"271 466 QCURVE SMOOTH"
);
},
{
closed = 1;
nodes = (
"457 451 OFFCURVE",
"476 436 OFFCURVE",
"489 436 QCURVE SMOOTH",
"518 436 OFFCURVE",
"518 466 QCURVE SMOOTH",
"518 496 OFFCURVE",
"489 496 QCURVE SMOOTH",
"476 496 OFFCURVE",
"457 481 OFFCURVE",
"457 466 QCURVE SMOOTH"
);
},
{
closed = 1;
nodes = (
"271 107 OFFCURVE",
"299 107 QCURVE SMOOTH",
"330 107 OFFCURVE",
"330 136 QCURVE SMOOTH",
"330 167 OFFCURVE",
"299 167 QCURVE SMOOTH",
"271 167 OFFCURVE",
"271 136 QCURVE SMOOTH"
);
},
{
closed = 1;
nodes = (
"457 107 OFFCURVE",
"489 107 QCURVE SMOOTH",
"518 107 OFFCURVE",
"518 136 QCURVE SMOOTH",
"518 167 OFFCURVE",
"489 167 QCURVE SMOOTH",
"476 167 OFFCURVE",
"457 151 OFFCURVE",
"457 136 QCURVE SMOOTH"
);
},
{
closed = 1;
nodes = (
"391 647 LINE"
);
},
{
closed = 1;
nodes = (
"409 656 LINE"
);
},
{
closed = 1;
nodes = (
"391 -56 LINE"
);
},
{
closed = 1;
nodes = (
"409 -65 LINE"
);
},
{
closed = 1;
nodes = (
"303 647 LINE"
);
},
{
closed = 1;
nodes = (
"391 295 LINE"
);
},
{
closed = 1;
nodes = (
"391 278 LINE"
);
}
);
width = 789;
}
);
note = uni25CC;
unicode = 25CC;
},
{
glyphname = PercentArabic;
lastChange = "2019-08-09 22:57:09 +0000";
layers = (
{
layerId = "5E96EFD4-BDA9-4728-9E21-55349679CE65";
paths = (
{
closed = 1;
nodes = (
"427 670 LINE",
"337 498 OFFCURVE",
"226 270 OFFCURVE",
"106 3 QCURVE",
"149 -14 LINE",
"328 380 OFFCURVE",
"472 657 QCURVE"
);
},
{
closed = 1;
nodes = (
"130 519 OFFCURVE",
"158 488 QCURVE",
"166 488 LINE",
"237 541 OFFCURVE",
"237 570 QCURVE SMOOTH",
"237 589 OFFCURVE",
"203 622 OFFCURVE",
"169 644 QCURVE",
"162 644 LINE",
"153 638 OFFCURVE",
"102 583 OFFCURVE",
"87 561 QCURVE",
"87 553 LINE"
);
},
{
closed = 1;
nodes = (
"332 59 OFFCURVE",
"381 14 OFFCURVE",
"394 0 QCURVE",
"402 0 LINE",
"473 51 OFFCURVE",
"473 83 QCURVE SMOOTH",
"473 100 OFFCURVE",
"439 134 OFFCURVE",
"406 155 QCURVE",
"398 155 LINE",
"390 150 OFFCURVE",
"340 98 OFFCURVE",
"323 73 QCURVE",
"323 65 LINE"
);
}
);
width = 567;
}
);
note = PercentArabic;
unicode = 066A;
},
{
glyphname = PermilleArabic;
lastChange = "2019-08-09 22:57:09 +0000";
layers = (
{
layerId = "5E96EFD4-BDA9-4728-9E21-55349679CE65";
paths = (
{
closed = 1;
nodes = (
"130 521 OFFCURVE",
"158 488 QCURVE",
"166 488 LINE",
"237 541 OFFCURVE",
"237 570 QCURVE SMOOTH",
"237 589 OFFCURVE",
"203 622 OFFCURVE",
"169 644 QCURVE",
"162 644 LINE",
"153 638 OFFCURVE",
"102 583 OFFCURVE",
"87 561 QCURVE",
"87 553 LINE"
);
},
{
closed = 1;
nodes = (
"332 59 OFFCURVE",
"381 14 OFFCURVE",
"394 0 QCURVE",
"402 0 LINE",
"473 51 OFFCURVE",
"473 83 QCURVE SMOOTH",
"473 100 OFFCURVE",
"439 134 OFFCURVE",
"406 155 QCURVE",
"398 155 LINE",
"390 150 OFFCURVE",
"339 98 OFFCURVE",
"323 73 QCURVE",
"323 65 LINE"
);
},
{
closed = 1;
nodes = (
"539 59 OFFCURVE",
"588 14 OFFCURVE",
"600 0 QCURVE",
"608 0 LINE",
"679 53 OFFCURVE",
"679 83 QCURVE SMOOTH",
"679 100 OFFCURVE",
"646 134 OFFCURVE",
"613 155 QCURVE",
"604 155 LINE",
"593 147 OFFCURVE",
"543 94 OFFCURVE",
"529 73 QCURVE",
"529 65 LINE"
);
},
{
closed = 1;
nodes = (
"427 670 LINE",
"337 498 OFFCURVE",
"226 270 OFFCURVE",
"106 3 QCURVE",
"149 -14 LINE",
"328 380 OFFCURVE",
"472 657 QCURVE"
);
}
);
width = 767;
}
);
note = PermilleArabic;
unicode = 0609;
},
{
glyphname = Per10milleArabic;
lastChange = "2019-08-09 22:57:09 +0000";
layers = (
{
layerId = "5E96EFD4-BDA9-4728-9E21-55349679CE65";
paths = (
{
closed = 1;
nodes = (
"130 520 OFFCURVE",
"158 488 QCURVE",
"166 488 LINE",
"237 541 OFFCURVE",
"237 570 QCURVE SMOOTH",
"237 589 OFFCURVE",
"204 622 OFFCURVE",
"169 644 QCURVE",
"162 644 LINE",
"153 637 OFFCURVE",
"102 583 OFFCURVE",
"87 561 QCURVE",
"87 553 LINE"
);
},
{
closed = 1;
nodes = (
"332 59 OFFCURVE",
"381 14 OFFCURVE",
"394 0 QCURVE",
"402 0 LINE",
"473 51 OFFCURVE",
"473 83 QCURVE SMOOTH",
"473 100 OFFCURVE",
"439 134 OFFCURVE",
"406 155 QCURVE",
"398 155 LINE",
"390 150 OFFCURVE",
"341 98 OFFCURVE",
"323 73 QCURVE",
"323 65 LINE"
);
},
{
closed = 1;
nodes = (
"539 58 OFFCURVE",
"588 14 OFFCURVE",
"600 0 QCURVE",
"608 0 LINE",
"679 53 OFFCURVE",
"679 83 QCURVE SMOOTH",
"679 100 OFFCURVE",
"646 134 OFFCURVE",
"613 155 QCURVE",
"604 155 LINE",
"593 147 OFFCURVE",
"543 93 OFFCURVE",
"529 73 QCURVE",
"529 65 LINE"
);
},
{
closed = 1;
nodes = (
"779 32 OFFCURVE",
"807 0 QCURVE",
"815 0 LINE",
"886 53 OFFCURVE",
"886 83 QCURVE SMOOTH",
"886 100 OFFCURVE",
"852 134 OFFCURVE",
"818 155 QCURVE",
"811 155 LINE",
"802 150 OFFCURVE",
"750 94 OFFCURVE",
"736 73 QCURVE",
"736 65 LINE"
);
},
{
closed = 1;
nodes = (
"427 670 LINE",
"337 498 OFFCURVE",
"226 270 OFFCURVE",
"106 3 QCURVE",
"149 -14 LINE",
"328 380 OFFCURVE",
"472 657 QCURVE"
);
}
);
width = 973;
}
);
note = Per10milleArabic;
unicode = 060A;
},
{
glyphname = Samvat;
lastChange = "2019-08-09 22:57:09 +0000";
layers = (
{
layerId = "5E96EFD4-BDA9-4728-9E21-55349679CE65";
paths = (
{
closed = 1;
nodes = (
"2006 392 LINE SMOOTH",
"1999 377 OFFCURVE",
"1994 362 QCURVE",
"1984 355 OFFCURVE",
"1975 345 QCURVE SMOOTH",
"1949 314 LINE SMOOTH",
"1918 282 OFFCURVE",
"1831 240 OFFCURVE",
"1606 178 OFFCURVE",
"1283 127 OFFCURVE",
"859 91 OFFCURVE",
"585 91 QCURVE SMOOTH",
"443 91 OFFCURVE",
"170 107 OFFCURVE",
"127 118 QCURVE",
"121 111 LINE",
"118 99 OFFCURVE",
"114 81 OFFCURVE",
"114 68 QCURVE SMOOTH",
"114 13 OFFCURVE",
"228 -14 OFFCURVE",
"418 -30 OFFCURVE",
"571 -30 QCURVE SMOOTH",
"898 -30 OFFCURVE",
"1402 33 OFFCURVE",
"1734 137 OFFCURVE",
"1910 226 OFFCURVE",
"1927 227 QCURVE SMOOTH",
"1948 229 LINE",
"1968 229 OFFCURVE",
"2036 191 OFFCURVE",
"2050 191 QCURVE SMOOTH",
"2079 191 OFFCURVE",
"2135 279 OFFCURVE",
"2135 307 QCURVE SMOOTH",
"2135 320 OFFCURVE",
"2119 338 OFFCURVE",
"2103 347 QCURVE SMOOTH",
"2076 362 LINE SMOOTH",
"2053 375 OFFCURVE",
"2053 392 QCURVE SMOOTH",
"2053 422 OFFCURVE",
"2110 482 OFFCURVE",
"2168 482 QCURVE SMOOTH",
"2190 482 OFFCURVE",
"2228 447 OFFCURVE",
"2259 447 QCURVE SMOOTH",
"2313 447 OFFCURVE",
"2357 521 QCURVE",
"2375 515 OFFCURVE",
"2393 515 QCURVE SMOOTH",
"2444 515 OFFCURVE",
"2519 610 OFFCURVE",
"2541 706 QCURVE",
"2512 712 LINE",
"2496 660 OFFCURVE",
"2462 625 OFFCURVE",
"2441 625 QCURVE SMOOTH",
"2431 625 OFFCURVE",
"2410 629 OFFCURVE",
"2395 636 QCURVE",
"2385 634 LINE",
"2359 587 OFFCURVE",
"2320 554 OFFCURVE",
"2292 554 QCURVE SMOOTH",
"2274 554 OFFCURVE",
"2230 589 OFFCURVE",
"2202 589 QCURVE SMOOTH",
"2155 589 OFFCURVE",
"2057 499 OFFCURVE",
"2017 417 QCURVE SMOOTH"
);
},
{
closed = 1;
nodes = (
"440 367 LINE"
);
},
{
closed = 1;
nodes = (
"848 367 LINE"
);
},
{
closed = 1;
nodes = (
"1254 367 LINE"
);
},
{
closed = 1;
nodes = (
"1661 367 LINE"
);
},
{
closed = 1;
nodes = (
"644 367 LINE"
);
},
{
closed = 1;
nodes = (
"1051 367 LINE"
);
},
{
closed = 1;
nodes = (
"1457 367 LINE"
);
}
);
width = 2655;
}
);
note = Samvat;
unicode = 0604;
},
{
glyphname = uniFDFD;
lastChange = "2019-08-09 22:57:09 +0000";
layers = (
{
layerId = "5E96EFD4-BDA9-4728-9E21-55349679CE65";
paths = (
{
closed = 1;
nodes = (
"3324 -162 OFFCURVE",
"3293 -298 OFFCURVE",
"3279 -448 OFFCURVE",
"3276 -612 OFFCURVE",
"3276 -698 QCURVE SMOOTH",
"3276 -747 OFFCURVE",
"3277 -853 OFFCURVE",
"3279 -900 QCURVE",
"3314 -900 LINE",
"3318 -861 OFFCURVE",
"3325 -750 OFFCURVE",
"3331 -628 OFFCURVE",
"3338 -510 OFFCURVE",
"3342 -465 QCURVE SMOOTH",
"3349 -366 OFFCURVE",
"3363 -245 OFFCURVE",
"3377 -171 OFFCURVE",
"3395 -128 OFFCURVE",
"3405 -107 QCURVE SMOOTH",
"3427 -63 OFFCURVE",
"3509 -1 OFFCURVE",
"3608 42 OFFCURVE",
"3715 68 OFFCURVE",
"3763 77 QCURVE SMOOTH",
"3777 80 OFFCURVE",
"3790 86 OFFCURVE",
"3794 89 QCURVE SMOOTH",
"3811 99 OFFCURVE",
"3844 146 OFFCURVE",
"3871 199 OFFCURVE",
"3887 248 OFFCURVE",
"3887 262 QCURVE SMOOTH",
"3887 287 OFFCURVE",
"3849 302 QCURVE SMOOTH",
"3830 310 OFFCURVE",
"3790 322 OFFCURVE",
"3772 325 QCURVE",
"3790 352 OFFCURVE",
"3832 401 OFFCURVE",
"3883 438 OFFCURVE",
"3943 461 OFFCURVE",
"3978 461 QCURVE SMOOTH",
"3992 461 OFFCURVE",
"4018 456 OFFCURVE",
"4030 445 QCURVE SMOOTH",
"4040 437 OFFCURVE",
"4063 426 OFFCURVE",
"4081 426 QCURVE SMOOTH",
"4114 426 OFFCURVE",
"4163 462 OFFCURVE",
"4184 490 QCURVE",
"4193 481 OFFCURVE",
"4221 468 OFFCURVE",
"4238 468 QCURVE SMOOTH",
"4266 468 OFFCURVE",
"4302 497 OFFCURVE",
"4317 517 QCURVE",
"4330 508 OFFCURVE",
"4345 504 OFFCURVE",
"4353 504 QCURVE SMOOTH",
"4375 504 OFFCURVE",
"4410 530 OFFCURVE",
"4439 568 OFFCURVE",
"4461 611 OFFCURVE",
"4468 628 QCURVE SMOOTH",
"4476 647 OFFCURVE",
"4495 703 OFFCURVE",
"4502 740 QCURVE",
"4505 750 OFFCURVE",
"4510 775 OFFCURVE",
"4514 806 OFFCURVE",
"4519 846 OFFCURVE",
"4520 871 QCURVE SMOOTH",
"4521 888 OFFCURVE",
"4524 911 OFFCURVE",
"4526 927 OFFCURVE",
"4529 941 OFFCURVE",
"4531 950 QCURVE",
"4510 957 LINE",
"4494 932 OFFCURVE",
"4469 890 OFFCURVE",
"4454 852 OFFCURVE",
"4445 813 OFFCURVE",
"4445 789 QCURVE SMOOTH",
"4444 756 OFFCURVE",
"4439 703 OFFCURVE",
"4438 686 QCURVE SMOOTH",
"4432 644 OFFCURVE",
"4410 611 OFFCURVE",
"4386 611 QCURVE SMOOTH",
"4375 611 OFFCURVE",
"4357 618 OFFCURVE",
"4353 622 QCURVE",
"4353 629 OFFCURVE",
"4350 633 QCURVE",
"4329 632 LINE",
"4323 605 OFFCURVE",
"4294 574 OFFCURVE",
"4270 574 QCURVE SMOOTH",
"4256 574 OFFCURVE",
"4228 586 OFFCURVE",
"4218 600 QCURVE",
"4200 600 LINE",
"4189 569 OFFCURVE",
"4146 533 OFFCURVE",
"4114 533 QCURVE SMOOTH",
"4104 533 OFFCURVE",
"4088 540 OFFCURVE",
"4074 550 QCURVE SMOOTH",
"4064 557 OFFCURVE",
"4038 568 OFFCURVE",
"4020 568 QCURVE SMOOTH",
"3993 568 OFFCURVE",
"3929 548 OFFCURVE",
"3900 530 QCURVE SMOOTH",
"3866 508 OFFCURVE",
"3812 460 OFFCURVE",
"3764 402 OFFCURVE",
"3716 326 OFFCURVE",
"3689 276 QCURVE SMOOTH",
"3676 253 OFFCURVE",
"3656 207 OFFCURVE",
"3646 180 QCURVE",
"3588 152 OFFCURVE",
"3501 97 OFFCURVE",
"3433 33 OFFCURVE",
"3378 -48 OFFCURVE",
"3352 -103 QCURVE SMOOTH"
);
},
{
closed = 1;
nodes = (
"3248 365 OFFCURVE",
"3211 415 OFFCURVE",
"3211 457 QCURVE SMOOTH",
"3211 462 OFFCURVE",
"3211 471 OFFCURVE",
"3212 477 QCURVE",
"3188 481 LINE",
"3168 403 OFFCURVE",
"3103 332 OFFCURVE",
"3054 332 QCURVE SMOOTH",
"3020 332 OFFCURVE",
"2978 375 OFFCURVE",
"2978 417 QCURVE SMOOTH",
"2978 432 OFFCURVE",
"2980 447 QCURVE",
"2964 454 LINE",
"2953 440 OFFCURVE",
"2915 396 OFFCURVE",
"2864 341 OFFCURVE",
"2807 279 OFFCURVE",
"2750 220 OFFCURVE",
"2696 166 OFFCURVE",
"2675 146 QCURVE",
"2691 129 LINE",
"2712 143 OFFCURVE",
"2762 180 OFFCURVE",
"2813 220 OFFCURVE",
"2860 259 OFFCURVE",
"2880 277 QCURVE",
"2889 229 OFFCURVE",
"2956 173 OFFCURVE",
"3015 173 QCURVE SMOOTH",
"3065 173 OFFCURVE",
"3135 219 OFFCURVE",
"3153 250 QCURVE",
"3170 224 OFFCURVE",
"3216 207 OFFCURVE",
"3241 207 QCURVE SMOOTH",
"3287 207 OFFCURVE",
"3359 267 OFFCURVE",
"3382 311 QCURVE SMOOTH",
"3398 342 OFFCURVE",
"3418 405 OFFCURVE",
"3430 477 OFFCURVE",
"3437 560 OFFCURVE",
"3440 610 QCURVE SMOOTH",
"3442 644 OFFCURVE",
"3448 689 OFFCURVE",
"3452 707 QCURVE",
"3433 714 LINE",
"3399 657 OFFCURVE",
"3375 559 OFFCURVE",
"3375 520 QCURVE SMOOTH",
"3375 515 OFFCURVE",
"3375 496 OFFCURVE",
"3374 472 OFFCURVE",
"3373 447 OFFCURVE",
"3373 438 QCURVE",
"3368 407 OFFCURVE",
"3324 365 OFFCURVE",
"3287 365 QCURVE SMOOTH"
);
},
{
closed = 1;
nodes = (
"3120 864 OFFCURVE",
"3137 837 OFFCURVE",
"3157 837 QCURVE SMOOTH",
"3180 837 OFFCURVE",
"3212 870 OFFCURVE",
"3225 899 QCURVE",
"3229 896 OFFCURVE",
"3243 891 OFFCURVE",
"3250 891 QCURVE SMOOTH",
"3289 891 OFFCURVE",
"3328 955 OFFCURVE",
"3328 1000 QCURVE SMOOTH",
"3328 1011 LINE",
"3310 1008 LINE",
"3305 969 OFFCURVE",
"3287 942 OFFCURVE",
"3271 942 QCURVE SMOOTH",
"3263 942 OFFCURVE",
"3244 950 OFFCURVE",
"3239 960 QCURVE",
"3223 957 LINE",
"3213 918 OFFCURVE",
"3189 889 OFFCURVE",
"3169 889 QCURVE SMOOTH",
"3158 889 OFFCURVE",
"3145 902 OFFCURVE",
"3142 918 QCURVE",
"3142 923 LINE",
"3129 921 LINE",
"3120 903 OFFCURVE",
"3120 880 QCURVE SMOOTH"
);
},
{
closed = 1;
nodes = (
"2498 576 LINE SMOOTH",
"2498 557 OFFCURVE",
"2494 507 OFFCURVE",
"2490 490 QCURVE SMOOTH",
"2485 467 OFFCURVE",
"2469 429 OFFCURVE",
"2449 414 QCURVE SMOOTH",
"2434 402 OFFCURVE",
"2398 384 OFFCURVE",
"2375 372 QCURVE SMOOTH",
"2357 362 OFFCURVE",
"2330 340 OFFCURVE",
"2305 308 OFFCURVE",
"2278 263 OFFCURVE",
"2261 231 QCURVE SMOOTH",
"2236 184 LINE SMOOTH",
"2221 156 OFFCURVE",
"2196 129 OFFCURVE",
"2180 115 QCURVE SMOOTH",
"2157 98 OFFCURVE",
"2096 58 OFFCURVE",
"2032 21 OFFCURVE",
"1970 -13 OFFCURVE",
"1945 -25 QCURVE",
"1947 -48 LINE",
"1974 -46 OFFCURVE",
"2037 -40 OFFCURVE",
"2094 -30 OFFCURVE",
"2143 -19 OFFCURVE",
"2156 -11 QCURVE",
"2169 0 OFFCURVE",
"2192 24 OFFCURVE",
"2214 53 OFFCURVE",
"2235 88 OFFCURVE",
"2248 111 QCURVE SMOOTH",
"2283 178 LINE SMOOTH",
"2292 197 OFFCURVE",
"2318 228 OFFCURVE",
"2340 243 QCURVE SMOOTH",
"2355 252 OFFCURVE",
"2384 271 OFFCURVE",
"2401 280 QCURVE SMOOTH",
"2414 288 OFFCURVE",
"2434 302 OFFCURVE",
"2446 312 QCURVE SMOOTH",
"2463 327 OFFCURVE",
"2491 366 OFFCURVE",
"2501 388 QCURVE SMOOTH",
"2507 400 OFFCURVE",
"2520 434 OFFCURVE",
"2530 471 OFFCURVE",
"2539 508 OFFCURVE",
"2542 523 QCURVE SMOOTH",
"2546 547 OFFCURVE",
"2558 612 OFFCURVE",
"2568 688 OFFCURVE",
"2576 769 OFFCURVE",
"2577 809 QCURVE SMOOTH",
"2582 976 LINE SMOOTH",
"2583 1020 OFFCURVE",
"2589 1087 OFFCURVE",
"2594 1106 QCURVE",
"2573 1114 LINE",
"2558 1081 OFFCURVE",
"2539 1032 OFFCURVE",
"2527 993 OFFCURVE",
"2520 961 OFFCURVE",
"2516 947 QCURVE SMOOTH",
"2509 917 OFFCURVE",
"2502 856 OFFCURVE",
"2501 819 QCURVE SMOOTH"
);
},
{
closed = 1;
nodes = (
"800 461 OFFCURVE",
"828 455 OFFCURVE",
"841 445 QCURVE SMOOTH",
"854 435 OFFCURVE",
"883 421 OFFCURVE",
"902 421 QCURVE SMOOTH",
"933 421 OFFCURVE",
"988 442 OFFCURVE",
"1042 480 OFFCURVE",
"1095 531 OFFCURVE",
"1125 561 QCURVE SMOOTH",
"1191 627 LINE SMOOTH",
"1202 639 OFFCURVE",
"1238 674 OFFCURVE",
"1274 708 OFFCURVE",
"1303 734 OFFCURVE",
"1308 737 QCURVE",
"1306 750 LINE",
"1291 751 OFFCURVE",
"1240 771 OFFCURVE",
"1212 785 QCURVE SMOOTH",
"1200 791 OFFCURVE",
"1168 805 OFFCURVE",
"1136 818 OFFCURVE",
"1105 830 OFFCURVE",
"1093 833 QCURVE SMOOTH",
"1068 840 OFFCURVE",
"1047 840 QCURVE SMOOTH",
"1002 840 OFFCURVE",
"926 788 OFFCURVE",
"893 721 QCURVE",
"918 712 LINE",
"932 736 OFFCURVE",
"969 749 OFFCURVE",
"988 749 QCURVE SMOOTH",
"1008 749 OFFCURVE",
"1041 741 OFFCURVE",
"1063 732 QCURVE SMOOTH",
"1102 717 OFFCURVE",
"1175 689 OFFCURVE",
"1197 682 QCURVE",
"1120 616 LINE SMOOTH",
"1095 595 OFFCURVE",
"1051 563 OFFCURVE",
"1006 540 OFFCURVE",
"960 527 OFFCURVE",
"934 527 QCURVE SMOOTH",
"920 527 OFFCURVE",
"898 536 OFFCURVE",
"881 549 QCURVE SMOOTH",
"874 556 OFFCURVE",
"846 568 OFFCURVE",
"826 568 QCURVE SMOOTH",
"773 568 OFFCURVE",
"678 512 OFFCURVE",
"594 426 OFFCURVE",
"525 323 OFFCURVE",
"500 276 QCURVE SMOOTH",
"499 274 OFFCURVE",
"499 272 OFFCURVE",
"499 271 QCURVE SMOOTH",
"494 265 OFFCURVE",
"482 240 OFFCURVE",
"470 213 OFFCURVE",
"460 187 OFFCURVE",
"458 180 QCURVE",
"400 152 OFFCURVE",
"313 97 OFFCURVE",
"244 33 OFFCURVE",
"190 -48 OFFCURVE",
"164 -103 QCURVE SMOOTH",
"135 -162 OFFCURVE",
"104 -298 OFFCURVE",
"90 -448 OFFCURVE",
"88 -612 OFFCURVE",
"88 -698 QCURVE SMOOTH",
"88 -747 OFFCURVE",
"89 -853 OFFCURVE",
"90 -900 QCURVE",
"125 -900 LINE",
"129 -861 OFFCURVE",
"136 -750 OFFCURVE",
"143 -628 OFFCURVE",
"149 -510 OFFCURVE",
"153 -465 QCURVE SMOOTH",
"160 -366 OFFCURVE",
"174 -245 OFFCURVE",
"188 -171 OFFCURVE",
"206 -128 OFFCURVE",
"216 -107 QCURVE SMOOTH",
"238 -63 OFFCURVE",
"321 -1 OFFCURVE",
"419 42 OFFCURVE",
"526 68 OFFCURVE",
"574 77 QCURVE SMOOTH",
"588 80 OFFCURVE",
"601 86 OFFCURVE",
"605 89 QCURVE SMOOTH",
"622 99 OFFCURVE",
"656 146 OFFCURVE",
"682 199 OFFCURVE",
"699 248 OFFCURVE",
"699 262 QCURVE SMOOTH",
"699 287 OFFCURVE",
"660 302 QCURVE SMOOTH",
"642 310 OFFCURVE",
"597 322 OFFCURVE",
"579 325 QCURVE",
"598 354 OFFCURVE",
"641 403 OFFCURVE",
"692 440 OFFCURVE",
"755 461 OFFCURVE",
"793 461 QCURVE SMOOTH"
);
},
{
closed = 1;
nodes = (
"4309 289 OFFCURVE",
"4331 270 OFFCURVE",
"4355 248 OFFCURVE",
"4376 228 OFFCURVE",
"4382 222 QCURVE",
"4391 222 LINE",
"4407 233 OFFCURVE",
"4437 257 OFFCURVE",
"4459 282 OFFCURVE",
"4474 306 OFFCURVE",
"4474 316 QCURVE SMOOTH",
"4474 337 OFFCURVE",
"4434 376 OFFCURVE",
"4396 401 QCURVE",
"4387 401 LINE",
"4382 398 OFFCURVE",
"4360 377 OFFCURVE",
"4335 349 OFFCURVE",
"4309 318 OFFCURVE",
"4300 305 QCURVE",
"4300 296 LINE"
);
},
{
closed = 1;
nodes = (
"4186 816 OFFCURVE",
"4223 840 OFFCURVE",
"4258 867 OFFCURVE",
"4286 891 OFFCURVE",
"4288 896 QCURVE",
"4285 912 LINE",
"4232 934 OFFCURVE",
"4159 947 OFFCURVE",
"4140 947 QCURVE SMOOTH",
"4134 947 OFFCURVE",
"4120 944 OFFCURVE",
"4103 931 OFFCURVE",
"4084 905 OFFCURVE",
"4076 884 QCURVE",
"4086 879 LINE",
"4091 883 OFFCURVE",
"4106 890 OFFCURVE",
"4118 890 QCURVE SMOOTH",
"4127 890 OFFCURVE",
"4153 886 OFFCURVE",
"4181 880 OFFCURVE",
"4208 872 OFFCURVE",
"4218 868 QCURVE",
"4218 866 LINE",
"4214 861 OFFCURVE",
"4188 849 OFFCURVE",
"4148 833 OFFCURVE",
"4099 817 OFFCURVE",
"4073 811 QCURVE",
"4075 795 LINE",
"4088 796 OFFCURVE",
"4121 802 OFFCURVE",
"4151 807 OFFCURVE",
"4172 811 OFFCURVE",
"4175 812 QCURVE SMOOTH"
);
},
{
closed = 1;
nodes = (
"3576 356 LINE",
"3605 424 OFFCURVE",
"3642 569 OFFCURVE",
"3646 632 QCURVE SMOOTH",
"3656 826 LINE SMOOTH",
"3659 869 OFFCURVE",
"3663 959 OFFCURVE",
"3670 1038 OFFCURVE",
"3679 1100 OFFCURVE",
"3686 1116 QCURVE",
"3665 1124 LINE",
"3634 1057 OFFCURVE",
"3604 970 OFFCURVE",
"3597 940 QCURVE SMOOTH",
"3589 911 OFFCURVE",
"3583 836 OFFCURVE",
"3582 799 QCURVE SMOOTH",
"3572 550 LINE SMOOTH",
"3570 518 OFFCURVE",
"3566 456 OFFCURVE",
"3561 406 OFFCURVE",
"3556 369 OFFCURVE",
"3554 361 QCURVE"
);
},
{
closed = 1;
nodes = (
"2704 355 LINE",
"2732 423 OFFCURVE",
"2770 568 OFFCURVE",
"2773 631 QCURVE SMOOTH",
"2784 825 LINE SMOOTH",
"2786 868 OFFCURVE",
"2791 958 OFFCURVE",
"2797 1037 OFFCURVE",
"2806 1099 OFFCURVE",
"2813 1115 QCURVE",
"2792 1123 LINE",
"2762 1056 OFFCURVE",
"2731 969 OFFCURVE",
"2724 939 QCURVE SMOOTH",
"2717 910 OFFCURVE",
"2710 835 OFFCURVE",
"2709 798 QCURVE SMOOTH",
"2699 549 LINE SMOOTH",
"2697 517 OFFCURVE",
"2693 455 OFFCURVE",
"2688 405 OFFCURVE",
"2683 368 OFFCURVE",
"2682 360 QCURVE"
);
},
{
closed = 1;
nodes = (
"1133 -192 OFFCURVE",
"1156 -212 OFFCURVE",
"1180 -234 OFFCURVE",
"1201 -254 OFFCURVE",
"1207 -260 QCURVE",
"1215 -260 LINE",
"1231 -249 OFFCURVE",
"1261 -224 OFFCURVE",
"1284 -200 OFFCURVE",
"1298 -176 OFFCURVE",
"1298 -165 QCURVE SMOOTH",
"1298 -144 OFFCURVE",
"1259 -105 OFFCURVE",
"1220 -81 QCURVE",
"1211 -81 LINE",
"1207 -83 OFFCURVE",
"1185 -104 OFFCURVE",
"1159 -133 OFFCURVE",
"1133 -164 OFFCURVE",
"1124 -177 QCURVE",
"1124 -186 LINE"
);
},
{
closed = 1;
nodes = (
"2130 909 OFFCURVE",
"2147 882 OFFCURVE",
"2167 882 QCURVE SMOOTH",
"2190 882 OFFCURVE",
"2223 915 OFFCURVE",
"2235 944 QCURVE",
"2239 940 OFFCURVE",
"2253 936 OFFCURVE",
"2260 936 QCURVE SMOOTH",
"2299 936 OFFCURVE",
"2338 1000 OFFCURVE",
"2338 1045 QCURVE SMOOTH",
"2338 1056 LINE",
"2320 1053 LINE",
"2315 1014 OFFCURVE",
"2297 987 OFFCURVE",
"2281 987 QCURVE SMOOTH",
"2273 987 OFFCURVE",
"2254 995 OFFCURVE",
"2249 1004 QCURVE",
"2233 1002 LINE",
"2224 963 OFFCURVE",
"2200 934 OFFCURVE",
"2180 934 QCURVE SMOOTH",
"2168 934 OFFCURVE",
"2155 947 OFFCURVE",
"2152 963 QCURVE",
"2152 968 LINE",
"2139 966 LINE",
"2130 948 OFFCURVE",
"2130 925 QCURVE SMOOTH"
);
},
{
closed = 1;
nodes = (
"1664 355 LINE",
"1693 423 OFFCURVE",
"1729 568 OFFCURVE",
"1733 631 QCURVE SMOOTH",
"1744 825 LINE SMOOTH",
"1747 868 OFFCURVE",
"1751 958 OFFCURVE",
"1758 1037 OFFCURVE",
"1767 1099 OFFCURVE",
"1773 1115 QCURVE",
"1752 1123 LINE",
"1722 1056 OFFCURVE",
"1691 969 OFFCURVE",
"1684 939 QCURVE SMOOTH",
"1677 910 OFFCURVE",
"1671 835 OFFCURVE",
"1669 798 QCURVE SMOOTH",
"1659 549 LINE SMOOTH",
"1658 517 OFFCURVE",
"1653 455 OFFCURVE",
"1648 405 OFFCURVE",
"1644 368 OFFCURVE",
"1642 360 QCURVE"
);
},
{
closed = 1;
nodes = (
"389 -247 OFFCURVE",
"412 -266 OFFCURVE",
"436 -288 OFFCURVE",
"457 -309 OFFCURVE",
"463 -314 QCURVE",
"472 -314 LINE",
"498 -296 OFFCURVE",
"541 -257 OFFCURVE",
"550 -238 QCURVE",
"568 -253 OFFCURVE",
"603 -287 OFFCURVE",
"613 -296 QCURVE",
"622 -296 LINE",
"654 -273 OFFCURVE",
"702 -222 OFFCURVE",
"702 -201 QCURVE SMOOTH",
"702 -180 OFFCURVE",
"663 -142 OFFCURVE",
"624 -117 QCURVE",
"615 -117 LINE",
"611 -120 OFFCURVE",
"595 -134 OFFCURVE",
"576 -155 OFFCURVE",
"554 -179 OFFCURVE",
"544 -191 QCURVE",
"534 -178 OFFCURVE",
"501 -151 OFFCURVE",
"477 -135 QCURVE",
"468 -135 LINE",
"463 -138 OFFCURVE",
"441 -159 OFFCURVE",
"416 -187 OFFCURVE",
"389 -218 OFFCURVE",
"380 -231 QCURVE",
"380 -240 LINE"
);
},
{
closed = 1;
nodes = (
"4310 -142 OFFCURVE",
"4281 -169 OFFCURVE",
"4274 -198 QCURVE",
"4281 -203 LINE",
"4289 -194 OFFCURVE",
"4316 -177 OFFCURVE",
"4334 -167 QCURVE SMOOTH",
"4473 -91 LINE SMOOTH",
"4490 -82 OFFCURVE",
"4518 -53 OFFCURVE",
"4528 -24 QCURVE",
"4520 -20 LINE",
"4512 -24 OFFCURVE",
"4481 -42 OFFCURVE",
"4469 -49 QCURVE SMOOTH",
"4454 -58 OFFCURVE",
"4415 -79 OFFCURVE",
"4375 -101 OFFCURVE",
"4342 -121 OFFCURVE",
"4331 -127 QCURVE SMOOTH"
);
},
{
closed = 1;
nodes = (
"3573 -386 OFFCURVE",
"3544 -414 OFFCURVE",
"3537 -442 QCURVE",
"3544 -447 LINE",
"3552 -438 OFFCURVE",
"3579 -421 OFFCURVE",
"3597 -411 QCURVE SMOOTH",
"3735 -336 LINE SMOOTH",
"3753 -326 OFFCURVE",
"3780 -297 OFFCURVE",
"3791 -269 QCURVE",
"3782 -264 LINE",
"3775 -269 OFFCURVE",
"3744 -287 OFFCURVE",
"3732 -293 QCURVE SMOOTH",
"3716 -302 OFFCURVE",
"3677 -323 OFFCURVE",
"3638 -345 OFFCURVE",
"3604 -366 OFFCURVE",
"3594 -372 QCURVE"
);
},
{
closed = 1;
nodes = (
"1157 985 OFFCURVE",
"1127 957 OFFCURVE",
"1121 929 QCURVE",
"1127 924 LINE",
"1136 933 OFFCURVE",
"1163 950 OFFCURVE",
"1180 960 QCURVE SMOOTH",
"1319 1035 LINE SMOOTH",
"1337 1045 OFFCURVE",
"1364 1074 OFFCURVE",
"1375 1102 QCURVE",
"1366 1107 LINE",
"1359 1102 OFFCURVE",
"1328 1084 OFFCURVE",
"1316 1078 QCURVE SMOOTH",
"1300 1069 OFFCURVE",
"1261 1048 OFFCURVE",
"1222 1026 OFFCURVE",
"1188 1005 OFFCURVE",
"1178 1000 QCURVE"
);
},
{
closed = 1;
nodes = (
"1458 576 LINE SMOOTH",
"1458 557 OFFCURVE",
"1454 507 OFFCURVE",
"1450 490 QCURVE SMOOTH",
"1446 467 OFFCURVE",
"1429 429 OFFCURVE",
"1409 414 QCURVE SMOOTH",
"1394 402 OFFCURVE",
"1359 384 OFFCURVE",
"1336 372 QCURVE SMOOTH",
"1317 362 OFFCURVE",
"1290 340 OFFCURVE",
"1265 308 OFFCURVE",
"1238 263 OFFCURVE",
"1222 231 QCURVE SMOOTH",
"1196 184 LINE SMOOTH",
"1181 156 OFFCURVE",
"1157 129 OFFCURVE",
"1140 115 QCURVE SMOOTH",
"1117 98 OFFCURVE",
"1057 58 OFFCURVE",
"992 21 OFFCURVE",
"930 -13 OFFCURVE",
"905 -25 QCURVE",
"907 -48 LINE",
"925 -46 LINE",
"881 -142 OFFCURVE",
"838 -322 OFFCURVE",
"838 -423 QCURVE SMOOTH",
"838 -476 OFFCURVE",
"871 -569 OFFCURVE",
"934 -639 OFFCURVE",
"1028 -679 OFFCURVE",
"1091 -679 QCURVE SMOOTH",
"1178 -679 OFFCURVE",
"1318 -605 OFFCURVE",
"1426 -481 OFFCURVE",
"1501 -321 OFFCURVE",
"1523 -234 QCURVE SMOOTH",
"1538 -174 OFFCURVE",
"1554 -62 OFFCURVE",
"1556 -2 QCURVE",
"1560 -2 LINE SMOOTH",
"1584 -2 OFFCURVE",
"1624 10 OFFCURVE",
"1660 34 OFFCURVE",
"1698 70 OFFCURVE",
"1721 94 QCURVE SMOOTH",
"1751 125 OFFCURVE",
"1788 159 OFFCURVE",
"1810 176 OFFCURVE",
"1823 179 OFFCURVE",
"1830 179 QCURVE SMOOTH",
"1843 179 OFFCURVE",
"1866 172 OFFCURVE",
"1883 163 QCURVE SMOOTH",
"1907 150 OFFCURVE",
"1919 150 QCURVE SMOOTH",
"1936 150 OFFCURVE",
"1966 177 OFFCURVE",
"1990 213 OFFCURVE",
"2005 253 OFFCURVE",
"2005 266 QCURVE SMOOTH",
"2005 274 OFFCURVE",
"1999 288 OFFCURVE",
"1984 300 OFFCURVE",
"1962 312 OFFCURVE",
"1946 321 QCURVE SMOOTH",
"1924 332 OFFCURVE",
"1924 347 QCURVE SMOOTH",
"1924 350 OFFCURVE",
"1926 361 OFFCURVE",
"1930 368 QCURVE SMOOTH",
"1944 391 OFFCURVE",
"2051 451 OFFCURVE",
"2137 489 QCURVE SMOOTH",
"2170 503 OFFCURVE",
"2223 530 OFFCURVE",
"2248 547 QCURVE SMOOTH",
"2272 562 OFFCURVE",
"2318 614 OFFCURVE",
"2334 645 QCURVE",
"2333 652 LINE",
"2321 661 OFFCURVE",
"2271 680 OFFCURVE",
"2208 698 OFFCURVE",
"2143 711 OFFCURVE",
"2116 714 QCURVE SMOOTH",
"2109 714 OFFCURVE",
"2094 715 OFFCURVE",
"2086 715 QCURVE SMOOTH",
"2026 715 OFFCURVE",
"1941 644 OFFCURVE",
"1911 582 QCURVE",
"1935 571 LINE",
"1958 600 OFFCURVE",
"2006 617 OFFCURVE",
"2037 617 QCURVE SMOOTH",
"2055 617 OFFCURVE",
"2103 613 OFFCURVE",
"2154 604 OFFCURVE",
"2204 592 OFFCURVE",
"2222 584 QCURVE",
"2112 537 LINE SMOOTH",
"2077 522 OFFCURVE",
"2010 489 OFFCURVE",
"1949 446 OFFCURVE",
"1898 389 OFFCURVE",
"1879 350 QCURVE SMOOTH",
"1874 340 OFFCURVE",
"1864 314 OFFCURVE",
"1861 302 QCURVE",
"1846 292 OFFCURVE",
"1807 248 OFFCURVE",
"1775 206 QCURVE SMOOTH",
"1736 154 OFFCURVE",
"1637 104 OFFCURVE",
"1593 104 QCURVE SMOOTH",
"1581 104 OFFCURVE",
"1545 107 OFFCURVE",
"1530 110 QCURVE",
"1514 104 LINE",
"1514 49 OFFCURVE",
"1512 -37 OFFCURVE",
"1505 -112 OFFCURVE",
"1492 -185 OFFCURVE",
"1480 -227 QCURVE SMOOTH",
"1470 -262 OFFCURVE",
"1426 -356 OFFCURVE",
"1345 -441 OFFCURVE",
"1224 -500 OFFCURVE",
"1139 -500 QCURVE SMOOTH",
"1029 -500 OFFCURVE",
"905 -389 OFFCURVE",
"905 -275 QCURVE SMOOTH",
"905 -229 OFFCURVE",
"930 -117 OFFCURVE",
"960 -43 QCURVE",
"984 -41 OFFCURVE",
"1031 -34 OFFCURVE",
"1072 -26 OFFCURVE",
"1105 -17 OFFCURVE",
"1116 -11 QCURVE",
"1129 0 OFFCURVE",
"1152 24 OFFCURVE",
"1174 53 OFFCURVE",
"1195 88 OFFCURVE",
"1208 111 QCURVE SMOOTH",
"1243 178 LINE SMOOTH",
"1252 197 OFFCURVE",
"1278 228 OFFCURVE",
"1301 243 QCURVE SMOOTH",
"1316 252 OFFCURVE",
"1344 271 OFFCURVE",
"1361 280 QCURVE SMOOTH",
"1374 288 OFFCURVE",
"1394 302 OFFCURVE",
"1406 312 QCURVE SMOOTH",
"1424 327 OFFCURVE",
"1451 366 OFFCURVE",
"1461 388 QCURVE SMOOTH",
"1468 400 OFFCURVE",
"1480 434 OFFCURVE",
"1491 471 OFFCURVE",
"1500 508 OFFCURVE",
"1502 523 QCURVE SMOOTH",
"1506 547 OFFCURVE",
"1518 612 OFFCURVE",
"1528 688 OFFCURVE",
"1536 769 OFFCURVE",
"1537 809 QCURVE SMOOTH",
"1542 976 LINE SMOOTH",
"1543 1020 OFFCURVE",
"1549 1087 OFFCURVE",
"1554 1106 QCURVE",
"1533 1114 LINE",
"1518 1081 OFFCURVE",
"1500 1032 OFFCURVE",
"1487 993 OFFCURVE",
"1480 961 OFFCURVE",
"1477 947 QCURVE SMOOTH",
"1470 917 OFFCURVE",
"1462 856 OFFCURVE",
"1461 819 QCURVE SMOOTH"
);
},
{
closed = 1;
nodes = (
"516 -767 LINE",
"531 -733 OFFCURVE",
"548 -660 OFFCURVE",
"550 -628 QCURVE SMOOTH",
"553 -588 LINE SMOOTH",
"554 -566 OFFCURVE",
"556 -522 OFFCURVE",
"560 -482 OFFCURVE",
"564 -451 OFFCURVE",
"568 -443 QCURVE",
"557 -439 LINE",
"542 -470 OFFCURVE",
"526 -516 OFFCURVE",
"523 -531 QCURVE SMOOTH",
"519 -546 OFFCURVE",
"517 -583 OFFCURVE",
"516 -602 QCURVE SMOOTH",
"513 -669 LINE SMOOTH",
"512 -702 OFFCURVE",
"506 -755 OFFCURVE",
"504 -764 QCURVE"
);
}
);
width = 4619;
}
);
note = uniFDFD;
unicode = FDFD;
},
{
glyphname = ShortVwlNS;
lastChange = "2019-08-09 22:57:09 +0000";
layers = (
{
layerId = "5E96EFD4-BDA9-4728-9E21-55349679CE65";
paths = (
{
closed = 1;
nodes = (
"-33 834 LINE",
"20 847 OFFCURVE",
"66 910 OFFCURVE",
"66 956 QCURVE SMOOTH",
"66 989 OFFCURVE",
"38 1030 OFFCURVE",
"0 1030 QCURVE SMOOTH",
"-13 1030 LINE SMOOTH",
"-19 1030 OFFCURVE",
"-26 1029 QCURVE",
"-27 1051 LINE",
"-10 1055 OFFCURVE",
"18 1060 OFFCURVE",
"31 1060 QCURVE SMOOTH",
"82 1060 OFFCURVE",
"131 1004 OFFCURVE",
"131 959 QCURVE SMOOTH",
"131 898 OFFCURVE",
"31 813 OFFCURVE",
"-33 812 QCURVE"
);
},
{
closed = 1;
nodes = (
"31 805 LINE"
);
},
{
closed = 1;
nodes = (
"34 1112 LINE"
);
}
);
width = 0;
}
);
note = ShortVwlNS;
unicode = 08FF;
},
{
glyphname = RahmatullahNS;
lastChange = "2019-08-09 22:57:09 +0000";
layers = (
{
layerId = "5E96EFD4-BDA9-4728-9E21-55349679CE65";
paths = (
{
closed = 1;
nodes = (
"158 1102 LINE",
"141 1051 OFFCURVE",
"97 976 OFFCURVE",
"-9 890 OFFCURVE",
"-31 879 QCURVE",
"-29 868 LINE",
"66 888 OFFCURVE",
"104 918 OFFCURVE",
"155 1025 OFFCURVE",
"173 1100 QCURVE"
);
},
{
closed = 1;
nodes = (
"-139 859 LINE",
"-130 859 LINE",
"-115 921 OFFCURVE",
"-2 1035 OFFCURVE",
"77 1080 OFFCURVE",
"95 1116 QCURVE",
"95 1120 LINE",
"83 1125 OFFCURVE",
"10 1137 OFFCURVE",
"-21 1137 QCURVE SMOOTH",
"-66 1137 OFFCURVE",
"-106 1102 OFFCURVE",
"-121 1062 QCURVE",
"-107 1057 LINE",
"-98 1077 OFFCURVE",
"-72 1083 OFFCURVE",
"-53 1083 QCURVE SMOOTH",
"-36 1083 OFFCURVE",
"-21 1083 QCURVE",
"3 1081 LINE SMOOTH",
"26 1079 OFFCURVE",
"26 1077 QCURVE",
"-35 1038 OFFCURVE",
"-128 945 OFFCURVE",
"-154 879 QCURVE"
);
},
{
closed = 1;
nodes = (
"0 962 LINE"
);
},
{
closed = 1;
nodes = (
"0 1208 LINE"
);
},
{
closed = 1;
nodes = (
"0 866 LINE"
);
}
);
width = 0;
}
);
note = RahmatullahNS;
unicode = 0612;
},
{
glyphname = RadiallahNS;
lastChange = "2019-08-09 22:57:09 +0000";
layers = (
{
layerId = "5E96EFD4-BDA9-4728-9E21-55349679CE65";
paths = (
{
closed = 1;
nodes = (
"182 1087 LINE",
"165 1036 OFFCURVE",
"121 960 OFFCURVE",
"15 875 OFFCURVE",
"-7 864 QCURVE",
"-5 853 LINE",
"90 873 OFFCURVE",
"128 903 OFFCURVE",
"178 1010 OFFCURVE",
"197 1084 QCURVE"
);
},
{
closed = 1;
nodes = (
"-148 827 LINE",
"-136 857 OFFCURVE",
"-128 903 OFFCURVE",
"-128 957 QCURVE",
"-117 948 OFFCURVE",
"-90 945 OFFCURVE",
"-78 945 QCURVE SMOOTH",
"-11 945 OFFCURVE",
"91 1057 OFFCURVE",
"91 1104 QCURVE SMOOTH",
"91 1117 OFFCURVE",
"73 1135 OFFCURVE",
"56 1135 QCURVE SMOOTH",
"33 1135 OFFCURVE",
"-22 1105 OFFCURVE",
"-61 1062 QCURVE SMOOTH",
"-97 1018 LINE SMOOTH",
"-103 1010 OFFCURVE",
"-106 1004 QCURVE",
"-133 1013 OFFCURVE",
"-135 1094 OFFCURVE",
"-143 1114 QCURVE",
"-147 1114 LINE",
"-159 1085 LINE SMOOTH",
"-167 1068 OFFCURVE",
"-170 1057 QCURVE",
"-170 1045 OFFCURVE",
"-156 951 OFFCURVE",
"-156 881 QCURVE SMOOTH",
"-156 860 OFFCURVE",
"-156 833 OFFCURVE",
"-158 829 QCURVE"
);
},
{
closed = 1;
nodes = (
"49 1036 OFFCURVE",
"-24 999 OFFCURVE",
"-70 999 QCURVE SMOOTH",
"-77 999 OFFCURVE",
"-86 1000 QCURVE",
"-72 1017 LINE SMOOTH",
"-52 1042 OFFCURVE",
"-9 1074 OFFCURVE",
"18 1074 QCURVE SMOOTH",
"25 1074 OFFCURVE",
"49 1066 OFFCURVE",
"49 1055 QCURVE SMOOTH"
);
},
{
closed = 1;
nodes = (
"-82 1171 LINE",
"-63 1157 LINE SMOOTH",
"-53 1148 OFFCURVE",
"-48 1143 QCURVE",
"-44 1143 LINE",
"-32 1151 OFFCURVE",
"-11 1171 OFFCURVE",
"-11 1181 QCURVE SMOOTH",
"-11 1189 OFFCURVE",
"-26 1205 OFFCURVE",
"-42 1215 QCURVE",
"-46 1215 LINE",
"-49 1212 OFFCURVE",
"-74 1187 OFFCURVE",
"-82 1175 QCURVE"
);
},
{
closed = 1;
nodes = (
"0 918 LINE"
);
},
{
closed = 1;
nodes = (
"0 1272 LINE"
);
},
{
closed = 1;
nodes = (
"0 831 LINE"
);
}
);
width = 0;
}
);
note = RadiallahNS;
unicode = 0613;
},
{
glyphname = SallallahNS;
lastChange = "2019-08-09 22:57:09 +0000";
layers = (
{
layerId = "5E96EFD4-BDA9-4728-9E21-55349679CE65";
paths = (
{
closed = 1;
nodes = (
"-95 833 LINE",
"-83 863 OFFCURVE",
"-75 910 OFFCURVE",
"-75 963 QCURVE",
"-63 955 OFFCURVE",
"-36 951 OFFCURVE",
"-24 951 QCURVE SMOOTH",
"42 951 OFFCURVE",
"145 1063 OFFCURVE",
"145 1110 QCURVE SMOOTH",
"145 1123 OFFCURVE",
"126 1141 OFFCURVE",
"110 1141 QCURVE SMOOTH",
"87 1141 OFFCURVE",
"32 1111 OFFCURVE",
"-7 1068 QCURVE SMOOTH",
"-43 1024 LINE SMOOTH",
"-49 1016 OFFCURVE",
"-53 1011 QCURVE",
"-79 1020 OFFCURVE",
"-82 1101 OFFCURVE",
"-90 1120 QCURVE",
"-94 1120 LINE",
"-105 1092 LINE SMOOTH",
"-113 1074 OFFCURVE",
"-117 1063 QCURVE",
"-117 1051 OFFCURVE",
"-102 957 OFFCURVE",
"-102 887 QCURVE SMOOTH",
"-103 867 OFFCURVE",
"-103 839 OFFCURVE",
"-104 835 QCURVE"
);
},
{
closed = 1;
nodes = (
"103 1042 OFFCURVE",
"29 1004 OFFCURVE",
"-17 1004 QCURVE SMOOTH",
"-24 1004 OFFCURVE",
"-33 1006 QCURVE",
"-19 1023 LINE SMOOTH",
"2 1048 OFFCURVE",
"45 1080 OFFCURVE",
"71 1080 QCURVE SMOOTH",
"79 1080 OFFCURVE",
"103 1072 OFFCURVE",
"103 1061 QCURVE SMOOTH"
);
},
{
closed = 1;
nodes = (
"0 921 LINE"
);
},
{
closed = 1;
nodes = (
"0 1185 LINE"
);
},
{
closed = 1;
nodes = (
"0 848 LINE"
);
}
);
width = 0;
}
);
note = SallallahNS;
unicode = 0610;
},
{
glyphname = AlayhissalamNS;
lastChange = "2019-08-09 22:57:09 +0000";
layers = (
{
layerId = "5E96EFD4-BDA9-4728-9E21-55349679CE65";
paths = (
{
closed = 1;
nodes = (
"-89 824 LINE",
"-77 854 OFFCURVE",
"-68 901 OFFCURVE",
"-68 955 QCURVE",
"-60 947 OFFCURVE",
"-37 942 OFFCURVE",
"-24 942 QCURVE SMOOTH",
"21 942 OFFCURVE",
"125 1004 OFFCURVE",
"149 1059 QCURVE",
"142 1064 LINE",
"129 1052 OFFCURVE",
"81 1018 OFFCURVE",
"62 1018 QCURVE SMOOTH",
"40 1018 OFFCURVE",
"3 1038 OFFCURVE",
"3 1056 QCURVE SMOOTH",
"3 1073 OFFCURVE",
"34 1093 OFFCURVE",
"52 1093 QCURVE SMOOTH",
"71 1093 OFFCURVE",
"84 1080 QCURVE",
"88 1080 LINE",
"94 1083 OFFCURVE",
"103 1096 OFFCURVE",
"103 1105 QCURVE SMOOTH",
"103 1119 OFFCURVE",
"82 1132 OFFCURVE",
"68 1132 QCURVE SMOOTH",
"35 1132 OFFCURVE",
"-46 1050 OFFCURVE",
"-46 1016 QCURVE SMOOTH",
"-46 1004 OFFCURVE",
"-43 997 QCURVE",
"-72 1005 OFFCURVE",
"-77 1092 OFFCURVE",
"-83 1111 QCURVE",
"-88 1111 LINE",
"-99 1083 LINE SMOOTH",
"-107 1065 OFFCURVE",
"-111 1054 QCURVE",
"-111 1042 OFFCURVE",
"-96 948 OFFCURVE",
"-96 878 QCURVE SMOOTH",
"-97 858 OFFCURVE",
"-97 831 OFFCURVE",
"-99 826 QCURVE"
);
},
{
closed = 1;
nodes = (
"0 918 LINE"
);
},
{
closed = 1;
nodes = (
"0 1202 LINE"
);
},
{
closed = 1;
nodes = (
"0 826 LINE"
);
}
);
width = 0;
}
);
note = AlayhissalamNS;
unicode = 0611;
},
{
glyphname = TakhallusNS;
lastChange = "2019-08-09 22:57:09 +0000";
layers = (
{
layerId = "5E96EFD4-BDA9-4728-9E21-55349679CE65";
paths = (
{
closed = 1;
nodes = (
"-71 892 OFFCURVE",
"19 938 OFFCURVE",
"53 973 OFFCURVE",
"59 973 QCURVE SMOOTH",
"63 973 OFFCURVE",
"95 948 OFFCURVE",
"110 948 QCURVE SMOOTH",
"135 948 OFFCURVE",
"170 992 OFFCURVE",
"186 1047 QCURVE",
"168 1053 LINE",
"158 1030 OFFCURVE",
"139 1013 OFFCURVE",
"126 1013 QCURVE SMOOTH",
"115 1013 OFFCURVE",
"95 1035 OFFCURVE",
"84 1035 QCURVE SMOOTH",
"74 1035 OFFCURVE",
"42 993 OFFCURVE",
"-65 949 OFFCURVE",
"-213 938 QCURVE",
"-217 932 LINE",
"-211 925 OFFCURVE",
"-165 907 OFFCURVE",
"-140 900 QCURVE SMOOTH",
"-114 892 LINE"
);
},
{
closed = 1;
nodes = (
"0 995 LINE"
);
},
{
closed = 1;
nodes = (
"0 1127 LINE"
);
},
{
closed = 1;
nodes = (
"0 908 LINE"
);
}
);
width = 0;
}
);
note = TakhallusNS;
unicode = 0614;
},
{
glyphname = WavyHamzaBelowNS;
lastChange = "2019-08-09 22:57:09 +0000";
layers = (
{
layerId = "5E96EFD4-BDA9-4728-9E21-55349679CE65";
paths = (
{
closed = 1;
nodes = (
"-51 -236 LINE",
"-64 -236 LINE SMOOTH",
"-111 -236 OFFCURVE",
"-159 -274 OFFCURVE",
"-159 -317 QCURVE",
"-158 -325 OFFCURVE",
"-158 -331 QCURVE",
"-147 -331 LINE",
"-134 -283 OFFCURVE",
"2 -279 OFFCURVE",
"117 -222 OFFCURVE",
"138 -163 QCURVE",
"129 -157 LINE",
"112 -174 OFFCURVE",
"68 -200 OFFCURVE",
"52 -200 QCURVE SMOOTH",
"23 -200 OFFCURVE",
"-11 -176 OFFCURVE",
"-11 -158 QCURVE SMOOTH",
"-11 -141 OFFCURVE",
"23 -118 OFFCURVE",
"42 -118 QCURVE SMOOTH",
"62 -118 OFFCURVE",
"76 -132 QCURVE",
"80 -132 LINE",
"86 -129 OFFCURVE",
"96 -114 OFFCURVE",
"96 -104 QCURVE SMOOTH",
"96 -90 OFFCURVE",
"74 -77 OFFCURVE",
"59 -77 QCURVE SMOOTH",
"23 -77 OFFCURVE",
"-65 -165 OFFCURVE",
"-65 -201 QCURVE SMOOTH",
"-65 -214 OFFCURVE",
"-57 -228 OFFCURVE",
"-50 -233 QCURVE"
);
},
{
closed = 1;
nodes = (
"0 -12 LINE"
);
},
{
closed = 1;
nodes = (
"0 -230 LINE"
);
},
{
closed = 1;
nodes = (
"0 -401 LINE"
);
},
{
closed = 1;
nodes = (
"0 -178 LINE"
);
},
{
closed = 1;
nodes = (
"0 -83 LINE"
);
},
{
closed = 1;
nodes = (
"0 -304 LINE"
);
}
);
width = 0;
}
);
note = WavyHamzaBelowNS;
unicode = 065F;
},
{
glyphname = AlefSuperiorNS;
lastChange = "2019-08-09 22:57:09 +0000";
layers = (
{
layerId = "5E96EFD4-BDA9-4728-9E21-55349679CE65";
paths = (
{
closed = 1;
nodes = (
"-5 851 LINE",
"10 884 OFFCURVE",
"28 957 OFFCURVE",
"30 989 QCURVE SMOOTH",
"31 1006 LINE SMOOTH",
"33 1050 OFFCURVE",
"37 1097 OFFCURVE",
"40 1106 QCURVE",
"29 1110 LINE",
"10 1072 OFFCURVE",
"-4 1029 OFFCURVE",
"-6 992 QCURVE SMOOTH",
"-8 948 LINE SMOOTH",
"-10 915 OFFCURVE",
"-15 862 OFFCURVE",
"-17 854 QCURVE"
);
},
{
closed = 1;
nodes = (
"0 950 LINE"
);
},
{
closed = 1;
nodes = (
"0 1181 LINE"
);
}
);
width = 0;
}
);
note = AlefSuperiorNS;
unicode = 0670;
},
{
glyphname = AlefInferiorNS;
lastChange = "2019-08-09 22:57:09 +0000";
layers = (
{
layerId = "5E96EFD4-BDA9-4728-9E21-55349679CE65";
paths = (
{
closed = 1;
nodes = (
"-5 -267 LINE",
"10 -234 OFFCURVE",
"28 -161 OFFCURVE",
"30 -129 QCURVE SMOOTH",
"31 -112 LINE SMOOTH",
"33 -68 OFFCURVE",
"37 -21 OFFCURVE",
"40 -11 QCURVE",
"29 -8 LINE",
"10 -46 OFFCURVE",
"-4 -89 OFFCURVE",
"-6 -125 QCURVE SMOOTH",
"-8 -169 LINE SMOOTH",
"-10 -203 OFFCURVE",
"-15 -256 OFFCURVE",
"-17 -265 QCURVE"
);
},
{
closed = 1;
nodes = (
"-2 -194 LINE"
);
},
{
closed = 1;
nodes = (
"0 2 LINE"
);
},
{
closed = 1;
nodes = (
"2 -108 LINE"
);
},
{
closed = 1;
nodes = (
"1 -338 LINE"
);
}
);
width = 0;
}
);
note = AlefInferiorNS;
unicode = 0656;
},
{
glyphname = HamzaAboveNS;
lastChange = "2019-08-09 22:57:09 +0000";
layers = (
{
layerId = "5E96EFD4-BDA9-4728-9E21-55349679CE65";
paths = (
{
closed = 1;
nodes = (
"-32 934 OFFCURVE",
"-49 923 OFFCURVE",
"-58 923 QCURVE SMOOTH",
"-66 923 OFFCURVE",
"-77 936 OFFCURVE",
"-77 948 QCURVE",
"-94 952 LINE",
"-105 939 OFFCURVE",
"-125 902 OFFCURVE",
"-125 881 QCURVE SMOOTH",
"-125 864 OFFCURVE",
"-105 848 OFFCURVE",
"-90 848 QCURVE SMOOTH",
"-71 848 OFFCURVE",
"-38 876 OFFCURVE",
"-19 905 QCURVE SMOOTH",
"15 957 LINE SMOOTH",
"29 978 OFFCURVE",
"46 990 OFFCURVE",
"55 990 QCURVE SMOOTH",
"63 990 OFFCURVE",
"75 977 OFFCURVE",
"75 964 QCURVE",
"91 960 LINE",
"103 973 OFFCURVE",
"122 1011 OFFCURVE",
"122 1031 QCURVE SMOOTH",
"122 1048 OFFCURVE",
"103 1064 OFFCURVE",
"88 1064 QCURVE SMOOTH",
"68 1064 OFFCURVE",
"35 1036 OFFCURVE",
"17 1008 QCURVE SMOOTH",
"-18 956 LINE SMOOTH"
);
},
{
closed = 1;
nodes = (
"0 940 LINE"
);
},
{
closed = 1;
nodes = (
"0 1091 LINE"
);
},
{
closed = 1;
nodes = (
"0 838 LINE"
);
},
{
closed = 1;
nodes = (
"0 986 LINE"
);
},
{
closed = 1;
nodes = (
"0 964 LINE"
);
},
{
closed = 1;
nodes = (
"0 856 LINE"
);
},
{
closed = 1;
nodes = (
"0 1058 LINE"
);
}
);
width = 0;
}
);
note = HamzaAboveNS;
unicode = 0654;
},
{
glyphname = FathatanNS;
lastChange = "2019-08-09 22:57:09 +0000";
layers = (
{
layerId = "5E96EFD4-BDA9-4728-9E21-55349679CE65";
paths = (
{
closed = 1;
nodes = (
"-80 926 OFFCURVE",
"-109 898 OFFCURVE",
"-116 870 QCURVE",
"-109 865 LINE",
"-101 874 OFFCURVE",
"-74 891 OFFCURVE",
"-56 901 QCURVE SMOOTH",
"83 977 LINE SMOOTH",
"100 986 OFFCURVE",
"127 1016 OFFCURVE",
"138 1043 QCURVE",
"129 1048 LINE",
"122 1043 OFFCURVE",
"107 1035 QCURVE SMOOTH",
"79 1019 LINE",
"5 978 LINE",
"-32 957 LINE",
"-59 940 LINE SMOOTH"
);
},
{
closed = 1;
nodes = (
"-67 1026 OFFCURVE",
"-96 999 OFFCURVE",
"-103 970 QCURVE",
"-96 965 LINE",
"-88 974 OFFCURVE",
"-61 991 OFFCURVE",
"-43 1001 QCURVE SMOOTH",
"96 1077 LINE SMOOTH",
"113 1086 OFFCURVE",
"141 1116 OFFCURVE",
"151 1144 QCURVE",
"143 1149 LINE",
"135 1144 OFFCURVE",
"121 1135 QCURVE SMOOTH",
"92 1119 LINE",
"19 1079 LINE",
"-19 1057 LINE",
"-46 1041 LINE SMOOTH"
);
},
{
closed = 1;
nodes = (
"0 959 LINE"
);
},
{
closed = 1;
nodes = (
"0 1193 LINE"
);
},
{
closed = 1;
nodes = (
"0 926 LINE"
);
}
);
width = 0;
}
);
note = FathatanNS;
unicode = 064B;
},
{
glyphname = DammatanNS;
lastChange = "2019-08-09 22:57:09 +0000";
layers = (
{
layerId = "5E96EFD4-BDA9-4728-9E21-55349679CE65";
paths = (
{
closed = 1;
nodes = (
"-83 994 LINE",
"-86 982 OFFCURVE",
"-92 953 OFFCURVE",
"-92 941 QCURVE SMOOTH",
"-92 907 OFFCURVE",
"-63 869 OFFCURVE",
"-29 869 QCURVE SMOOTH",
"23 869 OFFCURVE",
"136 979 OFFCURVE",
"136 1030 QCURVE SMOOTH",
"136 1047 OFFCURVE",
"120 1071 OFFCURVE",
"99 1071 QCURVE SMOOTH",
"76 1071 OFFCURVE",
"31 1021 OFFCURVE",
"31 997 QCURVE SMOOTH",
"31 984 OFFCURVE",
"40 960 OFFCURVE",
"52 947 QCURVE",
"11 915 OFFCURVE",
"-21 915 QCURVE SMOOTH",
"-44 915 OFFCURVE",
"-64 941 OFFCURVE",
"-64 964 QCURVE SMOOTH",
"-63 978 LINE SMOOTH",
"-63 990 OFFCURVE",
"-58 1009 OFFCURVE",
"-58 1016 QCURVE SMOOTH",
"-58 1025 OFFCURVE",
"-68 1031 OFFCURVE",
"-74 1031 QCURVE SMOOTH",
"-90 1031 OFFCURVE",
"-138 1000 OFFCURVE",
"-154 980 QCURVE",
"-147 972 LINE",
"-134 982 OFFCURVE",
"-102 994 OFFCURVE",
"-88 994 QCURVE SMOOTH"
);
},
{
closed = 1;
nodes = (
"92 1035 OFFCURVE",
"104 1026 OFFCURVE",
"104 1016 QCURVE SMOOTH",
"104 1004 OFFCURVE",
"94 989 OFFCURVE",
"84 979 QCURVE",
"71 990 OFFCURVE",
"60 1005 OFFCURVE",
"60 1013 QCURVE SMOOTH",
"60 1024 OFFCURVE",
"74 1035 OFFCURVE",
"83 1035 QCURVE SMOOTH"
);
},
{
closed = 1;
nodes = (
"0 968 LINE"
);
},
{
closed = 1;
nodes = (
"0 1141 LINE"
);
},
{
closed = 1;
nodes = (
"0 865 LINE"
);
}
);
width = 0;
}
);
note = DammatanNS;
unicode = 064C;
},
{
glyphname = KasratanNS;
lastChange = "2019-08-09 22:57:09 +0000";
layers = (
{
layerId = "5E96EFD4-BDA9-4728-9E21-55349679CE65";
paths = (
{
closed = 1;
nodes = (
"-98 -223 OFFCURVE",
"-126 -251 OFFCURVE",
"-134 -279 QCURVE",
"-126 -285 LINE",
"-119 -276 OFFCURVE",
"-91 -258 OFFCURVE",
"-74 -249 QCURVE SMOOTH",
"65 -173 LINE SMOOTH",
"83 -164 OFFCURVE",
"110 -134 OFFCURVE",
"121 -106 QCURVE",
"112 -101 LINE",
"104 -106 OFFCURVE",
"90 -115 QCURVE SMOOTH",
"62 -131 LINE",
"-12 -171 LINE",
"-49 -192 LINE",
"-77 -209 LINE SMOOTH"
);
},
{
closed = 1;
nodes = (
"-84 -123 OFFCURVE",
"-113 -151 OFFCURVE",
"-121 -179 QCURVE",
"-113 -185 LINE",
"-105 -176 OFFCURVE",
"-78 -158 OFFCURVE",
"-61 -148 QCURVE SMOOTH",
"78 -73 LINE SMOOTH",
"96 -63 OFFCURVE",
"123 -33 OFFCURVE",
"134 -6 QCURVE",
"125 -1 LINE",
"118 -6 OFFCURVE",
"103 -15 QCURVE SMOOTH",
"75 -31 LINE",
"1 -71 LINE",
"-36 -92 LINE",
"-63 -109 LINE SMOOTH"
);
},
{
closed = 1;
nodes = (
"0 -328 LINE"
);
},
{
closed = 1;
nodes = (
"0 -81 LINE"
);
},
{
closed = 1;
nodes = (
"0 -44 LINE"
);
}
);
width = 0;
}
);
note = KasratanNS;
unicode = 064D;
},
{
glyphname = FathaNS;
lastChange = "2019-08-09 22:57:09 +0000";
layers = (
{
layerId = "5E96EFD4-BDA9-4728-9E21-55349679CE65";
paths = (
{
closed = 1;
nodes = (
"-80 926 OFFCURVE",
"-109 898 OFFCURVE",
"-116 870 QCURVE",
"-109 865 LINE",
"-101 874 OFFCURVE",
"-74 891 OFFCURVE",
"-56 901 QCURVE SMOOTH",
"83 977 LINE SMOOTH",
"100 986 OFFCURVE",
"127 1016 OFFCURVE",
"138 1043 QCURVE",
"129 1048 LINE",
"122 1043 OFFCURVE",
"107 1035 QCURVE SMOOTH",
"79 1019 LINE",
"5 978 LINE",
"-32 957 LINE",
"-59 940 LINE SMOOTH"
);
},
{
closed = 1;
nodes = (
"0 959 LINE"
);
},
{
closed = 1;
nodes = (
"0 1093 LINE"
);
},
{
closed = 1;
nodes = (
"0 926 LINE"
);
}
);
width = 0;
}
);
note = FathaNS;
unicode = 064E;
},
{
glyphname = DammaNS;
lastChange = "2019-08-09 22:57:09 +0000";
layers = (
{
layerId = "5E96EFD4-BDA9-4728-9E21-55349679CE65";
paths = (
{
closed = 1;
nodes = (
"-111 861 LINE",
"-99 867 OFFCURVE",
"-67 883 OFFCURVE",
"-50 893 QCURVE SMOOTH",
"7 925 LINE",
"63 963 OFFCURVE",
"109 1025 OFFCURVE",
"109 1058 QCURVE SMOOTH",
"109 1076 OFFCURVE",
"91 1102 OFFCURVE",
"71 1102 QCURVE SMOOTH",
"46 1102 OFFCURVE",
"-2 1049 OFFCURVE",
"-2 1023 QCURVE SMOOTH",
"-2 1013 OFFCURVE",
"7 989 OFFCURVE",
"17 978 QCURVE",
"4 969 OFFCURVE",
"-97 887 OFFCURVE",
"-116 868 QCURVE"
);
},
{
closed = 1;
nodes = (
"63 1064 OFFCURVE",
"75 1054 OFFCURVE",
"75 1044 QCURVE SMOOTH",
"75 1033 OFFCURVE",
"62 1014 OFFCURVE",
"53 1006 QCURVE",
"42 1017 OFFCURVE",
"28 1033 OFFCURVE",
"28 1041 QCURVE SMOOTH",
"28 1052 OFFCURVE",
"44 1064 OFFCURVE",
"54 1064 QCURVE SMOOTH"
);
},
{
closed = 1;
nodes = (
"-2 958 LINE"
);
},
{
closed = 1;
nodes = (
"0 1172 LINE"
);
},
{
closed = 1;
nodes = (
"0 926 LINE"
);
}
);
width = 0;
}
);
note = DammaNS;
unicode = 064F;
},
{
glyphname = KasraNS;
lastChange = "2019-08-09 22:57:09 +0000";
layers = (
{
layerId = "5E96EFD4-BDA9-4728-9E21-55349679CE65";
paths = (
{
closed = 1;
nodes = (
"-83 -123 OFFCURVE",
"-112 -151 OFFCURVE",
"-120 -179 QCURVE",
"-112 -185 LINE",
"-104 -176 OFFCURVE",
"-77 -158 OFFCURVE",
"-60 -148 QCURVE SMOOTH",
"79 -73 LINE SMOOTH",
"97 -63 OFFCURVE",
"124 -33 OFFCURVE",
"134 -6 QCURVE",
"125 -1 LINE",
"119 -6 OFFCURVE",
"104 -15 QCURVE SMOOTH",
"76 -31 LINE",
"2 -71 LINE",
"-35 -92 LINE",
"-63 -109 LINE SMOOTH"
);
},
{
closed = 1;
nodes = (
"0 -81 LINE"
);
},
{
closed = 1;
nodes = (
"0 -229 LINE"
);
},
{
closed = 1;
nodes = (
"0 -44 LINE"
);
}
);
width = 0;
}
);
note = KasraNS;
unicode = 0650;
},
{
glyphname = ShaddaNS;
lastChange = "2019-08-09 22:57:09 +0000";
layers = (
{
layerId = "5E96EFD4-BDA9-4728-9E21-55349679CE65";
paths = (
{
closed = 1;
nodes = (
"0 969 LINE"
);
},
{
closed = 1;
nodes = (
"0 1090 LINE"
);
},
{
closed = 1;
nodes = (
"0 892 LINE"
);
},
{
closed = 1;
nodes = (
"-111 947 OFFCURVE",
"-111 923 QCURVE SMOOTH",
"-111 907 OFFCURVE",
"-94 881 OFFCURVE",
"-74 881 QCURVE SMOOTH",
"-51 881 OFFCURVE",
"-19 913 OFFCURVE",
"-6 942 QCURVE",
"-2 938 OFFCURVE",
"12 934 OFFCURVE",
"19 934 QCURVE SMOOTH",
"58 934 OFFCURVE",
"97 998 OFFCURVE",
"97 1043 QCURVE SMOOTH",
"97 1054 LINE",
"79 1051 LINE",
"74 1013 OFFCURVE",
"56 985 OFFCURVE",
"40 985 QCURVE SMOOTH",
"32 985 OFFCURVE",
"13 993 OFFCURVE",
"8 1003 QCURVE",
"-8 1000 LINE",
"-18 961 OFFCURVE",
"-42 932 OFFCURVE",
"-62 932 QCURVE SMOOTH",
"-73 932 OFFCURVE",
"-86 945 OFFCURVE",
"-89 961 QCURVE",
"-89 966 LINE",
"-102 964 LINE"
);
}
);
width = 0;
}
);
note = ShaddaNS;
unicode = 0651;
},
{
glyphname = SukunJazmNS;
lastChange = "2019-08-09 22:57:09 +0000";
layers = (
{
layerId = "5E96EFD4-BDA9-4728-9E21-55349679CE65";
paths = (
{
closed = 1;
nodes = (
"134 904 LINE",
"131 929 OFFCURVE",
"112 970 OFFCURVE",
"63 1009 QCURVE SMOOTH",
"31 1033 LINE SMOOTH",
"22 1039 OFFCURVE",
"5 1050 OFFCURVE",
"-1 1054 QCURVE",
"-13 1052 LINE",
"-73 1000 OFFCURVE",
"-137 919 OFFCURVE",
"-139 881 QCURVE",
"-129 879 LINE",
"-112 897 OFFCURVE",
"-67 939 OFFCURVE",
"-38 962 QCURVE SMOOTH",
"-5 989 LINE",
"55 950 LINE",
"92 924 LINE SMOOTH",
"111 911 OFFCURVE",
"125 900 QCURVE"
);
},
{
closed = 1;
nodes = (
"0 976 LINE"
);
},
{
closed = 1;
nodes = (
"0 1123 LINE"
);
},
{
closed = 1;
nodes = (
"0 868 LINE"
);
}
);
width = 0;
}
);
note = SukunJazmNS;
unicode = 0652;
},
{
glyphname = MaddaNS;
lastChange = "2019-08-09 22:57:09 +0000";
layers = (
{
layerId = "5E96EFD4-BDA9-4728-9E21-55349679CE65";
paths = (
{
closed = 1;
nodes = (
"-242 884 LINE",
"-224 908 OFFCURVE",
"-200 925 OFFCURVE",
"-183 925 QCURVE SMOOTH",
"-175 925 OFFCURVE",
"-168 925 QCURVE",
"-154 923 LINE",
"-111 915 LINE SMOOTH",
"-79 910 OFFCURVE",
"-29 907 OFFCURVE",
"-11 907 QCURVE SMOOTH",
"73 907 OFFCURVE",
"223 983 OFFCURVE",
"279 1057 QCURVE",
"266 1068 LINE",
"224 1033 OFFCURVE",
"121 1009 OFFCURVE",
"59 1009 QCURVE SMOOTH",
"43 1009 OFFCURVE",
"-24 1013 OFFCURVE",
"-61 1020 QCURVE SMOOTH",
"-102 1026 LINE SMOOTH",
"-119 1029 OFFCURVE",
"-128 1029 QCURVE SMOOTH",
"-159 1029 OFFCURVE",
"-227 967 OFFCURVE",
"-262 893 QCURVE"
);
},
{
closed = 1;
nodes = (
"0 1148 LINE"
);
},
{
closed = 1;
nodes = (
"0 980 LINE"
);
}
);
width = 0;
}
);
note = MaddaNS;
unicode = 0653;
},
{
glyphname = NoonGhunnaMarkNS;
lastChange = "2019-08-09 22:57:09 +0000";
layers = (
{
layerId = "5E96EFD4-BDA9-4728-9E21-55349679CE65";
paths = (
{
closed = 1;
nodes = (
"109 1046 LINE",
"97 993 OFFCURVE",
"33 947 OFFCURVE",
"-12 947 QCURVE SMOOTH",
"-46 947 OFFCURVE",
"-87 976 OFFCURVE",
"-87 1013 QCURVE SMOOTH",
"-87 1026 LINE SMOOTH",
"-87 1032 OFFCURVE",
"-85 1039 QCURVE",
"-107 1041 LINE",
"-112 1023 OFFCURVE",
"-116 996 OFFCURVE",
"-116 982 QCURVE SMOOTH",
"-116 932 OFFCURVE",
"-61 882 OFFCURVE",
"-16 882 QCURVE SMOOTH",
"45 882 OFFCURVE",
"130 982 OFFCURVE",
"132 1046 QCURVE"
);
},
{
closed = 1;
nodes = (
"0 977 LINE"
);
},
{
closed = 1;
nodes = (
"0 1107 LINE"
);
}
);
width = 0;
}
);
note = NoonGhunnaMarkNS;
unicode = 0658;
},
{
glyphname = UltapeshNS;
lastChange = "2019-08-09 22:57:09 +0000";
layers = (
{
layerId = "5E96EFD4-BDA9-4728-9E21-55349679CE65";
paths = (
{
closed = 1;
nodes = (
"107 1103 LINE",
"96 1098 OFFCURVE",
"63 1081 OFFCURVE",
"46 1072 QCURVE SMOOTH",
"-11 1040 LINE",
"-45 1014 LINE SMOOTH",
"-76 991 OFFCURVE",
"-112 936 OFFCURVE",
"-112 906 QCURVE SMOOTH",
"-112 889 OFFCURVE",
"-95 862 OFFCURVE",
"-75 862 QCURVE SMOOTH",
"-49 862 OFFCURVE",
"-1 915 OFFCURVE",
"-1 941 QCURVE SMOOTH",
"-1 951 OFFCURVE",
"-11 976 OFFCURVE",
"-20 987 QCURVE",
"-8 996 OFFCURVE",
"93 1078 OFFCURVE",
"112 1097 QCURVE"
);
},
{
closed = 1;
nodes = (
"-67 900 OFFCURVE",
"-78 911 OFFCURVE",
"-78 920 QCURVE SMOOTH",
"-78 932 OFFCURVE",
"-65 950 OFFCURVE",
"-56 958 QCURVE",
"-45 947 OFFCURVE",
"-32 932 OFFCURVE",
"-32 924 QCURVE SMOOTH",
"-32 912 OFFCURVE",
"-47 900 OFFCURVE",
"-57 900 QCURVE SMOOTH"
);
},
{
closed = 1;
nodes = (
"-18 958 LINE"
);
},
{
closed = 1;
nodes = (
"0 1120 LINE"
);
},
{
closed = 1;
nodes = (
"0 865 LINE"
);
}
);
width = 0;
}
);
note = UltapeshNS;
unicode = 0657;
},
{
glyphname = ZwarakayNS;
lastChange = "2019-08-09 22:57:09 +0000";
layers = (
{
layerId = "5E96EFD4-BDA9-4728-9E21-55349679CE65";
paths = (
{
closed = 1;
nodes = (
"148 963 LINE",
"37 959 LINE SMOOTH",
"-77 953 OFFCURVE",
"-127 937 OFFCURVE",
"-152 900 QCURVE",
"-147 893 LINE",
"-132 896 OFFCURVE",
"-112 897 QCURVE SMOOTH",
"-62 902 LINE",
"104 912 LINE",
"153 954 LINE"
);
},
{
closed = 1;
nodes = (
"0 989 LINE"
);
},
{
closed = 1;
nodes = (
"0 1032 LINE"
);
},
{
closed = 1;
nodes = (
"0 892 LINE"
);
}
);
width = 0;
}
);
note = ZwarakayNS;
unicode = 0659;
},
{
glyphname = DammaRevNS;
lastChange = "2019-08-09 22:57:09 +0000";
layers = (
{
layerId = "5E96EFD4-BDA9-4728-9E21-55349679CE65";
paths = (
{
closed = 1;
nodes = (
"105 887 OFFCURVE",
"4 969 OFFCURVE",
"-8 978 QCURVE",
"2 989 OFFCURVE",
"11 1013 OFFCURVE",
"11 1023 QCURVE SMOOTH",
"11 1049 OFFCURVE",
"-37 1102 OFFCURVE",
"-63 1102 QCURVE SMOOTH",
"-83 1102 OFFCURVE",
"-100 1076 OFFCURVE",
"-100 1058 QCURVE SMOOTH",
"-100 1025 OFFCURVE",
"-55 963 OFFCURVE",
"2 925 QCURVE",
"59 893 LINE SMOOTH",
"76 883 OFFCURVE",
"108 867 OFFCURVE",
"120 861 QCURVE",
"125 868 LINE"
);
},
{
closed = 1;
nodes = (
"-20 1033 OFFCURVE",
"-33 1017 OFFCURVE",
"-44 1006 QCURVE",
"-53 1014 OFFCURVE",
"-66 1033 OFFCURVE",
"-66 1044 QCURVE SMOOTH",
"-66 1054 OFFCURVE",
"-55 1064 OFFCURVE",
"-45 1064 QCURVE SMOOTH",
"-35 1064 OFFCURVE",
"-20 1052 OFFCURVE",
"-20 1041 QCURVE SMOOTH"
);
},
{
closed = 1;
nodes = (
"11 958 LINE"
);
},
{
closed = 1;
nodes = (
"9 1172 LINE"
);
},
{
closed = 1;
nodes = (
"9 926 LINE"
);
}
);
width = 0;
}
);
note = DammaRevNS;
unicode = 065D;
},
{
glyphname = Fatha2dotsNS;
lastChange = "2019-08-09 22:57:09 +0000";
layers = (
{
layerId = "5E96EFD4-BDA9-4728-9E21-55349679CE65";
paths = (
{
closed = 1;
nodes = (
"-80 944 OFFCURVE",
"-109 916 OFFCURVE",
"-116 888 QCURVE",
"-109 882 LINE",
"-101 891 OFFCURVE",
"-74 909 OFFCURVE",
"-56 918 QCURVE SMOOTH",
"83 994 LINE SMOOTH",
"100 1004 OFFCURVE",
"127 1034 OFFCURVE",
"138 1061 QCURVE",
"129 1066 LINE",
"122 1061 OFFCURVE",
"107 1052 QCURVE SMOOTH",
"79 1036 LINE",
"5 996 LINE",
"-32 975 LINE",
"-59 958 LINE SMOOTH"
);
},
{
closed = 1;
nodes = (
"-85 1051 LINE",
"-77 1045 OFFCURVE",
"-54 1024 OFFCURVE",
"-48 1018 QCURVE",
"-44 1018 LINE",
"-30 1027 OFFCURVE",
"-7 1050 OFFCURVE",
"-7 1061 QCURVE SMOOTH",
"-7 1070 OFFCURVE",
"-24 1087 OFFCURVE",
"-42 1099 QCURVE",
"-46 1099 LINE",
"-50 1095 OFFCURVE",
"-77 1067 OFFCURVE",
"-85 1055 QCURVE"
);
},
{
closed = 1;
nodes = (
"11 877 LINE",
"20 871 OFFCURVE",
"43 850 OFFCURVE",
"48 844 QCURVE",
"53 844 LINE",
"67 854 OFFCURVE",
"90 876 OFFCURVE",
"90 887 QCURVE SMOOTH",
"90 896 OFFCURVE",
"72 913 OFFCURVE",
"55 925 QCURVE",
"51 925 LINE",
"46 921 OFFCURVE",
"20 893 OFFCURVE",
"11 881 QCURVE"
);
},
{
closed = 1;
nodes = (
"0 940 LINE"
);
},
{
closed = 1;
nodes = (
"0 1172 LINE"
);
},
{
closed = 1;
nodes = (
"0 844 LINE"
);
}
);
width = 0;
}
);
note = Fatha2dotsNS;
unicode = 065E;
},
{
glyphname = SukunZeroNS;
lastChange = "2019-08-09 22:57:09 +0000";
layers = (
{
layerId = "5E96EFD4-BDA9-4728-9E21-55349679CE65";
paths = (
{
closed = 1;
nodes = (
"87 1027 OFFCURVE",
"41 1092 OFFCURVE",
"-2 1092 QCURVE SMOOTH",
"-40 1092 OFFCURVE",
"-89 1031 OFFCURVE",
"-89 982 QCURVE SMOOTH",
"-89 922 OFFCURVE",
"-42 857 OFFCURVE",
"1 857 QCURVE SMOOTH",
"38 857 OFFCURVE",
"87 918 OFFCURVE",
"87 968 QCURVE SMOOTH"
);
},
{
closed = 1;
nodes = (
"30 911 OFFCURVE",
"18 881 OFFCURVE",
"1 881 QCURVE SMOOTH",
"-32 881 OFFCURVE",
"-32 1008 QCURVE SMOOTH",
"-32 1039 OFFCURVE",
"-20 1069 OFFCURVE",
"-2 1069 QCURVE SMOOTH",
"30 1069 OFFCURVE",
"30 941 QCURVE SMOOTH"
);
},
{
closed = 1;
nodes = (
"0 955 LINE"
);
},
{
closed = 1;
nodes = (
"0 1165 LINE"
);
}
);
width = 0;
}
);
note = SukunZeroNS;
unicode = 06E0;
},
{
glyphname = SukunHahNS;
lastChange = "2019-08-09 22:57:09 +0000";
layers = (
{
layerId = "5E96EFD4-BDA9-4728-9E21-55349679CE65";
paths = (
{
closed = 1;
nodes = (
"19 897 OFFCURVE",
"111 969 OFFCURVE",
"116 979 QCURVE",
"112 994 LINE",
"60 1017 OFFCURVE",
"-13 1030 OFFCURVE",
"-33 1030 QCURVE SMOOTH",
"-53 1030 OFFCURVE",
"-84 996 OFFCURVE",
"-97 967 QCURVE",
"-86 961 LINE",
"-81 966 OFFCURVE",
"-66 972 OFFCURVE",
"-55 972 QCURVE SMOOTH",
"-41 972 OFFCURVE",
"2 964 OFFCURVE",
"22 959 QCURVE SMOOTH",
"46 951 LINE",
"46 948 LINE",
"41 941 OFFCURVE",
"-44 908 OFFCURVE",
"-99 893 QCURVE",
"-98 878 LINE",
"-84 879 OFFCURVE",
"-68 881 QCURVE SMOOTH",
"-36 887 LINE",
"-11 892 LINE SMOOTH"
);
},
{
closed = 1;
nodes = (
"-2 923 LINE"
);
},
{
closed = 1;
nodes = (
"0 969 LINE"
);
},
{
closed = 1;
nodes = (
"0 1103 LINE"
);
},
{
closed = 1;
nodes = (
"0 881 LINE"
);
}
);
width = 0;
}
);
note = SukunHahNS;
unicode = 06E1;
},
{
glyphname = OneDot;
lastChange = "2019-08-09 22:57:09 +0000";
layers = (
{
layerId = "5E96EFD4-BDA9-4728-9E21-55349679CE65";
paths = (
{
closed = 1;
nodes = (
"73 84 LINE",
"117 47 LINE",
"139 26 LINE",
"156 10 LINE",
"165 10 LINE",
"208 41 OFFCURVE",
"247 88 OFFCURVE",
"247 104 QCURVE SMOOTH",
"247 125 OFFCURVE",
"208 165 OFFCURVE",
"169 189 QCURVE",
"160 189 LINE",
"150 183 OFFCURVE",
"86 113 OFFCURVE",
"73 93 QCURVE"
);
}
);
width = 0;
}
);
note = OneDot;
},
{
glyphname = TwoDots;
lastChange = "2019-08-09 22:57:09 +0000";
layers = (
{
layerId = "5E96EFD4-BDA9-4728-9E21-55349679CE65";
paths = (
{
closed = 1;
nodes = (
"0 75 LINE",
"44 38 LINE",
"66 17 LINE",
"83 0 LINE",
"91 0 LINE",
"117 19 OFFCURVE",
"160 58 OFFCURVE",
"169 77 QCURVE",
"187 62 OFFCURVE",
"205 45 QCURVE SMOOTH",
"233 19 LINE",
"242 19 LINE",
"273 42 OFFCURVE",
"322 93 OFFCURVE",
"322 113 QCURVE SMOOTH",
"322 134 OFFCURVE",
"283 173 OFFCURVE",
"244 198 QCURVE",
"235 198 LINE",
"230 195 OFFCURVE",
"223 188 QCURVE SMOOTH",
"206 170 LINE SMOOTH",
"195 160 OFFCURVE",
"174 136 OFFCURVE",
"165 124 QCURVE",
"155 136 OFFCURVE",
"121 164 OFFCURVE",
"96 179 QCURVE",
"87 179 LINE",
"77 173 OFFCURVE",
"13 104 OFFCURVE",
"0 83 QCURVE"
);
}
);
width = 0;
}
);
note = TwoDots;
},
{
glyphname = ThreeDotsUp;
lastChange = "2019-08-09 22:57:09 +0000";
layers = (
{
layerId = "5E96EFD4-BDA9-4728-9E21-55349679CE65";
paths = (
{
closed = 1;
nodes = (
"40 43 OFFCURVE",
"83 0 QCURVE",
"91 0 LINE",
"154 46 OFFCURVE",
"169 77 QCURVE",
"199 52 OFFCURVE",
"233 19 QCURVE",
"242 19 LINE",
"322 77 OFFCURVE",
"322 113 QCURVE SMOOTH",
"322 134 OFFCURVE",
"282 173 OFFCURVE",
"244 198 QCURVE",
"235 198 LINE",
"223 190 OFFCURVE",
"175 137 OFFCURVE",
"164 124 QCURVE",
"160 129 OFFCURVE",
"154 135 QCURVE SMOOTH",
"134 155 OFFCURVE",
"96 179 QCURVE",
"87 179 LINE",
"76 172 OFFCURVE",
"12 102 OFFCURVE",
"0 83 QCURVE",
"0 75 LINE"
);
},
{
closed = 1;
nodes = (
"81 240 OFFCURVE",
"142 187 OFFCURVE",
"152 174 QCURVE",
"161 174 LINE",
"209 213 OFFCURVE",
"239 252 OFFCURVE",
"239 266 QCURVE SMOOTH",
"239 283 OFFCURVE",
"196 320 OFFCURVE",
"165 341 QCURVE",
"157 341 LINE",
"150 337 OFFCURVE",
"94 281 OFFCURVE",
"74 253 QCURVE",
"74 245 LINE"
);
}
);
width = 0;
}
);
note = ThreeDotsUp;
},
{
glyphname = ThreeDotsDown;
lastChange = "2019-08-09 22:57:09 +0000";
layers = (
{
layerId = "5E96EFD4-BDA9-4728-9E21-55349679CE65";
paths = (
{
closed = 1;
nodes = (
"80 -271 LINE",
"88 -277 OFFCURVE",
"99 -287 QCURVE SMOOTH",
"121 -306 LINE SMOOTH",
"133 -316 OFFCURVE",
"153 -336 OFFCURVE",
"158 -342 QCURVE",
"167 -342 LINE",
"198 -319 OFFCURVE",
"245 -275 OFFCURVE",
"245 -255 QCURVE SMOOTH",
"245 -237 OFFCURVE",
"205 -196 OFFCURVE",
"174 -175 QCURVE",
"166 -175 LINE",
"157 -180 OFFCURVE",
"99 -236 OFFCURVE",
"80 -263 QCURVE"
);
},
{
closed = 1;
nodes = (
"0 -123 LINE",
"44 -160 LINE",
"66 -181 LINE",
"83 -198 LINE",
"91 -198 LINE",
"117 -179 OFFCURVE",
"160 -140 OFFCURVE",
"169 -121 QCURVE",
"187 -136 OFFCURVE",
"222 -169 OFFCURVE",
"233 -179 QCURVE",
"242 -179 LINE",
"273 -156 OFFCURVE",
"322 -104 OFFCURVE",
"322 -84 QCURVE SMOOTH",
"322 -63 OFFCURVE",
"283 -24 OFFCURVE",
"244 0 QCURVE",
"235 0 LINE",
"230 -2 OFFCURVE",
"214 -17 OFFCURVE",
"205 -27 QCURVE SMOOTH",
"164 -74 LINE",
"154 -61 OFFCURVE",
"121 -34 OFFCURVE",
"96 -19 QCURVE",
"87 -19 LINE",
"77 -24 OFFCURVE",
"13 -94 OFFCURVE",
"0 -114 QCURVE"
);
}
);
width = 0;
}
);
note = ThreeDotsDown;
},
{
glyphname = OneDotAboveNS;
lastChange = "2019-08-09 22:57:09 +0000";
layers = (
{
layerId = "5E96EFD4-BDA9-4728-9E21-55349679CE65";
paths = (
{
closed = 1;
nodes = (
"-46 875 OFFCURVE",
"-4 832 QCURVE",
"4 832 LINE",
"87 891 OFFCURVE",
"87 926 QCURVE SMOOTH",
"87 947 OFFCURVE",
"46 987 OFFCURVE",
"9 1011 QCURVE",
"0 1011 LINE",
"-12 1003 OFFCURVE",
"-75 934 OFFCURVE",
"-87 915 QCURVE",
"-87 906 LINE"
);
},
{
closed = 1;
nodes = (
"0 921 LINE"
);
},
{
closed = 1;
nodes = (
"0 1081 LINE"
);
}
);
width = 0;
}
);
note = OneDotAboveNS;
},
{
glyphname = TwoDotsAboveNS;
lastChange = "2019-08-09 22:57:09 +0000";
layers = (
{
layerId = "5E96EFD4-BDA9-4728-9E21-55349679CE65";
paths = (
{
closed = 1;
nodes = (
"-121 867 OFFCURVE",
"-77 824 QCURVE",
"-68 824 LINE",
"-6 869 OFFCURVE",
"9 900 QCURVE",
"39 876 OFFCURVE",
"73 842 QCURVE",
"82 842 LINE",
"162 900 OFFCURVE",
"162 937 QCURVE SMOOTH",
"162 958 OFFCURVE",
"122 997 OFFCURVE",
"83 1021 QCURVE",
"75 1021 LINE",
"65 1016 OFFCURVE",
"17 963 OFFCURVE",
"4 947 QCURVE",
"-14 972 OFFCURVE",
"-64 1003 QCURVE",
"-73 1003 LINE",
"-84 996 OFFCURVE",
"-147 925 OFFCURVE",
"-160 907 QCURVE",
"-160 898 LINE"
);
},
{
closed = 1;
nodes = (
"0 923 LINE"
);
},
{
closed = 1;
nodes = (
"0 1092 LINE"
);
},
{
closed = 1;
nodes = (
"0 820 LINE"
);
}
);
width = 0;
}
);
note = TwoDotsAboveNS;
},
{
glyphname = ThreeDotsUpAboveNS;
lastChange = "2019-08-09 22:57:09 +0000";
layers = (
{
layerId = "5E96EFD4-BDA9-4728-9E21-55349679CE65";
paths = (
{
closed = 1;
nodes = (
"-121 867 OFFCURVE",
"-77 824 QCURVE",
"-68 824 LINE",
"-6 869 OFFCURVE",
"9 900 QCURVE",
"39 876 OFFCURVE",
"73 842 QCURVE",
"82 842 LINE",
"162 900 OFFCURVE",
"162 937 QCURVE SMOOTH",
"162 958 OFFCURVE",
"122 997 OFFCURVE",
"83 1021 QCURVE",
"75 1021 LINE",
"65 1015 OFFCURVE",
"17 963 OFFCURVE",
"4 947 QCURVE",
"-10 968 OFFCURVE",
"-64 1003 QCURVE",
"-73 1003 LINE",
"-84 996 OFFCURVE",
"-147 925 OFFCURVE",
"-160 907 QCURVE",
"-160 898 LINE"
);
},
{
closed = 1;
nodes = (
"-79 1063 OFFCURVE",
"-19 1010 OFFCURVE",
"-8 998 QCURVE",
"1 998 LINE",
"49 1037 OFFCURVE",
"79 1076 OFFCURVE",
"79 1089 QCURVE SMOOTH",
"79 1106 OFFCURVE",
"36 1144 OFFCURVE",
"5 1165 QCURVE",
"-2 1165 LINE",
"-10 1161 OFFCURVE",
"-66 1105 OFFCURVE",
"-86 1077 QCURVE",
"-86 1069 LINE"
);
},
{
closed = 1;
nodes = (
"0 922 LINE"
);
},
{
closed = 1;
nodes = (
"0 1235 LINE"
);
},
{
closed = 1;
nodes = (
"0 820 LINE"
);
}
);
width = 0;
}
);
note = ThreeDotsUpAboveNS;
},
{
glyphname = OneDotBelowNS;
lastChange = "2019-08-09 22:57:09 +0000";
layers = (
{
layerId = "5E96EFD4-BDA9-4728-9E21-55349679CE65";
paths = (
{
closed = 1;
nodes = (
"-46 -144 OFFCURVE",
"-4 -187 QCURVE",
"4 -187 LINE",
"87 -127 OFFCURVE",
"87 -92 QCURVE SMOOTH",
"87 -72 OFFCURVE",
"46 -32 OFFCURVE",
"9 -8 QCURVE",
"0 -8 LINE",
"-12 -16 OFFCURVE",
"-75 -85 OFFCURVE",
"-87 -104 QCURVE",
"-87 -112 LINE"
);
},
{
closed = 1;
nodes = (
"0 -99 LINE"
);
},
{
closed = 1;
nodes = (
"0 -257 LINE"
);
}
);
width = 0;
}
);
note = OneDotBelowNS;
},
{
glyphname = TwoDotsBelowNS;
lastChange = "2019-08-09 22:57:09 +0000";
layers = (
{
layerId = "5E96EFD4-BDA9-4728-9E21-55349679CE65";
paths = (
{
closed = 1;
nodes = (
"-121 -155 OFFCURVE",
"-77 -198 QCURVE",
"-68 -198 LINE",
"-5 -152 OFFCURVE",
"9 -121 QCURVE",
"39 -146 OFFCURVE",
"73 -179 QCURVE",
"82 -179 LINE",
"162 -121 OFFCURVE",
"162 -84 QCURVE SMOOTH",
"162 -63 OFFCURVE",
"122 -24 OFFCURVE",
"83 0 QCURVE",
"75 0 LINE",
"65 -6 OFFCURVE",
"17 -58 OFFCURVE",
"4 -74 QCURVE",
"-12 -50 OFFCURVE",
"-64 -19 QCURVE",
"-73 -19 LINE",
"-84 -25 OFFCURVE",
"-147 -96 OFFCURVE",
"-160 -114 QCURVE",
"-160 -123 LINE"
);
},
{
closed = 1;
nodes = (
"0 -99 LINE"
);
},
{
closed = 1;
nodes = (
"0 -268 LINE"
);
},
{
closed = 1;
nodes = (
"0 -2 LINE"
);
}
);
width = 0;
}
);
note = TwoDotsBelowNS;
},
{
glyphname = ThreeDotsDownBelowNS;
lastChange = "2019-08-09 22:57:09 +0000";
layers = (
{
layerId = "5E96EFD4-BDA9-4728-9E21-55349679CE65";
paths = (
{
closed = 1;
nodes = (
"-75 -276 OFFCURVE",
"-14 -330 OFFCURVE",
"-3 -342 QCURVE",
"5 -342 LINE",
"36 -319 OFFCURVE",
"83 -275 OFFCURVE",
"83 -255 QCURVE SMOOTH",
"83 -224 OFFCURVE",
"12 -175 QCURVE",
"4 -175 LINE",
"-4 -180 OFFCURVE",
"-63 -236 OFFCURVE",
"-82 -263 QCURVE",
"-82 -271 LINE"
);
},
{
closed = 1;
nodes = (
"-122 -155 OFFCURVE",
"-79 -198 QCURVE",
"-70 -198 LINE",
"-7 -152 OFFCURVE",
"7 -121 QCURVE",
"37 -146 OFFCURVE",
"71 -179 QCURVE",
"80 -179 LINE",
"160 -121 OFFCURVE",
"160 -84 QCURVE SMOOTH",
"160 -63 OFFCURVE",
"121 -24 OFFCURVE",
"82 0 QCURVE",
"73 0 LINE",
"64 -5 OFFCURVE",
"16 -57 OFFCURVE",
"2 -74 QCURVE",
"-9 -54 OFFCURVE",
"-66 -19 QCURVE",
"-75 -19 LINE",
"-86 -25 OFFCURVE",
"-149 -96 OFFCURVE",
"-162 -114 QCURVE",
"-162 -123 LINE"
);
},
{
closed = 1;
nodes = (
"0 -98 LINE"
);
},
{
closed = 1;
nodes = (
"0 -412 LINE"
);
},
{
closed = 1;
nodes = (
"0 70 LINE"
);
},
{
closed = 1;
nodes = (
"0 -252 LINE"
);
},
{
closed = 1;
nodes = (
"0 0 LINE"
);
}
);
width = 0;
}
);
note = ThreeDotsDownBelowNS;
},
{
glyphname = OneDotEnclNS;
lastChange = "2019-08-09 22:57:09 +0000";
layers = (
{
layerId = "5E96EFD4-BDA9-4728-9E21-55349679CE65";
paths = (
{
closed = 1;
nodes = (
"-46 171 OFFCURVE",
"-4 128 QCURVE",
"4 128 LINE",
"87 188 OFFCURVE",
"87 223 QCURVE SMOOTH",
"87 244 OFFCURVE",
"46 284 OFFCURVE",
"9 308 QCURVE",
"0 308 LINE",
"-12 300 OFFCURVE",
"-75 230 OFFCURVE",
"-87 212 QCURVE",
"-87 203 LINE"
);
},
{
closed = 1;
nodes = (
"0 217 LINE"
);
}
);
width = 0;
}
);
note = OneDotEnclNS;
},
{
glyphname = ThreeDotsDownEnclNS;
lastChange = "2019-08-09 22:57:09 +0000";
layers = (
{
layerId = "5E96EFD4-BDA9-4728-9E21-55349679CE65";
paths = (
{
closed = 1;
nodes = (
"-77 41 OFFCURVE",
"-16 -13 OFFCURVE",
"-5 -25 QCURVE",
"3 -25 LINE",
"34 -3 OFFCURVE",
"82 42 OFFCURVE",
"82 62 QCURVE SMOOTH",
"82 92 OFFCURVE",
"11 142 QCURVE",
"2 142 LINE",
"-6 136 OFFCURVE",
"-64 80 OFFCURVE",
"-83 54 QCURVE",
"-83 46 LINE"
);
},
{
closed = 1;
nodes = (
"-124 162 OFFCURVE",
"-81 119 QCURVE",
"-72 119 LINE",
"-9 164 OFFCURVE",
"6 195 QCURVE",
"35 171 OFFCURVE",
"69 137 QCURVE",
"78 137 LINE",
"158 195 OFFCURVE",
"158 232 QCURVE SMOOTH",
"158 253 OFFCURVE",
"119 292 OFFCURVE",
"80 316 QCURVE",
"71 316 LINE",
"52 305 OFFCURVE",
"0 243 QCURVE",
"-11 262 OFFCURVE",
"-68 298 QCURVE",
"-77 298 LINE",
"-88 291 OFFCURVE",
"-151 221 OFFCURVE",
"-164 202 QCURVE",
"-164 193 LINE"
);
},
{
closed = 1;
nodes = (
"0 217 LINE"
);
}
);
width = 0;
}
);
note = ThreeDotsDownEnclNS;
},
{
glyphname = ThreeDotsUpEnclNS;
lastChange = "2019-08-09 22:57:09 +0000";
layers = (
{
layerId = "5E96EFD4-BDA9-4728-9E21-55349679CE65";
paths = (
{
closed = 1;
nodes = (
"-119 17 OFFCURVE",
"-76 -26 QCURVE",
"-67 -26 LINE",
"-4 19 OFFCURVE",
"11 50 QCURVE",
"41 26 OFFCURVE",
"75 -8 QCURVE",
"83 -8 LINE",
"164 50 OFFCURVE",
"164 87 QCURVE SMOOTH",
"164 108 OFFCURVE",
"124 147 OFFCURVE",
"85 171 QCURVE",
"77 171 LINE",
"58 160 OFFCURVE",
"6 97 QCURVE",
"-12 121 OFFCURVE",
"-63 153 QCURVE",
"-71 153 LINE",
"-83 146 OFFCURVE",
"-146 76 OFFCURVE",
"-158 57 QCURVE",
"-158 48 LINE"
);
},
{
closed = 1;
nodes = (
"-77 213 OFFCURVE",
"-17 160 OFFCURVE",
"-6 147 QCURVE",
"2 147 LINE",
"51 187 OFFCURVE",
"81 226 OFFCURVE",
"81 239 QCURVE SMOOTH",
"81 257 OFFCURVE",
"38 293 OFFCURVE",
"7 314 QCURVE",
"-1 314 LINE",
"-8 311 OFFCURVE",
"-64 255 OFFCURVE",
"-84 227 QCURVE",
"-84 219 LINE"
);
},
{
closed = 1;
nodes = (
"2 73 LINE"
);
},
{
closed = 1;
nodes = (
"2 68 LINE"
);
},
{
closed = 1;
nodes = (
"0 217 LINE"
);
}
);
width = 0;
}
);
note = ThreeDotsUpEnclNS;
},
{
glyphname = TwoDotsVert;
lastChange = "2019-08-09 22:57:09 +0000";
layers = (
{
layerId = "5E96EFD4-BDA9-4728-9E21-55349679CE65";
paths = (
{
closed = 1;
nodes = (
"70 84 LINE",
"84 74 OFFCURVE",
"121 43 OFFCURVE",
"138 27 QCURVE SMOOTH",
"156 10 LINE",
"165 10 LINE",
"196 33 OFFCURVE",
"244 84 OFFCURVE",
"244 104 QCURVE SMOOTH",
"244 122 OFFCURVE",
"214 156 OFFCURVE",
"186 177 QCURVE",
"208 196 OFFCURVE",
"242 234 OFFCURVE",
"242 251 QCURVE SMOOTH",
"242 272 OFFCURVE",
"203 311 OFFCURVE",
"164 336 QCURVE",
"155 336 LINE",
"145 330 OFFCURVE",
"81 260 OFFCURVE",
"68 240 QCURVE",
"68 231 LINE",
"81 221 OFFCURVE",
"121 186 OFFCURVE",
"136 170 QCURVE",
"121 155 OFFCURVE",
"83 112 OFFCURVE",
"70 93 QCURVE"
);
},
{
closed = 1;
nodes = (
"163 106 LINE"
);
},
{
closed = 1;
nodes = (
"156 406 LINE"
);
},
{
closed = 1;
nodes = (
"161 -61 LINE"
);
},
{
closed = 1;
nodes = (
"163 254 LINE"
);
}
);
width = 0;
}
);
note = TwoDotsVert;
},
{
glyphname = FourDotsAboveNS;
lastChange = "2019-08-09 22:57:09 +0000";
layers = (
{
layerId = "5E96EFD4-BDA9-4728-9E21-55349679CE65";
paths = (
{
closed = 1;
nodes = (
"-5 189 LINE",
"10 178 LINE",
"26 164 LINE",
"42 148 LINE",
"55 135 LINE",
"42 122 LINE SMOOTH",
"30 109 OFFCURVE",
"7 81 OFFCURVE",
"0 71 QCURVE",
"0 65 LINE",
"6 60 OFFCURVE",
"24 44 OFFCURVE",
"34 37 QCURVE SMOOTH",
"51 20 LINE SMOOTH",
"59 12 OFFCURVE",
"63 7 QCURVE",
"70 7 LINE",
"92 23 OFFCURVE",
"129 57 OFFCURVE",
"132 73 QCURVE",
"146 61 OFFCURVE",
"162 46 QCURVE SMOOTH",
"188 23 LINE",
"195 23 LINE",
"218 41 OFFCURVE",
"255 80 OFFCURVE",
"255 96 QCURVE SMOOTH",
"255 111 OFFCURVE",
"229 139 OFFCURVE",
"202 156 QCURVE",
"222 173 OFFCURVE",
"251 207 OFFCURVE",
"251 221 QCURVE SMOOTH",
"251 237 OFFCURVE",
"221 267 OFFCURVE",
"190 286 QCURVE",
"184 286 LINE",
"180 283 OFFCURVE",
"167 271 OFFCURVE",
"159 262 QCURVE SMOOTH",
"141 243 LINE",
"131 231 OFFCURVE",
"125 222 QCURVE",
"118 233 OFFCURVE",
"90 255 OFFCURVE",
"68 270 QCURVE",
"62 270 LINE",
"55 267 OFFCURVE",
"10 217 OFFCURVE",
"-5 195 QCURVE"
);
},
{
closed = 1;
nodes = (
"125 107 OFFCURVE",
"98 129 OFFCURVE",
"79 142 QCURVE",
"96 155 OFFCURVE",
"125 183 OFFCURVE",
"127 196 QCURVE",
"140 187 OFFCURVE",
"154 174 QCURVE SMOOTH",
"178 152 LINE",
"168 142 OFFCURVE",
"141 112 OFFCURVE",
"129 90 QCURVE"
);
},
{
closed = 1;
nodes = (
"130 204 LINE"
);
},
{
closed = 1;
nodes = (
"130 -56 LINE"
);
},
{
closed = 1;
nodes = (
"130 107 LINE"
);
},
{
closed = 1;
nodes = (
"130 349 LINE"
);
},
{
closed = 1;
nodes = (
"130 7 LINE"
);
},
{
closed = 1;
nodes = (
"130 286 LINE"
);
}
);
width = 0;
}
);
note = FourDotsAboveNS;
},
{
glyphname = FourDots;
lastChange = "2019-08-09 22:57:09 +0000";
layers = (
{
layerId = "5E96EFD4-BDA9-4728-9E21-55349679CE65";
paths = (
{
closed = 1;
nodes = (
"-5 210 LINE",
"11 198 LINE",
"29 182 LINE",
"47 165 LINE",
"62 150 LINE",
"47 135 LINE SMOOTH",
"33 121 OFFCURVE",
"8 90 OFFCURVE",
"0 79 QCURVE",
"0 72 LINE",
"7 67 OFFCURVE",
"27 49 OFFCURVE",
"38 41 QCURVE SMOOTH",
"57 22 LINE SMOOTH",
"66 13 OFFCURVE",
"70 8 QCURVE",
"78 8 LINE",
"102 25 OFFCURVE",
"143 63 OFFCURVE",
"147 81 QCURVE",
"163 68 OFFCURVE",
"180 51 QCURVE SMOOTH",
"208 25 LINE",
"216 25 LINE",
"243 45 OFFCURVE",
"284 89 OFFCURVE",
"284 106 QCURVE SMOOTH",
"284 123 OFFCURVE",
"254 155 OFFCURVE",
"224 174 QCURVE",
"247 192 OFFCURVE",
"279 229 OFFCURVE",
"279 245 QCURVE SMOOTH",
"279 264 OFFCURVE",
"245 296 OFFCURVE",
"211 317 QCURVE",
"204 317 LINE",
"200 314 OFFCURVE",
"186 301 OFFCURVE",
"177 291 QCURVE SMOOTH",
"156 270 LINE",
"146 257 OFFCURVE",
"138 247 QCURVE",
"131 259 OFFCURVE",
"100 284 OFFCURVE",
"76 300 QCURVE",
"68 300 LINE",
"62 296 OFFCURVE",
"11 242 OFFCURVE",
"-5 217 QCURVE"
);
},
{
closed = 1;
nodes = (
"138 120 OFFCURVE",
"109 144 OFFCURVE",
"88 157 QCURVE",
"106 172 OFFCURVE",
"138 203 OFFCURVE",
"142 218 QCURVE",
"156 208 OFFCURVE",
"171 193 QCURVE SMOOTH",
"198 169 LINE",
"187 157 OFFCURVE",
"156 124 OFFCURVE",
"144 100 QCURVE"
);
},
{
closed = 1;
nodes = (
"145 227 LINE"
);
},
{
closed = 1;
nodes = (
"145 -63 LINE"
);
},
{
closed = 1;
nodes = (
"145 119 LINE"
);
},
{
closed = 1;
nodes = (
"145 388 LINE"
);
},
{
closed = 1;
nodes = (
"145 8 LINE"
);
},
{
closed = 1;
nodes = (
"145 317 LINE"
);
}
);
width = 0;
}
);
note = FourDots;
},
{
glyphname = Madda.shortNS;
lastChange = "2019-08-09 22:57:09 +0000";
layers = (
{
layerId = "5E96EFD4-BDA9-4728-9E21-55349679CE65";
paths = (
{
closed = 1;
nodes = (
"-194 884 LINE",
"-177 908 OFFCURVE",
"-153 925 OFFCURVE",
"-135 925 QCURVE SMOOTH",
"-127 925 OFFCURVE",
"-121 925 QCURVE",
"-106 923 LINE",
"-63 915 LINE SMOOTH",
"-30 910 OFFCURVE",
"7 907 OFFCURVE",
"17 907 QCURVE SMOOTH",
"103 907 OFFCURVE",
"215 978 OFFCURVE",
"267 1047 QCURVE",
"254 1057 LINE",
"229 1035 OFFCURVE",
"155 1009 OFFCURVE",
"80 1009 QCURVE SMOOTH",
"70 1009 OFFCURVE",
"24 1013 OFFCURVE",
"-13 1020 QCURVE SMOOTH",
"-55 1026 LINE SMOOTH",
"-71 1029 OFFCURVE",
"-81 1029 QCURVE SMOOTH",
"-112 1029 OFFCURVE",
"-179 967 OFFCURVE",
"-214 893 QCURVE"
);
},
{
closed = 1;
nodes = (
"0 1100 LINE"
);
},
{
closed = 1;
nodes = (
"0 980 LINE"
);
}
);
width = 0;
}
);
note = Madda.shortNS;
},
{
glyphname = Madda.shorterNS;
lastChange = "2019-08-09 22:57:09 +0000";
layers = (
{
layerId = "5E96EFD4-BDA9-4728-9E21-55349679CE65";
paths = (
{
closed = 1;
nodes = (
"-152 884 LINE",
"-137 908 OFFCURVE",
"-117 925 OFFCURVE",
"-102 925 QCURVE SMOOTH",
"-96 925 OFFCURVE",
"-90 925 QCURVE",
"-77 923 LINE",
"-42 915 LINE SMOOTH",
"-13 910 OFFCURVE",
"19 907 OFFCURVE",
"27 907 QCURVE SMOOTH",
"99 907 OFFCURVE",
"193 974 OFFCURVE",
"240 1047 QCURVE",
"228 1056 LINE",
"205 1033 OFFCURVE",
"147 1009 OFFCURVE",
"87 1009 QCURVE SMOOTH",
"54 1009 OFFCURVE",
"-29 1026 OFFCURVE",
"-47 1026 QCURVE SMOOTH",
"-80 1026 OFFCURVE",
"-144 959 OFFCURVE",
"-172 892 QCURVE"
);
},
{
closed = 1;
nodes = (
"0 980 LINE"
);
},
{
closed = 1;
nodes = (
"0 1100 LINE"
);
}
);
width = 0;
}
);
note = Madda.shorterNS;
},
{
glyphname = WaslaNS;
lastChange = "2019-08-09 22:57:09 +0000";
layers = (
{
layerId = "5E96EFD4-BDA9-4728-9E21-55349679CE65";
paths = (
{
closed = 1;
nodes = (
"-112 886 OFFCURVE",
"-94 897 OFFCURVE",
"-82 897 QCURVE SMOOTH",
"-69 897 OFFCURVE",
"-32 881 OFFCURVE",
"-14 881 QCURVE SMOOTH",
"45 881 OFFCURVE",
"134 976 OFFCURVE",
"134 1021 QCURVE SMOOTH",
"134 1033 OFFCURVE",
"117 1049 OFFCURVE",
"100 1049 QCURVE SMOOTH",
"63 1049 OFFCURVE",
"-5 991 OFFCURVE",
"-26 964 QCURVE SMOOTH",
"-44 940 LINE",
"-53 945 OFFCURVE",
"-66 945 QCURVE SMOOTH",
"-86 945 OFFCURVE",
"-121 909 OFFCURVE",
"-132 879 QCURVE",
"-123 875 LINE"
);
},
{
closed = 1;
nodes = (
"38 936 LINE",
"28 934 OFFCURVE",
"9 930 OFFCURVE",
"-2 930 QCURVE",
"-9 931 OFFCURVE",
"-20 931 OFFCURVE",
"-26 934 QCURVE",
"-10 953 LINE SMOOTH",
"13 979 OFFCURVE",
"49 998 OFFCURVE",
"67 998 QCURVE SMOOTH",
"74 998 OFFCURVE",
"97 990 OFFCURVE",
"97 979 QCURVE SMOOTH",
"97 969 OFFCURVE",
"74 950 OFFCURVE",
"55 943 QCURVE SMOOTH"
);
},
{
closed = 1;
nodes = (
"1 973 LINE"
);
},
{
closed = 1;
nodes = (
"0 1117 LINE"
);
}
);
width = 0;
}
);
note = WaslaNS;
},
{
glyphname = HamzaAboveAF_NS;
lastChange = "2019-08-09 22:57:09 +0000";
layers = (
{
layerId = "5E96EFD4-BDA9-4728-9E21-55349679CE65";
paths = (
{
closed = 1;
nodes = (
"0 1136 LINE"
);
},
{
closed = 1;
nodes = (
"0 917 LINE"
);
},
{
closed = 1;
nodes = (
"124 984 LINE",
"107 968 OFFCURVE",
"63 942 OFFCURVE",
"46 942 QCURVE SMOOTH",
"18 942 OFFCURVE",
"-16 966 OFFCURVE",
"-16 983 QCURVE SMOOTH",
"-16 1001 OFFCURVE",
"18 1024 OFFCURVE",
"36 1024 QCURVE SMOOTH",
"56 1024 OFFCURVE",
"70 1010 QCURVE",
"75 1010 LINE",
"81 1013 OFFCURVE",
"90 1027 OFFCURVE",
"90 1037 QCURVE SMOOTH",
"90 1051 OFFCURVE",
"68 1065 OFFCURVE",
"54 1065 QCURVE SMOOTH",
"18 1065 OFFCURVE",
"-70 978 OFFCURVE",
"-70 940 QCURVE SMOOTH",
"-70 920 OFFCURVE",
"-51 903 OFFCURVE",
"-47 896 QCURVE",
"-48 893 LINE",
"-62 885 OFFCURVE",
"-96 848 OFFCURVE",
"-103 824 QCURVE",
"-96 817 LINE",
"-52 849 OFFCURVE",
"70 904 OFFCURVE",
"119 938 OFFCURVE",
"133 979 QCURVE"
);
},
{
closed = 1;
nodes = (
"0 747 LINE"
);
},
{
closed = 1;
nodes = (
"0 970 LINE"
);
},
{
closed = 1;
nodes = (
"0 835 LINE"
);
},
{
closed = 1;
nodes = (
"0 1099 LINE"
);
}
);
width = 0;
}
);
note = HamzaAboveAF_NS;
},
{
glyphname = AlefSuperiorTallNS;
lastChange = "2019-08-09 22:57:09 +0000";
layers = (
{
layerId = "5E96EFD4-BDA9-4728-9E21-55349679CE65";
paths = (
{
closed = 1;
nodes = (
"-11 815 LINE",
"3 849 OFFCURVE",
"21 922 OFFCURVE",
"23 954 QCURVE SMOOTH",
"28 1038 LINE SMOOTH",
"30 1071 OFFCURVE",
"36 1128 OFFCURVE",
"41 1139 QCURVE",
"30 1143 LINE",
"12 1107 OFFCURVE",
"-10 1040 OFFCURVE",
"-10 1018 QCURVE SMOOTH",
"-14 913 LINE SMOOTH",
"-16 880 OFFCURVE",
"-21 827 OFFCURVE",
"-23 818 QCURVE"
);
},
{
closed = 1;
nodes = (
"-1 912 LINE"
);
},
{
closed = 1;
nodes = (
"0 1213 LINE"
);
}
);
width = 0;
}
);
note = AlefSuperiorTallNS;
},
{
glyphname = NoonGhunnaMarkKshmrNS;
lastChange = "2019-08-09 22:57:09 +0000";
layers = (
{
layerId = "5E96EFD4-BDA9-4728-9E21-55349679CE65";
paths = (
{
closed = 1;
nodes = (
"-107 944 LINE",
"-95 997 OFFCURVE",
"-31 1042 OFFCURVE",
"14 1042 QCURVE SMOOTH",
"48 1042 OFFCURVE",
"89 1014 OFFCURVE",
"89 977 QCURVE SMOOTH",
"89 964 LINE SMOOTH",
"89 958 OFFCURVE",
"87 951 QCURVE",
"109 949 LINE",
"114 967 OFFCURVE",
"118 994 OFFCURVE",
"118 1007 QCURVE SMOOTH",
"118 1058 OFFCURVE",
"63 1107 OFFCURVE",
"18 1107 QCURVE SMOOTH",
"-43 1107 OFFCURVE",
"-128 1008 OFFCURVE",
"-130 944 QCURVE"
);
},
{
closed = 1;
nodes = (
"2 989 LINE"
);
},
{
closed = 1;
nodes = (
"2 931 LINE"
);
},
{
closed = 1;
nodes = (
"15 1147 LINE"
);
}
);
width = 0;
}
);
note = NoonGhunnaMarkKshmrNS;
},
{
glyphname = SharetKafNS;
lastChange = "2019-08-09 22:57:09 +0000";
layers = (
{
layerId = "5E96EFD4-BDA9-4728-9E21-55349679CE65";
paths = (
{
closed = 1;
nodes = (
"499 611 OFFCURVE",
"514 632 OFFCURVE",
"541 650 QCURVE",
"555 694 LINE",
"547 702 LINE",
"512 679 OFFCURVE",
"427 575 OFFCURVE",
"427 545 QCURVE SMOOTH",
"427 531 OFFCURVE",
"455 497 OFFCURVE",
"455 489 QCURVE SMOOTH",
"455 466 OFFCURVE",
"353 402 QCURVE",
"360 389 LINE",
"404 398 OFFCURVE",
"438 415 QCURVE",
"483 456 OFFCURVE",
"529 519 OFFCURVE",
"529 546 QCURVE SMOOTH",
"529 563 OFFCURVE",
"513 578 QCURVE SMOOTH",
"499 592 OFFCURVE",
"499 600 QCURVE SMOOTH"
);
},
{
closed = 1;
nodes = (
"479 549 LINE"
);
}
);
width = 0;
}
);
note = SharetKafNS;
},
{
glyphname = SharetYehPashtoNS;
lastChange = "2019-08-09 22:57:09 +0000";
layers = (
{
layerId = "5E96EFD4-BDA9-4728-9E21-55349679CE65";
paths = (
{
closed = 1;
nodes = (
"221 381 OFFCURVE",
"195 381 QCURVE SMOOTH",
"133 381 OFFCURVE",
"-16 279 OFFCURVE",
"-68 191 QCURVE",
"-51 180 LINE",
"0 232 OFFCURVE",
"102 280 OFFCURVE",
"171 279 OFFCURVE",
"221 358 OFFCURVE",
"221 367 QCURVE SMOOTH"
);
},
{
closed = 1;
nodes = (
"217 355 LINE"
);
}
);
width = 0;
}
);
note = SharetYehPashtoNS;
},
{
glyphname = Crossbar;
lastChange = "2019-08-09 22:57:09 +0000";
layers = (
{
layerId = "5E96EFD4-BDA9-4728-9E21-55349679CE65";
paths = (
{
closed = 1;
nodes = (
"-142 251 LINE",
"55 263 OFFCURVE",
"104 286 OFFCURVE",
"133 333 QCURVE",
"129 341 LINE",
"75 330 OFFCURVE",
"-102 316 QCURVE",
"-145 263 LINE"
);
},
{
closed = 1;
nodes = (
"0 292 LINE"
);
}
);
width = 0;
}
);
note = Crossbar;
},
{
glyphname = SukunNS;
lastChange = "2019-08-09 22:57:09 +0000";
layers = (
{
layerId = "5E96EFD4-BDA9-4728-9E21-55349679CE65";
paths = (
{
closed = 1;
nodes = (
"74 998 OFFCURVE",
"34 1056 OFFCURVE",
"6 1056 QCURVE SMOOTH",
"-30 1056 OFFCURVE",
"-76 986 OFFCURVE",
"-76 942 QCURVE SMOOTH",
"-76 909 OFFCURVE",
"-40 869 OFFCURVE",
"-9 869 QCURVE SMOOTH",
"30 869 OFFCURVE",
"74 921 OFFCURVE",
"74 961 QCURVE SMOOTH"
);
},
{
closed = 1;
nodes = (
"19 1003 OFFCURVE",
"46 980 OFFCURVE",
"46 964 QCURVE SMOOTH",
"46 944 OFFCURVE",
"17 919 OFFCURVE",
"-2 919 QCURVE SMOOTH",
"-28 919 OFFCURVE",
"-46 942 OFFCURVE",
"-46 957 QCURVE SMOOTH",
"-46 976 OFFCURVE",
"-20 1003 OFFCURVE",
"-1 1003 QCURVE SMOOTH"
);
},
{
closed = 1;
nodes = (
"0 967 LINE"
);
},
{
closed = 1;
nodes = (
"0 1127 LINE"
);
}
);
width = 0;
}
);
note = SukunNS;
},
{
glyphname = TahSmallNS;
lastChange = "2019-08-09 22:57:09 +0000";
layers = (
{
layerId = "5E96EFD4-BDA9-4728-9E21-55349679CE65";
paths = (
{
closed = 1;
nodes = (
"-8 1149 OFFCURVE",
"-24 1104 OFFCURVE",
"-28 1072 OFFCURVE",
"-31 996 QCURVE SMOOTH",
"-34 935 OFFCURVE",
"-41 917 QCURVE",
"-75 875 LINE",
"-117 866 OFFCURVE",
"-137 864 QCURVE",
"-139 845 LINE",
"-99 838 OFFCURVE",
"-41 838 QCURVE SMOOTH",
"-1 838 OFFCURVE",
"71 868 OFFCURVE",
"129 951 OFFCURVE",
"129 986 QCURVE SMOOTH",
"129 999 OFFCURVE",
"108 1018 OFFCURVE",
"90 1018 QCURVE SMOOTH",
"59 1018 OFFCURVE",
"28 993 QCURVE SMOOTH",
"15 982 OFFCURVE",
"-4 960 QCURVE",
"6 996 OFFCURVE",
"9 1033 QCURVE SMOOTH",
"16 1149 OFFCURVE",
"24 1173 QCURVE",
"9 1177 LINE"
);
},
{
closed = 1;
nodes = (
"87 918 OFFCURVE",
"-1 892 QCURVE SMOOTH",
"-20 887 OFFCURVE",
"-33 884 QCURVE",
"3 931 OFFCURVE",
"21 946 QCURVE SMOOTH",
"40 961 OFFCURVE",
"62 961 QCURVE SMOOTH",
"71 961 OFFCURVE",
"87 952 OFFCURVE",
"87 942 QCURVE SMOOTH"
);
},
{
closed = 1;
nodes = (
"-2 923 LINE"
);
},
{
closed = 1;
nodes = (
"0 934 LINE"
);
},
{
closed = 1;
nodes = (
"0 1244 LINE"
);
},
{
closed = 1;
nodes = (
"0 1080 LINE"
);
},
{
closed = 1;
nodes = (
"0 767 LINE"
);
},
{
closed = 1;
nodes = (
"0 837 LINE"
);
}
);
width = 0;
}
);
note = TahSmallNS;
},
{
glyphname = Tah2DotsBelowNS;
lastChange = "2019-08-09 22:57:09 +0000";
layers = (
{
layerId = "5E96EFD4-BDA9-4728-9E21-55349679CE65";
paths = (
{
closed = 1;
nodes = (
"-35 -351 LINE",
"-32 -351 LINE",
"-7 -333 OFFCURVE",
"0 -320 QCURVE",
"26 -345 LINE",
"30 -345 LINE",
"64 -319 OFFCURVE",
"64 -307 QCURVE SMOOTH",
"64 -298 OFFCURVE",
"48 -282 OFFCURVE",
"33 -271 QCURVE",
"29 -271 LINE",
"11 -289 LINE",
"0 -302 LINE",
"-8 -291 OFFCURVE",
"-30 -277 QCURVE",
"-33 -277 LINE",
"-37 -279 OFFCURVE",
"-64 -309 OFFCURVE",
"-68 -316 QCURVE",
"-68 -320 LINE"
);
},
{
closed = 1;
nodes = (
"-57 -253 OFFCURVE",
"-23 -253 QCURVE SMOOTH",
"22 -253 OFFCURVE",
"75 -194 OFFCURVE",
"75 -168 QCURVE SMOOTH",
"75 -162 OFFCURVE",
"63 -150 OFFCURVE",
"52 -150 QCURVE SMOOTH",
"39 -150 OFFCURVE",
"15 -164 OFFCURVE",
"-2 -183 QCURVE",
"3 -163 OFFCURVE",
"5 -143 QCURVE SMOOTH",
"9 -75 OFFCURVE",
"13 -61 QCURVE",
"5 -58 LINE",
"-4 -75 OFFCURVE",
"-14 -100 OFFCURVE",
"-16 -119 OFFCURVE",
"-18 -163 QCURVE SMOOTH",
"-20 -198 OFFCURVE",
"-23 -208 QCURVE",
"-43 -233 LINE",
"-79 -238 LINE",
"-80 -250 LINE"
);
},
{
closed = 1;
nodes = (
"2 -200 OFFCURVE",
"23 -182 OFFCURVE",
"35 -182 QCURVE SMOOTH",
"41 -182 OFFCURVE",
"50 -188 OFFCURVE",
"50 -193 QCURVE SMOOTH",
"50 -204 OFFCURVE",
"-3 -226 OFFCURVE",
"-19 -227 QCURVE"
);
},
{
closed = 1;
nodes = (
"-2 -205 LINE"
);
},
{
closed = 1;
nodes = (
"0 -199 LINE"
);
},
{
closed = 1;
nodes = (
"0 -158 LINE"
);
},
{
closed = 1;
nodes = (
"0 -424 LINE"
);
}
);
width = 0;
}
);
note = Tah2DotsBelowNS;
},
{
glyphname = Tah2DotsAboveNS;
lastChange = "2019-08-09 22:57:09 +0000";
layers = (
{
layerId = "5E96EFD4-BDA9-4728-9E21-55349679CE65";
paths = (
{
closed = 1;
nodes = (
"-55 805 LINE",
"-49 805 LINE",
"-11 833 OFFCURVE",
"0 853 QCURVE",
"42 814 LINE",
"47 814 LINE",
"100 853 OFFCURVE",
"100 875 QCURVE SMOOTH",
"100 888 OFFCURVE",
"76 913 OFFCURVE",
"50 929 QCURVE",
"45 929 LINE",
"31 919 OFFCURVE",
"-1 881 QCURVE",
"-11 898 OFFCURVE",
"-46 920 QCURVE",
"-52 920 LINE",
"-58 916 OFFCURVE",
"-100 871 OFFCURVE",
"-108 859 QCURVE",
"-108 854 LINE"
);
},
{
closed = 1;
nodes = (
"-89 958 OFFCURVE",
"-36 958 QCURVE SMOOTH",
"35 958 OFFCURVE",
"116 1048 OFFCURVE",
"116 1091 QCURVE SMOOTH",
"116 1101 OFFCURVE",
"98 1119 OFFCURVE",
"82 1119 QCURVE SMOOTH",
"40 1119 OFFCURVE",
"-3 1068 QCURVE",
"5 1100 OFFCURVE",
"8 1132 QCURVE SMOOTH",
"14 1237 OFFCURVE",
"21 1259 QCURVE",
"8 1262 LINE",
"-7 1237 OFFCURVE",
"-22 1196 OFFCURVE",
"-25 1168 OFFCURVE",
"-27 1100 QCURVE SMOOTH",
"-31 1045 OFFCURVE",
"-36 1029 QCURVE",
"-67 990 LINE",
"-105 982 OFFCURVE",
"-123 981 QCURVE",
"-125 963 LINE"
);
},
{
closed = 1;
nodes = (
"3 1041 OFFCURVE",
"20 1054 QCURVE",
"35 1069 OFFCURVE",
"55 1069 QCURVE SMOOTH",
"64 1069 OFFCURVE",
"78 1060 OFFCURVE",
"78 1051 QCURVE SMOOTH",
"78 1038 OFFCURVE",
"15 1008 OFFCURVE",
"-29 999 QCURVE"
);
},
{
closed = 1;
nodes = (
"-2 1034 LINE"
);
},
{
closed = 1;
nodes = (
"0 1044 LINE"
);
},
{
closed = 1;
nodes = (
"0 1331 LINE"
);
},
{
closed = 1;
nodes = (
"0 1175 LINE"
);
},
{
closed = 1;
nodes = (
"0 912 LINE"
);
},
{
closed = 1;
nodes = (
"0 811 LINE"
);
}
);
width = 0;
}
);
note = Tah2DotsAboveNS;
},
{
glyphname = HehCommaNS;
lastChange = "2019-08-09 22:57:09 +0000";
layers = (
{
layerId = "5E96EFD4-BDA9-4728-9E21-55349679CE65";
paths = (
{
closed = 1;
nodes = (
"157 -158 LINE",
"131 -212 OFFCURVE",
"93 -344 OFFCURVE",
"93 -382 QCURVE SMOOTH",
"93 -419 OFFCURVE",
"124 -463 OFFCURVE",
"151 -463 QCURVE SMOOTH",
"191 -463 OFFCURVE",
"235 -399 OFFCURVE",
"235 -367 QCURVE SMOOTH",
"235 -321 OFFCURVE",
"199 -321 QCURVE SMOOTH",
"191 -321 OFFCURVE",
"187 -325 QCURVE",
"166 -361 LINE",
"153 -357 OFFCURVE",
"153 -316 QCURVE SMOOTH",
"153 -284 OFFCURVE",
"173 -198 OFFCURVE",
"187 -168 QCURVE"
);
},
{
closed = 1;
nodes = (
"154 -535 LINE"
);
},
{
closed = 1;
nodes = (
"163 -316 LINE"
);
},
{
closed = 1;
nodes = (
"242 -869 LINE"
);
},
{
closed = 1;
nodes = (
"128 -250 LINE"
);
}
);
width = 0;
}
);
note = HehCommaNS;
},
{
glyphname = OneDotSmall;
lastChange = "2019-08-09 22:57:09 +0000";
layers = (
{
layerId = "5E96EFD4-BDA9-4728-9E21-55349679CE65";
paths = (
{
closed = 1;
nodes = (
"58 68 LINE",
"93 38 LINE",
"111 21 LINE",
"125 8 LINE",
"132 8 LINE",
"166 33 OFFCURVE",
"198 70 OFFCURVE",
"198 83 QCURVE SMOOTH",
"198 100 OFFCURVE",
"167 132 OFFCURVE",
"135 151 QCURVE",
"128 151 LINE",
"121 146 OFFCURVE",
"68 90 OFFCURVE",
"58 75 QCURVE"
);
},
{
closed = 1;
nodes = (
"134 80 LINE"
);
}
);
width = 0;
}
);
note = OneDotSmall;
},
{
glyphname = FourFarsi;
lastChange = "2019-08-09 22:57:09 +0000";
layers = (
{
layerId = "5E96EFD4-BDA9-4728-9E21-55349679CE65";
paths = (
{
closed = 1;
nodes = (
"154 -2 LINE",
"182 65 OFFCURVE",
"200 190 OFFCURVE",
"200 324 QCURVE SMOOTH",
"200 347 OFFCURVE",
"198 395 OFFCURVE",
"195 417 QCURVE",
"223 395 OFFCURVE",
"284 395 QCURVE SMOOTH",
"374 395 OFFCURVE",
"509 521 OFFCURVE",
"521 620 QCURVE",
"499 622 LINE",
"485 579 OFFCURVE",
"415 515 OFFCURVE",
"367 515 QCURVE SMOOTH",
"332 515 OFFCURVE",
"280 563 OFFCURVE",
"280 597 QCURVE SMOOTH",
"280 627 OFFCURVE",
"331 657 OFFCURVE",
"367 657 QCURVE SMOOTH",
"402 657 OFFCURVE",
"427 635 QCURVE",
"433 634 LINE",
"444 639 OFFCURVE",
"460 671 OFFCURVE",
"460 688 QCURVE SMOOTH",
"460 711 OFFCURVE",
"422 736 OFFCURVE",
"398 736 QCURVE SMOOTH",
"348 736 OFFCURVE",
"255 666 OFFCURVE",
"208 571 OFFCURVE",
"208 525 QCURVE SMOOTH",
"208 525 LINE",
"186 540 OFFCURVE",
"178 558 QCURVE",
"164 645 OFFCURVE",
"156 670 QCURVE",
"145 670 LINE",
"134 647 OFFCURVE",
"102 562 OFFCURVE",
"95 536 QCURVE",
"109 459 LINE",
"128 377 OFFCURVE",
"138 171 QCURVE",
"138 122 LINE SMOOTH",
"138 36 OFFCURVE",
"133 2 QCURVE"
);
}
);
width = 567;
}
);
note = FourFarsi;
},
{
glyphname = SixFarsi;
lastChange = "2019-08-09 22:57:09 +0000";
layers = (
{
layerId = "5E96EFD4-BDA9-4728-9E21-55349679CE65";
paths = (
{
closed = 1;
nodes = (
"114 409 OFFCURVE",
"170 341 OFFCURVE",
"222 329 QCURVE",
"173 273 OFFCURVE",
"94 107 OFFCURVE",
"79 4 QCURVE",
"99 -1 LINE",
"185 216 OFFCURVE",
"366 346 QCURVE SMOOTH",
"419 383 LINE",
"449 430 OFFCURVE",
"472 499 QCURVE",
"463 503 LINE",
"422 467 OFFCURVE",
"342 435 OFFCURVE",
"304 435 QCURVE SMOOTH",
"264 435 OFFCURVE",
"200 485 OFFCURVE",
"200 521 QCURVE SMOOTH",
"200 554 OFFCURVE",
"260 587 OFFCURVE",
"304 587 QCURVE SMOOTH",
"358 587 OFFCURVE",
"392 562 QCURVE",
"400 561 LINE",
"412 567 OFFCURVE",
"432 602 OFFCURVE",
"432 625 QCURVE SMOOTH",
"432 648 OFFCURVE",
"377 677 OFFCURVE",
"341 677 QCURVE SMOOTH",
"261 677 OFFCURVE",
"114 540 OFFCURVE",
"114 455 QCURVE SMOOTH"
);
}
);
width = 567;
}
);
note = SixFarsi;
},
{
glyphname = ZeroFarsi_alt;
lastChange = "2019-08-09 22:57:09 +0000";
layers = (
{
layerId = "5E96EFD4-BDA9-4728-9E21-55349679CE65";
paths = (
{
closed = 1;
nodes = (
"384 382 OFFCURVE",
"308 460 OFFCURVE",
"255 460 QCURVE SMOOTH",
"204 460 OFFCURVE",
"131 383 OFFCURVE",
"131 327 QCURVE SMOOTH",
"131 269 OFFCURVE",
"203 197 OFFCURVE",
"256 197 QCURVE SMOOTH",
"315 197 OFFCURVE",
"384 270 OFFCURVE",
"384 324 QCURVE SMOOTH"
);
},
{
closed = 1;
nodes = (
"288 399 OFFCURVE",
"330 361 OFFCURVE",
"330 331 QCURVE SMOOTH",
"330 261 OFFCURVE",
"256 261 QCURVE SMOOTH",
"225 261 OFFCURVE",
"186 301 OFFCURVE",
"186 330 QCURVE SMOOTH",
"186 358 OFFCURVE",
"230 399 OFFCURVE",
"257 399 QCURVE SMOOTH"
);
}
);
width = 512;
}
);
note = ZeroFarsi_alt;
},
{
glyphname = DecimalPointFarsi;
lastChange = "2019-08-09 22:57:09 +0000";
layers = (
{
layerId = "5E96EFD4-BDA9-4728-9E21-55349679CE65";
paths = (
{
closed = 1;
nodes = (
"323 222 LINE",
"242 176 OFFCURVE",
"92 -29 OFFCURVE",
"65 -133 QCURVE",
"81 -141 LINE",
"117 -75 OFFCURVE",
"184 0 OFFCURVE",
"280 61 QCURVE",
"290 68 OFFCURVE",
"306 83 OFFCURVE",
"310 95 QCURVE",
"327 158 LINE SMOOTH",
"331 174 OFFCURVE",
"334 189 QCURVE SMOOTH",
"337 204 OFFCURVE",
"337 213 QCURVE"
);
}
);
width = 387;
}
);
note = DecimalPointFarsi;
},
{
glyphname = Divine_nm_p1;
lastChange = "2019-08-09 22:57:09 +0000";
layers = (
{
layerId = "5E96EFD4-BDA9-4728-9E21-55349679CE65";
paths = (
{
closed = 1;
nodes = (
"565 339 OFFCURVE",
"564 432 QCURVE SMOOTH",
"564 442 OFFCURVE",
"565 452 QCURVE",
"542 455 LINE",
"503 306 OFFCURVE",
"407 306 QCURVE SMOOTH",
"373 306 OFFCURVE",
"331 349 OFFCURVE",
"331 391 QCURVE SMOOTH",
"331 408 OFFCURVE",
"333 422 QCURVE",
"316 428 LINE",
"288 391 OFFCURVE",
"99 189 OFFCURVE",
"28 121 QCURVE",
"44 104 LINE",
"125 159 OFFCURVE",
"233 251 QCURVE",
"242 204 OFFCURVE",
"310 147 OFFCURVE",
"367 147 QCURVE SMOOTH",
"417 147 OFFCURVE",
"488 193 OFFCURVE",
"506 224 QCURVE",
"534 181 OFFCURVE",
"594 181 QCURVE SMOOTH",
"641 181 OFFCURVE",
"714 244 OFFCURVE",
"760 336 OFFCURVE",
"784 440 OFFCURVE",
"793 584 QCURVE SMOOTH",
"796 644 OFFCURVE",
"805 681 QCURVE",
"786 689 LINE",
"728 588 OFFCURVE",
"728 494 QCURVE SMOOTH",
"728 456 OFFCURVE",
"725 413 QCURVE",
"721 381 OFFCURVE",
"677 339 OFFCURVE",
"640 339 QCURVE SMOOTH"
);
}
);
width = 802;
}
);
note = Divine_nm_p1;
},
{
glyphname = AlefSep;
lastChange = "2019-08-09 22:57:09 +0000";
layers = (
{
layerId = "5E96EFD4-BDA9-4728-9E21-55349679CE65";
paths = (
{
closed = 1;
nodes = (
"123 101 LINE",
"186 248 OFFCURVE",
"192 377 QCURVE SMOOTH",
"208 659 LINE SMOOTH",
"216 821 OFFCURVE",
"233 861 QCURVE",
"212 869 LINE",
"177 791 OFFCURVE",
"143 693 OFFCURVE",
"132 621 OFFCURVE",
"128 544 QCURVE SMOOTH",
"119 295 LINE SMOOTH",
"111 150 OFFCURVE",
"101 106 QCURVE"
);
},
{
closed = 1;
nodes = (
"211 1103 LINE"
);
},
{
closed = 1;
nodes = (
"212 998 LINE"
);
},
{
closed = 1;
nodes = (
"103 -58 LINE"
);
}
);
width = 330;
}
);
note = AlefSep;
},
{
glyphname = AlefFin;
lastChange = "2019-08-09 22:57:09 +0000";
layers = (
{
layerId = "5E96EFD4-BDA9-4728-9E21-55349679CE65";
paths = (
{
closed = 1;
nodes = (
"121 106 OFFCURVE",
"193 0 OFFCURVE",
"264 0 QCURVE SMOOTH",
"301 0 OFFCURVE",
"356 52 OFFCURVE",
"356 101 QCURVE SMOOTH",
"356 158 OFFCURVE",
"313 158 QCURVE SMOOTH",
"266 158 OFFCURVE",
"213 210 OFFCURVE",
"189 297 OFFCURVE",
"189 396 QCURVE SMOOTH",
"189 682 OFFCURVE",
"212 819 QCURVE",
"191 825 LINE",
"167 767 OFFCURVE",
"143 666 OFFCURVE",
"121 379 OFFCURVE",
"121 223 QCURVE SMOOTH"
);
},
{
closed = 1;
nodes = (
"207 1059 LINE"
);
},
{
closed = 1;
nodes = (
"208 953 LINE"
);
},
{
closed = 1;
nodes = (
"151 -176 LINE"
);
}
);
width = 264;
}
);
note = AlefFin;
},
{
glyphname = BehxSep;
lastChange = "2019-08-09 22:57:09 +0000";
layers = (
{
layerId = "5E96EFD4-BDA9-4728-9E21-55349679CE65";
paths = (
{
closed = 1;
nodes = (
"58 71 OFFCURVE",
"194 -17 OFFCURVE",
"345 -17 QCURVE SMOOTH",
"450 -17 OFFCURVE",
"659 13 OFFCURVE",
"856 72 OFFCURVE",
"994 159 OFFCURVE",
"1057 248 OFFCURVE",
"1105 356 OFFCURVE",
"1117 407 QCURVE",
"1097 413 LINE",
"1073 367 OFFCURVE",
"1035 322 OFFCURVE",
"978 278 OFFCURVE",
"937 256 QCURVE SMOOTH",
"845 208 OFFCURVE",
"547 147 OFFCURVE",
"411 147 QCURVE SMOOTH",
"271 147 OFFCURVE",
"159 169 OFFCURVE",
"112 222 OFFCURVE",
"112 269 QCURVE SMOOTH",
"112 287 OFFCURVE",
"113 301 QCURVE",
"83 306 LINE",
"58 219 OFFCURVE",
"58 160 QCURVE SMOOTH"
);
},
{
closed = 1;
nodes = (
"595 603 LINE"
);
},
{
closed = 1;
nodes = (
"577 -256 LINE"
);
},
{
closed = 1;
nodes = (
"527 -46 LINE"
);
}
);
width = 1175;
}
);
note = BehxSep;
},
{
glyphname = BehxFin;
lastChange = "2019-08-09 22:57:09 +0000";
layers = (
{
layerId = "5E96EFD4-BDA9-4728-9E21-55349679CE65";
paths = (
{
closed = 1;
nodes = (
"58 71 OFFCURVE",
"194 -17 OFFCURVE",
"345 -17 QCURVE SMOOTH",
"478 -17 OFFCURVE",
"730 29 OFFCURVE",
"914 100 OFFCURVE",
"1045 209 OFFCURVE",
"1089 320 QCURVE",
"1100 284 OFFCURVE",
"1151 245 OFFCURVE",
"1187 245 QCURVE SMOOTH",
"1210 245 OFFCURVE",
"1249 282 OFFCURVE",
"1249 313 QCURVE SMOOTH",
"1249 331 OFFCURVE",
"1231 352 OFFCURVE",
"1220 352 QCURVE SMOOTH",
"1136 352 OFFCURVE",
"1111 385 QCURVE",
"1117 407 LINE",
"1097 413 LINE",
"1073 367 OFFCURVE",
"1035 322 OFFCURVE",
"978 278 OFFCURVE",
"937 256 QCURVE SMOOTH",
"845 208 OFFCURVE",
"547 147 OFFCURVE",
"411 147 QCURVE SMOOTH",
"270 147 OFFCURVE",
"158 169 OFFCURVE",
"112 222 OFFCURVE",
"112 269 QCURVE SMOOTH",
"112 286 OFFCURVE",
"113 301 QCURVE",
"83 306 LINE",
"58 219 OFFCURVE",
"58 160 QCURVE SMOOTH"
);
},
{
closed = 1;
nodes = (
"593 601 LINE"
);
},
{
closed = 1;
nodes = (
"573 -257 LINE"
);
},
{
closed = 1;
nodes = (
"527 -46 LINE"
);
}
);
width = 1187;
}
);
note = BehxFin;
},
{
glyphname = NoonxSep;
lastChange = "2019-08-09 22:57:09 +0000";
layers = (
{
layerId = "5E96EFD4-BDA9-4728-9E21-55349679CE65";
paths = (
{
closed = 1;
nodes = (
"705 477 OFFCURVE",
"679 357 OFFCURVE",
"679 292 QCURVE SMOOTH",
"680 224 LINE SMOOTH",
"680 112 OFFCURVE",
"634 -11 OFFCURVE",
"546 -104 OFFCURVE",
"416 -162 OFFCURVE",
"329 -162 QCURVE SMOOTH",
"219 -162 OFFCURVE",
"95 -50 OFFCURVE",
"95 63 QCURVE SMOOTH",
"95 161 OFFCURVE",
"151 297 QCURVE",
"123 308 LINE",
"76 208 OFFCURVE",
"28 21 OFFCURVE",
"28 -84 QCURVE SMOOTH",
"28 -200 OFFCURVE",
"165 -341 OFFCURVE",
"280 -341 QCURVE SMOOTH",
"424 -341 OFFCURVE",
"647 -130 OFFCURVE",
"710 70 QCURVE SMOOTH",
"752 201 OFFCURVE",
"756 428 QCURVE SMOOTH",
"757 534 OFFCURVE",
"763 563 QCURVE",
"742 569 LINE"
);
},
{
closed = 1;
nodes = (
"413 713 LINE"
);
},
{
closed = 1;
nodes = (
"312 -576 LINE"
);
},
{
closed = 1;
nodes = (
"398 216 LINE"
);
},
{
closed = 1;
nodes = (
"343 -376 LINE"
);
}
);
width = 861;
}
);
note = NoonxSep;
},
